<?xml version="1.0" encoding="utf-8"?>
<!-- Generator: Adobe Illustrator 26.0.3, SVG Export Plug-In . SVG Version: 6.00 Build 0)  -->
<svg version="1.2" baseProfile="tiny" id="Layer_1" xmlns="http://www.w3.org/2000/svg" xmlns:xlink="http://www.w3.org/1999/xlink"
	 x="0px" y="0px" viewBox="0 0 868.8 216.6" overflow="visible" xml:space="preserve">
<g>
	<g>
		<path d="M101.9,34.2c0-14.4,7.9-24.7,19.1-24.7c9.3,0,16.3,5.9,17.4,17.9l-5.5,0.8c-0.4-9.5-5.6-14.1-11.9-14.1
			c-7.9,0-13.5,8.3-13.5,20.1c0,11.8,5.6,20,13.9,20c6.5,0,11.3-5.7,11.6-13.5l5.5,0.4c-0.6,10.5-7.2,17.8-17,17.8
			C109.8,58.9,101.9,48.5,101.9,34.2z"/>
		<path d="M141.2,41.7c0-10.3,5.5-17.1,13.8-17.1c8.4,0,13.9,6.9,13.9,17.1c0,10.3-5.5,17.2-13.9,17.2
			C146.8,58.9,141.2,52,141.2,41.7z M155,54.5c5.2,0,8.8-4.8,8.8-12.8c0-7.9-3.6-12.8-8.8-12.8c-5.1,0-8.7,4.9-8.7,12.8
			C146.3,49.7,149.9,54.5,155,54.5z"/>
		<path d="M187,28.9c-4.9,0-8.6,4.6-8.6,12.8V58h-5.1V25.4h5.1v6.2c1.7-4.2,5.5-7,9.6-7c7,0,11.1,4.8,11.1,12.5V58h-5.1V37.3
			C194.1,32.4,191.3,28.9,187,28.9z"/>
		<path d="M218.7,28.9c-4.9,0-8.6,4.6-8.6,12.8V58h-5.1V25.4h5.1v6.2c1.7-4.2,5.5-7,9.6-7c7,0,11.1,4.8,11.1,12.5V58h-5.1V37.3
			C225.9,32.4,223.1,28.9,218.7,28.9z"/>
		<path d="M235.2,41.7c0-9.7,5.6-17.1,13.9-17.1c9.2,0,14.2,8,12.2,17.4h-21.4c0,9.5,5.1,12.4,9.2,12.4c4.4,0,7.1-2.7,7.6-6.9
			l4.9,0.4c-0.8,6.4-5.9,10.9-12.5,10.9C240.1,58.9,235.2,51.3,235.2,41.7z M256.8,38.3c0.5-5.6-2.7-9.5-7.7-9.5
			c-4.7,0-8.2,3.9-8.8,9.5H256.8z"/>
		<path d="M264.8,41.7c0-10,5.9-17.1,14.1-17.1c6.6,0,11.7,4.8,12.5,11.8l-4.9,0.9c-0.5-5.2-3.6-8.3-7.6-8.3c-5.2,0-9,4.9-9,12.7
			c0,8,3.7,12.8,8.8,12.8c4.4,0,7.4-2.9,7.8-7.5l4.9,0.5c-0.9,6.8-5.8,11.4-12.7,11.4C270.4,58.9,264.8,51.8,264.8,41.7z"/>
		<path d="M298.5,49.4V29.6h-6v-4.2h6V15.4h5.1v10.1h8.6v4.2h-8.6v19.2c0,3.9,1.5,5.7,4,5.7c1.2,0,2.7-0.5,3.9-2.2l0.9,4.4
			c-1.3,1.5-3.7,2.2-5.2,2.2C301.6,58.9,298.5,55.4,298.5,49.4z"/>
		<path d="M316.3,10.3h5.7v6.2h-5.7V10.3z M316.6,25.4h5.1V58h-5.1V25.4z"/>
		<path d="M341.5,28.9c-4.9,0-8.6,4.6-8.6,12.8V58h-5.1V25.4h5.1v6.2c1.7-4.2,5.5-7,9.6-7c7,0,11.1,4.8,11.1,12.5V58h-5.1V37.3
			C348.6,32.4,345.8,28.9,341.5,28.9z"/>
		<path d="M357.4,61.7c0-3.4,1.8-5.9,3.7-7.4c-1.1-1.3-1.7-2.9-1.7-4.4c0-2.3,1.4-4.2,2.6-5.3c-2.3-2-3.7-4.9-3.7-8.5
			c0-6.8,4.9-11.5,12-11.5c3,0,5.6,0.9,7.7,2.4c1.7-1.7,3.7-3,6.1-3.8l1.9,3.8c-1.7,0.5-3.8,1.4-5.5,2.7c1.2,1.8,1.8,4,1.8,6.4
			c0,6.8-4.9,11.4-12,11.4c-1.8,0-3.6-0.3-5.1-1c-0.5,0.6-1,1.4-1,2.4c0,2.2,1.4,3.6,3.6,3.6c2.9,0,3.9-0.5,7.3-0.5
			c5.9,0,9.4,3.6,9.4,8.8c0,6.4-5.3,10.3-13.7,10.3C362.7,71,357.4,67.5,357.4,61.7z M370.8,67.1c5.4,0,8.7-2.3,8.7-6.1
			c0-2.6-1.7-4.6-5.2-4.6c-2.9,0-4.3,0.5-7.2,0.5c-1.1,0-2.1-0.2-3-0.5c-1.2,1.2-2,2.7-2,4.7C362,64.9,365.5,67.1,370.8,67.1z
			 M370.2,43.6c4.2,0,6.9-3.1,6.9-7.6c0-4.4-2.7-7.5-6.9-7.5c-4.2,0-7,3.1-7,7.5C363.3,40.5,366,43.6,370.2,43.6z"/>
		<path d="M397.9,41.7c0-10,5.9-17.1,14.1-17.1c6.6,0,11.7,4.8,12.5,11.8l-4.9,0.9c-0.5-5.2-3.6-8.3-7.6-8.3c-5.2,0-9,4.9-9,12.7
			c0,8,3.7,12.8,8.8,12.8c4.4,0,7.4-2.9,7.8-7.5l4.9,0.5c-0.9,6.8-5.8,11.4-12.7,11.4C403.5,58.9,397.9,51.8,397.9,41.7z"/>
		<path d="M428.6,25.4h5.1V32c1.4-4.9,4.9-7.4,8.1-7.4c1.2,0,2.6,0.3,3.8,1l-0.5,4.7c-1.2-0.7-2.6-1-3.8-1c-2.3,0-7.6,1.9-7.6,12.6
			V58h-5.1V25.4z"/>
		<path d="M446.1,41.7c0-9.7,5.6-17.1,13.9-17.1c9.2,0,14.2,8,12.2,17.4h-21.4c0,9.5,5.1,12.4,9.2,12.4c4.4,0,7.1-2.7,7.6-6.9
			l4.9,0.4c-0.8,6.4-5.9,10.9-12.5,10.9C451.1,58.9,446.1,51.3,446.1,41.7z M467.7,38.3c0.5-5.6-2.7-9.5-7.7-9.5
			c-4.7,0-8.2,3.9-8.8,9.5H467.7z"/>
		<path d="M495.8,51.3c-1.4,4.6-5.1,7.6-10.3,7.6c-5.8,0-9.5-3.4-9.5-8.8c0-13.7,19.6-7.9,19.8-15.5c0-2.9-2.4-5.7-7-5.7
			c-4.3,0-7.7,3.3-7.9,7.7l-5.1-0.5c0.7-6.4,6.2-11.4,12.9-11.4c7.5,0,12.2,4.2,12.2,11.4v13.8c0,1.9,0.3,6.2,1.3,8.3h-5.5
			C496,56.5,495.8,53.4,495.8,51.3z M486.7,54.7c5.7,0,9-6.8,9-11.4v-3.1c-3.5,3.6-14.6,1.6-14.6,9.6
			C481.1,52.9,483.3,54.7,486.7,54.7z"/>
		<path d="M509.9,49.4V29.6h-6v-4.2h6V15.4h5.1v10.1h8.6v4.2h-8.6v19.2c0,3.9,1.5,5.7,4,5.7c1.2,0,2.7-0.5,3.9-2.2l0.9,4.4
			c-1.3,1.5-3.7,2.2-5.2,2.2C512.9,58.9,509.9,55.4,509.9,49.4z"/>
		<path d="M527.6,10.3h5.7v6.2h-5.7V10.3z M528,25.4h5.1V58H528V25.4z"/>
		<path d="M536.5,25.4h5.1l9,28.1l8.9-28.1h5.1L553.7,58h-6.4L536.5,25.4z"/>
		<path d="M565.6,41.7c0-9.7,5.6-17.1,13.9-17.1c9.2,0,14.2,8,12.2,17.4h-21.4c0,9.5,5.1,12.4,9.2,12.4c4.4,0,7.1-2.7,7.6-6.9
			l4.9,0.4c-0.8,6.4-5.9,10.9-12.5,10.9C570.6,58.9,565.6,51.3,565.6,41.7z M587.2,38.3c0.5-5.6-2.7-9.5-7.7-9.5
			c-4.7,0-8.2,3.9-8.8,9.5H587.2z"/>
		<path d="M607.7,25.4h5.1v6.1c1.8-4.2,5.5-6.9,9.8-6.9c7.9,0,12.8,6.9,12.8,17.2c0,10.2-4.9,17.1-12.8,17.1c-4.2,0-8-2.7-9.8-6.8
			v18.2h-5.1V25.4z M621.4,54.6c5.3,0,8.8-4.9,8.8-12.8c0-7.9-3.4-12.8-8.8-12.8c-5.2,0-8.7,4.8-8.7,12.8
			C612.8,49.7,616.2,54.6,621.4,54.6z"/>
		<path d="M638.2,41.7c0-9.7,5.6-17.1,13.9-17.1c9.2,0,14.2,8,12.2,17.4H643c0,9.5,5.1,12.4,9.2,12.4c4.4,0,7.1-2.7,7.6-6.9l4.9,0.4
			c-0.8,6.4-5.9,10.9-12.5,10.9C643.2,58.9,638.2,51.3,638.2,41.7z M659.8,38.3c0.5-5.6-2.7-9.5-7.7-9.5c-4.7,0-8.2,3.9-8.8,9.5
			H659.8z"/>
		<path d="M667.9,41.7c0-10.3,5.5-17.1,13.8-17.1c8.4,0,13.9,6.9,13.9,17.1c0,10.3-5.5,17.2-13.9,17.2
			C673.4,58.9,667.9,52,667.9,41.7z M681.7,54.5c5.2,0,8.8-4.8,8.8-12.8c0-7.9-3.6-12.8-8.8-12.8c-5.1,0-8.7,4.9-8.7,12.8
			C673,49.7,676.5,54.5,681.7,54.5z"/>
		<path d="M700,25.4h5.1v6.1c1.8-4.2,5.5-6.9,9.8-6.9c7.9,0,12.8,6.9,12.8,17.2c0,10.2-4.9,17.1-12.8,17.1c-4.2,0-8-2.7-9.8-6.8
			v18.2H700V25.4z M713.7,54.6c5.3,0,8.8-4.9,8.8-12.8c0-7.9-3.4-12.8-8.8-12.8c-5.2,0-8.7,4.8-8.7,12.8
			C705,49.7,708.5,54.6,713.7,54.6z"/>
		<path d="M732.1,10.3h5.1V58h-5.1V10.3z"/>
		<path d="M741.8,41.7c0-9.7,5.6-17.1,13.9-17.1c9.2,0,14.2,8,12.2,17.4h-21.4c0,9.5,5.1,12.4,9.2,12.4c4.4,0,7.1-2.7,7.6-6.9
			l4.9,0.4c-0.8,6.4-5.9,10.9-12.5,10.9C746.8,58.9,741.8,51.3,741.8,41.7z M763.4,38.3c0.5-5.6-2.7-9.5-7.7-9.5
			c-4.7,0-8.2,3.9-8.8,9.5H763.4z"/>
		<path d="M22.3,116.9c-1.4,4.6-5.1,7.6-10.3,7.6c-5.8,0-9.5-3.4-9.5-8.8c0-13.7,19.6-7.9,19.8-15.5c0-2.9-2.4-5.7-7-5.7
			c-4.3,0-7.7,3.3-7.9,7.7l-5.1-0.5c0.7-6.4,6.2-11.4,12.9-11.4c7.5,0,12.2,4.2,12.2,11.4v13.8c0,1.9,0.3,6.2,1.3,8.3h-5.5
			C22.6,122.2,22.4,119,22.3,116.9z M13.3,120.3c5.7,0,9-6.8,9-11.4v-3.1c-3.5,3.6-14.6,1.6-14.6,9.6
			C7.7,118.5,9.8,120.3,13.3,120.3z"/>
		<path d="M47,94.5c-4.9,0-8.6,4.6-8.6,12.8v16.3h-5.1V91.1h5.1v6.2c1.7-4.2,5.5-7,9.6-7c7,0,11.1,4.8,11.1,12.5v20.9h-5.1V103
			C54.1,98,51.3,94.5,47,94.5z"/>
		<path d="M63.2,107.3c0-10.2,4.9-17.1,12.8-17.1c4.3,0,8.1,2.7,9.8,7V75.9h5.1v47.7h-5.1v-6.3c-1.8,4.3-5.5,7.1-9.8,7.1
			C68.1,124.5,63.2,117.6,63.2,107.3z M77.1,120.1c5.2,0,8.7-4.8,8.7-12.8c0-7.9-3.5-12.8-8.7-12.8c-5.3,0-8.8,4.9-8.8,12.8
			C68.4,115.3,71.8,120.1,77.1,120.1z"/>
		<path d="M108,91.1h5.1v6.1c1.8-4.2,5.5-6.9,9.8-6.9c7.9,0,12.8,6.9,12.8,17.2c0,10.2-4.9,17.1-12.8,17.1c-4.2,0-8-2.7-9.8-6.8
			v18.2H108V91.1z M121.7,120.2c5.3,0,8.8-4.9,8.8-12.8c0-7.9-3.4-12.8-8.8-12.8c-5.2,0-8.7,4.8-8.7,12.8
			C113,115.3,116.5,120.2,121.7,120.2z"/>
		<path d="M140,91.1h5.1v6.6c1.4-4.9,4.9-7.4,8.1-7.4c1.2,0,2.6,0.3,3.8,1l-0.5,4.7c-1.2-0.7-2.6-1-3.8-1c-2.3,0-7.6,1.9-7.6,12.6
			v16.1H140V91.1z"/>
		<path d="M157.5,107.3c0-10.3,5.5-17.1,13.8-17.1c8.4,0,13.9,6.9,13.9,17.1c0,10.3-5.5,17.2-13.9,17.2
			C163.1,124.5,157.5,117.7,157.5,107.3z M171.3,120.1c5.2,0,8.8-4.8,8.8-12.8c0-7.9-3.6-12.8-8.8-12.8c-5.1,0-8.7,4.9-8.7,12.8
			C162.6,115.3,166.2,120.1,171.3,120.1z"/>
		<path d="M194.9,91.1v35.2c0,6.8-3.8,10.4-8.7,10.4h-1l-0.4-4.6c0.3,0.1,0.6,0.1,0.8,0.1c2.5,0,4.2-2.3,4.2-6.6V91.1H194.9z
			 M189.4,75.9h5.7v6.2h-5.7V75.9z"/>
		<path d="M199.4,107.3c0-9.7,5.6-17.1,13.9-17.1c9.2,0,14.2,8,12.2,17.4h-21.4c0,9.5,5.1,12.4,9.2,12.4c4.4,0,7.1-2.7,7.6-6.9
			l4.9,0.4c-0.8,6.4-5.9,10.9-12.5,10.9C204.4,124.5,199.4,117,199.4,107.3z M221,103.9c0.5-5.6-2.7-9.5-7.7-9.5
			c-4.7,0-8.2,3.9-8.8,9.5H221z"/>
		<path d="M229,107.3c0-10,5.9-17.1,14.1-17.1c6.6,0,11.7,4.8,12.5,11.8l-4.9,0.9c-0.5-5.2-3.6-8.3-7.6-8.3c-5.2,0-9,4.9-9,12.7
			c0,8,3.7,12.8,8.8,12.8c4.4,0,7.4-2.9,7.8-7.5l4.9,0.5c-0.9,6.8-5.8,11.4-12.7,11.4C234.6,124.5,229,117.4,229,107.3z"/>
		<path d="M262.7,115.1V95.2h-6v-4.2h6V81h5.1v10.1h8.6v4.2h-8.6v19.2c0,3.9,1.5,5.7,4,5.7c1.2,0,2.7-0.5,3.9-2.2l0.9,4.4
			c-1.3,1.5-3.7,2.2-5.2,2.2C265.8,124.5,262.7,121.1,262.7,115.1z"/>
		<path d="M279.1,112.5l4.9-0.4c0.3,4.6,3.8,8.3,8.3,8.3c4,0,6.2-2.3,6.2-5.4c0-8.5-18.1-3.5-18.1-15.4c0-5.1,4.4-9.4,10.9-9.4
			c5.9,0,11.1,4.1,11.6,9.7l-4.9,0.3c-0.2-3.3-3.1-6-6.6-6c-3.9,0-5.9,2.3-5.9,5.1c0,8,18.1,2.2,18.1,15.3c0,5.6-4.4,9.8-11.2,9.8
			C285.2,124.5,279.6,119.4,279.1,112.5z"/>
		<path d="M322.4,115.1V95.2h-6v-4.2h6V81h5.1v10.1h8.6v4.2h-8.6v19.2c0,3.9,1.5,5.7,4,5.7c1.2,0,2.7-0.5,3.9-2.2l0.9,4.4
			c-1.3,1.5-3.7,2.2-5.2,2.2C325.5,124.5,322.4,121.1,322.4,115.1z"/>
		<path d="M337.9,107.3c0-10.3,5.5-17.1,13.8-17.1c8.4,0,13.9,6.9,13.9,17.1c0,10.3-5.5,17.2-13.9,17.2
			C343.4,124.5,337.9,117.7,337.9,107.3z M351.7,120.1c5.2,0,8.8-4.8,8.8-12.8c0-7.9-3.6-12.8-8.8-12.8c-5.1,0-8.7,4.9-8.7,12.8
			C343,115.3,346.6,120.1,351.7,120.1z"/>
		<path d="M379.1,107.3c0-10,5.9-17.1,14.1-17.1c6.6,0,11.7,4.8,12.5,11.8l-4.9,0.9c-0.5-5.2-3.6-8.3-7.6-8.3c-5.2,0-9,4.9-9,12.7
			c0,8,3.7,12.8,8.8,12.8c4.4,0,7.4-2.9,7.8-7.5l4.9,0.5c-0.9,6.8-5.8,11.4-12.7,11.4C384.7,124.5,379.1,117.4,379.1,107.3z"/>
		<path d="M409.7,91.1h5.1v6.6c1.4-4.9,4.9-7.4,8.1-7.4c1.2,0,2.6,0.3,3.8,1l-0.5,4.7c-1.2-0.7-2.6-1-3.8-1c-2.3,0-7.6,1.9-7.6,12.6
			v16.1h-5.1V91.1z"/>
		<path d="M447.7,116.9c-1.4,4.6-5.1,7.6-10.3,7.6c-5.8,0-9.5-3.4-9.5-8.8c0-13.7,19.6-7.9,19.8-15.5c0-2.9-2.4-5.7-7-5.7
			c-4.3,0-7.7,3.3-7.9,7.7l-5.1-0.5c0.7-6.4,6.2-11.4,12.9-11.4c7.5,0,12.2,4.2,12.2,11.4v13.8c0,1.9,0.3,6.2,1.3,8.3h-5.5
			C448,122.2,447.8,119,447.7,116.9z M438.7,120.3c5.7,0,9-6.8,9-11.4v-3.1c-3.5,3.6-14.6,1.6-14.6,9.6
			C433.1,118.5,435.2,120.3,438.7,120.3z"/>
		<path d="M471.1,75.1c3.7,0,7.7,2.3,8.5,6.4l-4.5,1.8c-0.6-2.3-2.1-3.9-4.2-3.9c-2.3,0-4.5,1.8-4.5,6.2v5.4h9.4v4.2h-9.4v28.4h-5.1
			V95.2H456v-4.2h5.3v-4.9C461.3,78.2,465.9,75.1,471.1,75.1z"/>
		<path d="M482.4,115.1V95.2h-6v-4.2h6V81h5.1v10.1h8.6v4.2h-8.6v19.2c0,3.9,1.5,5.7,4,5.7c1.2,0,2.7-0.5,3.9-2.2l0.9,4.4
			c-1.3,1.5-3.7,2.2-5.2,2.2C485.5,124.5,482.4,121.1,482.4,115.1z"/>
		<path d="M523.6,75.1c3.7,0,7.7,2.3,8.5,6.4l-4.5,1.8c-0.6-2.3-2.1-3.9-4.2-3.9c-2.3,0-4.5,1.8-4.5,6.2v5.4h9.4v4.2h-9.4v28.4h-5.1
			V95.2h-5.3v-4.2h5.3v-4.9C513.9,78.2,518.5,75.1,523.6,75.1z"/>
		<path d="M531.2,91.1h5.1v6.6c1.4-4.9,4.9-7.4,8.1-7.4c1.2,0,2.6,0.3,3.8,1l-0.5,4.7c-1.2-0.7-2.6-1-3.8-1c-2.3,0-7.6,1.9-7.6,12.6
			v16.1h-5.1V91.1z"/>
		<path d="M548.7,107.3c0-9.7,5.6-17.1,13.9-17.1c9.2,0,14.2,8,12.2,17.4h-21.4c0,9.5,5.1,12.4,9.2,12.4c4.4,0,7.1-2.7,7.6-6.9
			l4.9,0.4c-0.8,6.4-5.9,10.9-12.5,10.9C553.6,124.5,548.7,117,548.7,107.3z M570.3,103.9c0.5-5.6-2.7-9.5-7.7-9.5
			c-4.7,0-8.2,3.9-8.8,9.5H570.3z"/>
		<path d="M578.2,112.5l4.9-0.4c0.3,4.6,3.8,8.3,8.3,8.3c4,0,6.2-2.3,6.2-5.4c0-8.5-18.1-3.5-18.1-15.4c0-5.1,4.4-9.4,10.9-9.4
			c5.9,0,11.1,4.1,11.6,9.7l-4.9,0.3c-0.2-3.3-3.1-6-6.6-6c-3.9,0-5.9,2.3-5.9,5.1c0,8,18.1,2.2,18.1,15.3c0,5.6-4.4,9.8-11.2,9.8
			C584.2,124.5,578.6,119.4,578.2,112.5z"/>
		<path d="M620.8,94.5c-4.5,0-8.1,3.9-8.6,10.9v18.2h-5.1V75.9h5.1v21.3c1.7-4.2,5.5-7,9.6-7c7,0,11.1,4.8,11.1,12.5v20.9h-5.1V103
			C627.9,98,625.1,94.5,620.8,94.5z"/>
		<path d="M647.9,112.5l4.9-0.4c0.3,4.6,3.8,8.3,8.3,8.3c4,0,6.2-2.3,6.2-5.4c0-8.5-18.1-3.5-18.1-15.4c0-5.1,4.4-9.4,10.9-9.4
			c5.9,0,11.1,4.1,11.6,9.7l-4.9,0.3c-0.2-3.3-3.1-6-6.6-6c-3.9,0-5.9,2.3-5.9,5.1c0,8,18.1,2.2,18.1,15.3c0,5.6-4.4,9.8-11.2,9.8
			C653.9,124.5,648.3,119.4,647.9,112.5z"/>
		<path d="M675,107.3c0-10.3,5.5-17.1,13.8-17.1c8.4,0,13.9,6.9,13.9,17.1c0,10.3-5.5,17.2-13.9,17.2
			C680.5,124.5,675,117.7,675,107.3z M688.8,120.1c5.2,0,8.8-4.8,8.8-12.8c0-7.9-3.6-12.8-8.8-12.8c-5.1,0-8.7,4.9-8.7,12.8
			C680.1,115.3,683.7,120.1,688.8,120.1z"/>
		<path d="M707.2,75.9h5.1v47.7h-5.1V75.9z"/>
		<path d="M730.4,120.2c4.9,0,8.6-4.6,8.6-12.8v0.3l0.1-16.6h5.1l-0.1,32.6H739v-6.2c-1.7,4.2-5.5,7-9.6,7c-7,0-11.1-4.8-11.1-12.5
			V91.1h5.1v20.7C723.3,116.7,726.1,120.2,730.4,120.2z"/>
		<path d="M753.9,115.1V95.2h-6v-4.2h6V81h5.1v10.1h8.6v4.2H759v19.2c0,3.9,1.5,5.7,4,5.7c1.2,0,2.7-0.5,3.9-2.2l0.9,4.4
			c-1.3,1.5-3.7,2.2-5.2,2.2C757,124.5,753.9,121.1,753.9,115.1z"/>
		<path d="M771.7,75.9h5.7v6.2h-5.7V75.9z M772,91.1h5.1v32.6H772V91.1z"/>
		<path d="M781.5,107.3c0-10.3,5.5-17.1,13.8-17.1c8.4,0,13.9,6.9,13.9,17.1c0,10.3-5.5,17.2-13.9,17.2
			C787.1,124.5,781.5,117.7,781.5,107.3z M795.3,120.1c5.2,0,8.8-4.8,8.8-12.8c0-7.9-3.6-12.8-8.8-12.8c-5.1,0-8.7,4.9-8.7,12.8
			C786.6,115.3,790.2,120.1,795.3,120.1z"/>
		<path d="M827.3,94.5c-4.9,0-8.6,4.6-8.6,12.8v16.3h-5.1V91.1h5.1v6.2c1.7-4.2,5.5-7,9.6-7c7,0,11.1,4.8,11.1,12.5v20.9h-5.1V103
			C834.4,98,831.6,94.5,827.3,94.5z"/>
		<path d="M843.7,112.5l4.9-0.4c0.3,4.6,3.8,8.3,8.3,8.3c4,0,6.2-2.3,6.2-5.4c0-8.5-18.1-3.5-18.1-15.4c0-5.1,4.4-9.4,10.9-9.4
			c5.9,0,11.1,4.1,11.6,9.7l-4.9,0.3c-0.2-3.3-3.1-6-6.6-6c-3.9,0-5.9,2.3-5.9,5.1c0,8,18.1,2.2,18.1,15.3c0,5.6-4.4,9.8-11.2,9.8
			C849.7,124.5,844.1,119.4,843.7,112.5z"/>
		<path d="M218.3,180.7v-19.8h-6v-4.2h6v-10.1h5.1v10.1h8.6v4.2h-8.6v19.2c0,3.9,1.5,5.7,4,5.7c1.2,0,2.7-0.5,3.9-2.2l0.9,4.4
			c-1.3,1.5-3.7,2.2-5.2,2.2C221.4,190.1,218.3,186.7,218.3,180.7z"/>
		<path d="M233.8,173c0-10.3,5.5-17.1,13.8-17.1c8.4,0,13.9,6.9,13.9,17.1c0,10.3-5.5,17.2-13.9,17.2
			C239.3,190.1,233.8,183.3,233.8,173z M247.6,185.7c5.2,0,8.8-4.8,8.8-12.8c0-7.9-3.6-12.8-8.8-12.8c-5.1,0-8.7,4.9-8.7,12.8
			C238.9,181,242.4,185.7,247.6,185.7z"/>
		<path d="M275,173c0-10,5.9-17.1,14.1-17.1c6.6,0,11.7,4.8,12.5,11.8l-4.9,0.9c-0.5-5.2-3.6-8.3-7.6-8.3c-5.2,0-9,4.9-9,12.7
			c0,8,3.7,12.8,8.8,12.8c4.4,0,7.4-2.9,7.8-7.5l4.9,0.5c-0.9,6.8-5.8,11.4-12.7,11.4C280.6,190.1,275,183,275,173z"/>
		<path d="M305.7,141.6h5.1v47.7h-5.1V141.6z"/>
		<path d="M316.7,141.6h5.7v6.2h-5.7V141.6z M317,156.7h5.1v32.6H317V156.7z"/>
		<path d="M341.6,160.2c-4.9,0-8.3,4.9-8.3,12.5v16.5h-5.1v-32.6h5.1v6.2c1.6-4,5.5-7,9.7-7c5.1,0,8.4,2.9,9.7,7.7
			c1.4-4.4,5.6-7.7,10.5-7.7c6.3,0,10.3,4.6,10.3,12v21.5h-5.1v-20.9c0-4.9-2.5-8.2-6.6-8.2c-5,0-8.4,4.9-8.4,11.4v17.6h-5.1v-20.4
			C348.4,163.7,345.8,160.2,341.6,160.2z"/>
		<path d="M397.9,182.5c-1.4,4.6-5.1,7.6-10.3,7.6c-5.8,0-9.5-3.4-9.5-8.8c0-13.7,19.6-7.9,19.8-15.5c0-2.9-2.4-5.7-7-5.7
			c-4.3,0-7.7,3.3-7.9,7.7l-5.1-0.5c0.7-6.4,6.2-11.4,12.9-11.4c7.5,0,12.2,4.2,12.2,11.4V181c0,1.9,0.3,6.2,1.3,8.3h-5.5
			C398.2,187.8,398,184.6,397.9,182.5z M388.9,185.9c5.7,0,9-6.8,9-11.4v-3.1c-3.5,3.6-14.6,1.6-14.6,9.6
			C383.3,184.2,385.4,185.9,388.9,185.9z"/>
		<path d="M412,180.7v-19.8h-6v-4.2h6v-10.1h5.1v10.1h8.6v4.2H417v19.2c0,3.9,1.5,5.7,4,5.7c1.2,0,2.7-0.5,3.9-2.2l0.9,4.4
			c-1.3,1.5-3.7,2.2-5.2,2.2C415.1,190.1,412,186.7,412,180.7z"/>
		<path d="M427.4,173c0-9.7,5.6-17.1,13.9-17.1c9.2,0,14.2,8,12.2,17.4h-21.4c0,9.5,5.1,12.4,9.2,12.4c4.4,0,7.1-2.7,7.6-6.9
			l4.9,0.4c-0.8,6.4-5.9,10.9-12.5,10.9C432.4,190.1,427.4,182.6,427.4,173z M449,169.5c0.5-5.6-2.7-9.5-7.7-9.5
			c-4.7,0-8.2,3.9-8.8,9.5H449z"/>
		<path d="M467.8,173c0-10,5.9-17.1,14.1-17.1c6.6,0,11.7,4.8,12.5,11.8l-4.9,0.9c-0.5-5.2-3.6-8.3-7.6-8.3c-5.2,0-9,4.9-9,12.7
			c0,8,3.7,12.8,8.8,12.8c4.4,0,7.4-2.9,7.8-7.5l4.9,0.5c-0.9,6.8-5.8,11.4-12.7,11.4C473.4,190.1,467.8,183,467.8,173z"/>
		<path d="M512.1,160.2c-4.5,0-8.1,3.9-8.6,10.9v18.2h-5.1v-47.7h5.1v21.3c1.7-4.2,5.5-7,9.6-7c7,0,11.1,4.8,11.1,12.5v20.9h-5.1
			v-20.7C519.3,163.7,516.5,160.2,512.1,160.2z"/>
		<path d="M548.7,182.5c-1.4,4.6-5.1,7.6-10.3,7.6c-5.8,0-9.5-3.4-9.5-8.8c0-13.7,19.6-7.9,19.8-15.5c0-2.9-2.4-5.7-7-5.7
			c-4.3,0-7.7,3.3-7.9,7.7l-5.1-0.5c0.7-6.4,6.2-11.4,12.9-11.4c7.5,0,12.2,4.2,12.2,11.4V181c0,1.9,0.3,6.2,1.3,8.3h-5.5
			C548.9,187.8,548.7,184.6,548.7,182.5z M539.6,185.9c5.7,0,9-6.8,9-11.4v-3.1C545.2,175,534,173,534,181
			C534,184.2,536.1,185.9,539.6,185.9z"/>
		<path d="M573.3,160.2c-4.9,0-8.6,4.6-8.6,12.8v16.3h-5.1v-32.6h5.1v6.2c1.7-4.2,5.5-7,9.6-7c7,0,11.1,4.8,11.1,12.5v20.9h-5.1
			v-20.7C580.4,163.7,577.6,160.2,573.3,160.2z"/>
		<path d="M589.2,192.9c0-3.4,1.8-5.9,3.7-7.4c-1.1-1.3-1.7-2.9-1.7-4.4c0-2.3,1.4-4.2,2.6-5.3c-2.3-2-3.7-4.9-3.7-8.5
			c0-6.8,4.9-11.5,12-11.5c3,0,5.6,0.9,7.7,2.4c1.7-1.7,3.7-3,6.1-3.8l1.9,3.8c-1.7,0.5-3.8,1.4-5.5,2.7c1.2,1.8,1.8,4,1.8,6.4
			c0,6.8-4.9,11.4-12,11.4c-1.8,0-3.6-0.3-5.1-1c-0.5,0.6-1,1.4-1,2.4c0,2.2,1.4,3.6,3.6,3.6c2.9,0,3.9-0.5,7.3-0.5
			c5.9,0,9.4,3.6,9.4,8.8c0,6.4-5.3,10.3-13.7,10.3C594.5,202.3,589.2,198.7,589.2,192.9z M602.6,198.3c5.4,0,8.7-2.3,8.7-6.1
			c0-2.6-1.7-4.6-5.2-4.6c-2.9,0-4.3,0.5-7.2,0.5c-1.1,0-2.1-0.2-3-0.5c-1.2,1.2-2,2.7-2,4.7C593.8,196.1,597.3,198.3,602.6,198.3z
			 M602.1,174.9c4.2,0,6.9-3.1,6.9-7.6c0-4.4-2.7-7.5-6.9-7.5c-4.2,0-7,3.1-7,7.5C595.1,171.7,597.8,174.9,602.1,174.9z"/>
		<path d="M618,173c0-9.7,5.6-17.1,13.9-17.1c9.2,0,14.2,8,12.2,17.4h-21.4c0,9.5,5.1,12.4,9.2,12.4c4.4,0,7.1-2.7,7.6-6.9l4.9,0.4
			c-0.8,6.4-5.9,10.9-12.5,10.9C623,190.1,618,182.6,618,173z M639.6,169.5c0.5-5.6-2.7-9.5-7.7-9.5c-4.7,0-8.2,3.9-8.8,9.5H639.6z"
			/>
		<path d="M648.7,182.8h6.6v6.5h-6.6V182.8z"/>
	</g>
	<g>
		<path d="M384.6,74.2c53.1,0,106.2-3,159.3-6.1c26.3-1.5,52.6-3.2,78.9-4c26.6-0.8,53.2-0.8,79.8-0.8c14.8,0,29.7-0.3,44.5,0.5
			c7.4,0.4,14.7,0.9,22.1,0.7c3.7-0.1,7.2-0.7,10.8-1.1c1.9-0.2,4.5,0.5,6-1.2c0.4-0.4,0.2-1.1-0.3-1.3c-1.8-0.6-3.4-1.5-5.3-1.4
			c-1,0.1-1,1.6,0,1.5c1.8-0.1,3.3,0.8,4.9,1.3c-0.1-0.4-0.2-0.8-0.3-1.3c-0.9,1-2.2,0.5-3.3,0.6c-1.3,0-2.7,0.3-4,0.5
			c-3.6,0.5-7.1,0.8-10.7,0.8c-6.6,0.1-13.2-0.3-19.7-0.7c-13-0.7-26-0.6-38.9-0.5c-26.1,0-52.1,0-78.2,0.6
			c-52.4,1.2-104.7,5.6-157.1,7.9c-29.4,1.3-58.9,2.3-88.3,2.3C383.6,72.7,383.6,74.2,384.6,74.2L384.6,74.2z"/>
	</g>
	<g>
		<path d="M146.1,63c-17.5,9.6-32.9,23.4-45.1,39.2c-5.8,7.5-11.2,16.6-11.1,26.4c0.1,7.7,3.8,14.5,9.8,19.1
			c5.7,4.4,12.8,6.9,19.8,8.6c7.7,1.9,15.6,2.8,23.4,3.6c22.6,2.4,45.5,3,68.2,0.8c11.1-1.1,22.3-2.7,33.1-5.4
			c10.6-2.6,21-6.3,30.9-10.9c8.8-4.1,16.6-9.6,23.4-16.5c6.5-6.5,12.9-13.9,15.7-22.8c2.6-8.5,1.8-18.2-2.9-25.8
			c-4.9-8-13.1-13-21.8-16c-4.6-1.6-9.2-2.7-13.9-3.7c-5.5-1.2-11-2.2-16.6-2.7c-11.3-1.1-22.6-0.6-33.8,1.2
			c-20.7,3.3-40.9,8.9-60.4,16.5c-19.3,7.4-37.8,16.7-55.6,27.1c-4.4,2.6-8.8,5.3-13.1,8c-0.8,0.5-0.1,1.8,0.8,1.3
			c17-10.8,34.7-20.6,53.2-28.7c18.5-8.2,37.7-14.7,57.3-19.2c10.3-2.3,20.8-4.4,31.3-5c11.2-0.7,22.5,0.1,33.6,2.4
			c9.2,1.9,18.8,4,26.8,8.9c7.7,4.7,13.4,12.2,14.8,21.2c1.5,9.4-1.7,18.3-7.2,25.9c-5.5,7.5-12.4,14.4-20,19.7
			c-8.3,5.9-17.9,9.9-27.5,13.2c-10.1,3.5-20.5,6-31.1,7.7c-21.9,3.5-44.3,4.2-66.4,2.9c-10.1-0.6-20.1-1.5-30.1-3
			c-6.9-1-13.8-2.4-20.4-4.8c-6.4-2.4-12.7-6.1-16.4-12c-5-8-3.8-17.7,0.2-25.8c4.3-8.8,11-16.3,17.7-23.3
			c6.7-7.1,14.1-13.6,22.1-19.2c3.9-2.7,7.9-5.2,12.1-7.5C147.7,63.8,146.9,62.5,146.1,63L146.1,63z"/>
	</g>
	<g>
		<path d="M278.5,216.4c5.6-6.4,10.6-13.4,16.8-19.3c2.6-2.5,5.5-5.9,9.3-6.6c4.1-0.8,6.8,1.6,8.9,4.8c3.2,5,5.3,11.2,10.2,15
			c5.6,4.3,12.5,2.7,18-0.9c5.9-3.9,10.5-10,17.1-13c4.1-1.8,7.7-0.7,11,2.1c2.6,2.2,4.8,4.7,7.2,7c4.1,4,9.9,8.5,16,7
			c6.2-1.5,10.1-7.2,14.5-11.3c5.3-5,13.7-3,19.8-0.7c3.7,1.4,7.3,3.2,11,4.4c3.9,1.3,8,1.9,12.1,1.6c3.9-0.3,7.9-1.2,11.4-3
			c3.6-1.8,6.5-5.3,10.3-6.5c2.4-0.7,4.1,0.3,6,1.6c1.7,1.2,3.5,2.3,5.3,3.1c2.9,1.4,6.2,2.1,9.4,1.6c6.3-0.8,11.3-5.4,16.2-9.1
			c2.6-2,5.5-4,8.7-4.8c3.4-0.8,6,0.5,8.3,2.9c2.3,2.4,4.1,5.1,6.6,7.3c2.5,2.3,5.4,4.1,8.6,5.2c3.2,1.1,6.7,1.2,9.9-0.1
			c3.5-1.4,6.8-5,10.7-2.9c1.5,0.8,2.9,1.9,4.4,2.8c1.7,1,3.4,1.9,5.2,2.8c3.2,1.5,6.7,2.7,10.3,2.5c3.9-0.2,7.2-2.5,10.6-4.3
			c1.9-1,3.9-2,5.9-2.6c2-0.6,3.6,0,5.3,1c3.3,2,6.2,4.5,10,5.7c3.4,1,6.7,1,10.1,0c4.3-1.2,8.2-3.5,12.6-4.1c4.2-0.6,8.5-1,12.7-2
			c1.8-0.4,3.7-0.9,5.4-1.7c0.6-0.3,1.3-0.7,1.8-1.1c0.8-0.7,1.1-1.6,2.3-1.7c1-0.1,1-1.6,0-1.5c-1.4,0.1-2,0.7-2.9,1.7
			c-1.5,1.5-3.6,2-5.7,2.6c-4.5,1.2-9.1,1.8-13.7,2.3c-4.4,0.6-8.1,2.7-12.3,3.9c-4.3,1.3-8.4,1.2-12.5-0.8c-3.3-1.6-6-4.5-9.4-5.7
			c-3-1.1-6.2,0.6-8.9,2c-3.9,1.9-7.7,4.9-12.3,4.9c-4.2,0-8.2-2-11.9-3.9c-1.5-0.8-2.9-1.7-4.3-2.6c-1.4-0.9-2.8-2-4.5-2.2
			c-3.3-0.5-6.2,2.2-9,3.5c-7.8,3.5-15.8-2.2-20.6-8c-3.7-4.3-7.3-8.9-13.6-7.1c-6.1,1.8-10.7,6.9-15.9,10.3
			c-2.8,1.8-5.8,3.3-9.2,3.5c-4.1,0.2-7.8-1.5-11.2-3.6c-3.1-2-5.5-4.1-9.3-2.6c-3.6,1.3-6.2,4.4-9.6,6.1
			c-8.2,4.4-17.8,3.7-26.2,0.3c-6.5-2.6-13.2-6-20.4-5.6c-2.9,0.2-5.8,1-8,3c-2.4,2.1-4.4,4.6-6.7,6.8c-2.5,2.3-5.6,4.7-9.1,4.9
			c-3.6,0.2-7.2-1.9-9.9-4.1c-2.6-2.1-4.9-4.6-7.3-6.9c-2.2-2.2-4.6-4.7-7.5-5.8c-6.5-2.5-12.7,3-17.3,7
			c-5.4,4.7-12.4,11.5-20.3,9.6c-6.8-1.6-9.7-9.1-12.8-14.5c-1.4-2.4-3-5.1-5.4-6.7c-2.5-1.6-5.9-1.4-8.5-0.3c-3,1.3-5.5,4-7.8,6.3
			c-3.1,3-5.9,6.2-8.6,9.5c-2.7,3.3-5.4,6.6-8.2,9.8C276.8,216,277.9,217.1,278.5,216.4L278.5,216.4z"/>
	</g>
</g>
</svg>
