<?xml version="1.0" encoding="utf-8"?>
<!-- Generator: Adobe Illustrator 26.0.3, SVG Export Plug-In . SVG Version: 6.00 Build 0)  -->
<svg version="1.2" baseProfile="tiny" id="Layer_1" xmlns="http://www.w3.org/2000/svg" xmlns:xlink="http://www.w3.org/1999/xlink"
	 x="0px" y="0px" viewBox="0 0 692.1 216.6" overflow="visible" xml:space="preserve">
<g>
	<g>
		<path d="M7.9,34.2C7.9,19.8,15.8,9.5,27,9.5c9.3,0,16.3,5.9,17.4,17.9l-5.5,0.8c-0.4-9.5-5.6-14.1-11.9-14.1
			c-7.9,0-13.5,8.3-13.5,20.1c0,11.8,5.6,20,13.9,20c6.5,0,11.3-5.7,11.6-13.5l5.5,0.4c-0.6,10.5-7.2,17.8-17,17.8
			C15.8,58.9,7.9,48.5,7.9,34.2z"/>
		<path d="M47.2,41.7c0-10.3,5.5-17.1,13.8-17.1c8.4,0,13.9,6.9,13.9,17.1c0,10.3-5.5,17.2-13.9,17.2C52.7,58.9,47.2,52,47.2,41.7z
			 M61,54.5c5.2,0,8.8-4.8,8.8-12.8c0-7.9-3.6-12.8-8.8-12.8c-5.1,0-8.7,4.9-8.7,12.8C52.3,49.7,55.9,54.5,61,54.5z"/>
		<path d="M93,28.9c-4.9,0-8.6,4.6-8.6,12.8V58h-5.1V25.4h5.1v6.2c1.7-4.2,5.5-7,9.6-7c7,0,11.1,4.8,11.1,12.5V58h-5.1V37.3
			C100.1,32.4,97.3,28.9,93,28.9z"/>
		<path d="M124.7,28.9c-4.9,0-8.6,4.6-8.6,12.8V58H111V25.4h5.1v6.2c1.7-4.2,5.5-7,9.6-7c7,0,11.1,4.8,11.1,12.5V58h-5.1V37.3
			C131.8,32.4,129,28.9,124.7,28.9z"/>
		<path d="M141.1,41.7c0-9.7,5.6-17.1,13.9-17.1c9.2,0,14.2,8,12.2,17.4h-21.4c0,9.5,5.1,12.4,9.2,12.4c4.4,0,7.1-2.7,7.6-6.9
			l4.9,0.4c-0.8,6.4-5.9,10.9-12.5,10.9C146.1,58.9,141.1,51.3,141.1,41.7z M162.7,38.3c0.5-5.6-2.7-9.5-7.7-9.5
			c-4.7,0-8.2,3.9-8.8,9.5H162.7z"/>
		<path d="M170.8,41.7c0-10,5.9-17.1,14.1-17.1c6.6,0,11.7,4.8,12.5,11.8l-4.9,0.9c-0.5-5.2-3.6-8.3-7.6-8.3c-5.2,0-9,4.9-9,12.7
			c0,8,3.7,12.8,8.8,12.8c4.4,0,7.4-2.9,7.8-7.5l4.9,0.5c-0.9,6.8-5.8,11.4-12.7,11.4C176.4,58.9,170.8,51.8,170.8,41.7z"/>
		<path d="M204.5,49.4V29.6h-6v-4.2h6V15.4h5.1v10.1h8.6v4.2h-8.6v19.2c0,3.9,1.5,5.7,4,5.7c1.2,0,2.7-0.5,3.9-2.2l0.9,4.4
			c-1.3,1.5-3.7,2.2-5.2,2.2C207.6,58.9,204.5,55.4,204.5,49.4z"/>
		<path d="M222.3,10.3h5.7v6.2h-5.7V10.3z M222.6,25.4h5.1V58h-5.1V25.4z"/>
		<path d="M247.5,28.9c-4.9,0-8.6,4.6-8.6,12.8V58h-5.1V25.4h5.1v6.2c1.7-4.2,5.5-7,9.6-7c7,0,11.1,4.8,11.1,12.5V58h-5.1V37.3
			C254.6,32.4,251.8,28.9,247.5,28.9z"/>
		<path d="M263.4,61.7c0-3.4,1.8-5.9,3.7-7.4c-1.1-1.3-1.7-2.9-1.7-4.4c0-2.3,1.4-4.2,2.6-5.3c-2.3-2-3.7-4.9-3.7-8.5
			c0-6.8,4.9-11.5,12-11.5c3,0,5.6,0.9,7.7,2.4c1.7-1.7,3.7-3,6.1-3.8l1.9,3.8c-1.7,0.5-3.8,1.4-5.5,2.7c1.2,1.8,1.8,4,1.8,6.4
			c0,6.8-4.9,11.4-12,11.4c-1.8,0-3.6-0.3-5.1-1c-0.5,0.6-1,1.4-1,2.4c0,2.2,1.4,3.6,3.6,3.6c2.9,0,3.9-0.5,7.3-0.5
			c5.9,0,9.4,3.6,9.4,8.8c0,6.4-5.3,10.3-13.7,10.3C268.7,71,263.4,67.5,263.4,61.7z M276.8,67.1c5.4,0,8.7-2.3,8.7-6.1
			c0-2.6-1.7-4.6-5.2-4.6c-2.9,0-4.3,0.5-7.2,0.5c-1.1,0-2.1-0.2-3-0.5c-1.2,1.2-2,2.7-2,4.7C268,64.9,271.5,67.1,276.8,67.1z
			 M276.2,43.6c4.2,0,6.9-3.1,6.9-7.6c0-4.4-2.7-7.5-6.9-7.5c-4.2,0-7,3.1-7,7.5C269.2,40.5,272,43.6,276.2,43.6z"/>
		<path d="M303.9,41.7c0-10,5.9-17.1,14.1-17.1c6.6,0,11.7,4.8,12.5,11.8l-4.9,0.9c-0.5-5.2-3.6-8.3-7.6-8.3c-5.2,0-9,4.9-9,12.7
			c0,8,3.7,12.8,8.8,12.8c4.4,0,7.4-2.9,7.8-7.5l4.9,0.5c-0.9,6.8-5.8,11.4-12.7,11.4C309.5,58.9,303.9,51.8,303.9,41.7z"/>
		<path d="M334.5,25.4h5.1V32c1.4-4.9,4.9-7.4,8.1-7.4c1.2,0,2.6,0.3,3.8,1l-0.5,4.7c-1.2-0.7-2.6-1-3.8-1c-2.3,0-7.6,1.9-7.6,12.6
			V58h-5.1V25.4z"/>
		<path d="M352,41.7c0-9.7,5.6-17.1,13.9-17.1c9.2,0,14.2,8,12.2,17.4h-21.4c0,9.5,5.1,12.4,9.2,12.4c4.4,0,7.1-2.7,7.6-6.9l4.9,0.4
			c-0.8,6.4-5.9,10.9-12.5,10.9C357,58.9,352,51.3,352,41.7z M373.6,38.3c0.5-5.6-2.7-9.5-7.7-9.5c-4.7,0-8.2,3.9-8.8,9.5H373.6z"/>
		<path d="M401.7,51.3c-1.4,4.6-5.1,7.6-10.3,7.6c-5.8,0-9.5-3.4-9.5-8.8c0-13.7,19.6-7.9,19.8-15.5c0-2.9-2.4-5.7-7-5.7
			c-4.3,0-7.7,3.3-7.9,7.7l-5.1-0.5c0.7-6.4,6.2-11.4,12.9-11.4c7.5,0,12.2,4.2,12.2,11.4v13.8c0,1.9,0.3,6.2,1.3,8.3h-5.5
			C402,56.5,401.8,53.4,401.7,51.3z M392.7,54.7c5.7,0,9-6.8,9-11.4v-3.1c-3.5,3.6-14.6,1.6-14.6,9.6
			C387.1,52.9,389.2,54.7,392.7,54.7z"/>
		<path d="M415.8,49.4V29.6h-6v-4.2h6V15.4h5.1v10.1h8.6v4.2h-8.6v19.2c0,3.9,1.5,5.7,4,5.7c1.2,0,2.7-0.5,3.9-2.2l0.9,4.4
			c-1.3,1.5-3.7,2.2-5.2,2.2C418.9,58.9,415.8,55.4,415.8,49.4z"/>
		<path d="M433.6,10.3h5.7v6.2h-5.7V10.3z M433.9,25.4h5.1V58h-5.1V25.4z"/>
		<path d="M442.4,25.4h5.1l9,28.1l8.9-28.1h5.1L459.6,58h-6.4L442.4,25.4z"/>
		<path d="M471.6,41.7c0-9.7,5.6-17.1,13.9-17.1c9.2,0,14.2,8,12.2,17.4h-21.4c0,9.5,5.1,12.4,9.2,12.4c4.4,0,7.1-2.7,7.6-6.9
			l4.9,0.4c-0.8,6.4-5.9,10.9-12.5,10.9C476.6,58.9,471.6,51.3,471.6,41.7z M493.2,38.3c0.5-5.6-2.7-9.5-7.7-9.5
			c-4.7,0-8.2,3.9-8.8,9.5H493.2z"/>
		<path d="M513.7,25.4h5.1v6.1c1.8-4.2,5.5-6.9,9.8-6.9c7.9,0,12.8,6.9,12.8,17.2c0,10.2-4.9,17.1-12.8,17.1c-4.2,0-8-2.7-9.8-6.8
			v18.2h-5.1V25.4z M527.4,54.6c5.3,0,8.8-4.9,8.8-12.8c0-7.9-3.4-12.8-8.8-12.8c-5.2,0-8.7,4.8-8.7,12.8
			C518.7,49.7,522.2,54.6,527.4,54.6z"/>
		<path d="M544.1,41.7c0-9.7,5.6-17.1,13.9-17.1c9.2,0,14.2,8,12.2,17.4h-21.4c0,9.5,5.1,12.4,9.2,12.4c4.4,0,7.1-2.7,7.6-6.9
			l4.9,0.4c-0.8,6.4-5.9,10.9-12.5,10.9C549.1,58.9,544.1,51.3,544.1,41.7z M565.7,38.3c0.5-5.6-2.7-9.5-7.7-9.5
			c-4.7,0-8.2,3.9-8.8,9.5H565.7z"/>
		<path d="M573.8,41.7c0-10.3,5.5-17.1,13.8-17.1c8.4,0,13.9,6.9,13.9,17.1c0,10.3-5.5,17.2-13.9,17.2
			C579.4,58.9,573.8,52,573.8,41.7z M587.6,54.5c5.2,0,8.8-4.8,8.8-12.8c0-7.9-3.6-12.8-8.8-12.8c-5.1,0-8.7,4.9-8.7,12.8
			C578.9,49.7,582.5,54.5,587.6,54.5z"/>
		<path d="M605.9,25.4h5.1v6.1c1.8-4.2,5.5-6.9,9.8-6.9c7.9,0,12.8,6.9,12.8,17.2c0,10.2-4.9,17.1-12.8,17.1c-4.2,0-8-2.7-9.8-6.8
			v18.2h-5.1V25.4z M619.7,54.6c5.3,0,8.8-4.9,8.8-12.8c0-7.9-3.4-12.8-8.8-12.8c-5.2,0-8.7,4.8-8.7,12.8
			C611,49.7,614.5,54.6,619.7,54.6z"/>
		<path d="M638.1,10.3h5.1V58h-5.1V10.3z"/>
		<path d="M647.7,41.7c0-9.7,5.6-17.1,13.9-17.1c9.2,0,14.2,8,12.2,17.4h-21.4c0,9.5,5.1,12.4,9.2,12.4c4.4,0,7.1-2.7,7.6-6.9
			l4.9,0.4c-0.8,6.4-5.9,10.9-12.5,10.9C652.7,58.9,647.7,51.3,647.7,41.7z M669.3,38.3c0.5-5.6-2.7-9.5-7.7-9.5
			c-4.7,0-8.2,3.9-8.8,9.5H669.3z"/>
		<path d="M39.7,116.9c-1.4,4.6-5.1,7.6-10.3,7.6c-5.8,0-9.5-3.4-9.5-8.8c0-13.7,19.6-7.9,19.8-15.5c0-2.9-2.4-5.7-7-5.7
			c-4.3,0-7.7,3.3-7.9,7.7l-5.1-0.5c0.7-6.4,6.2-11.4,12.9-11.4c7.5,0,12.2,4.2,12.2,11.4v13.8c0,1.9,0.3,6.2,1.3,8.3h-5.5
			C40,122.2,39.8,119,39.7,116.9z M30.7,120.3c5.7,0,9-6.8,9-11.4v-3.1c-3.5,3.6-14.6,1.6-14.6,9.6
			C25.1,118.5,27.2,120.3,30.7,120.3z"/>
		<path d="M64.4,94.5c-4.9,0-8.6,4.6-8.6,12.8v16.3h-5.1V91.1h5.1v6.2c1.7-4.2,5.5-7,9.6-7c7,0,11.1,4.8,11.1,12.5v20.9h-5.1V103
			C71.5,98,68.7,94.5,64.4,94.5z"/>
		<path d="M80.7,107.3c0-10.2,4.9-17.1,12.8-17.1c4.3,0,8.1,2.7,9.8,7V75.9h5.1v47.7h-5.1v-6.3c-1.8,4.3-5.5,7.1-9.8,7.1
			C85.5,124.5,80.7,117.6,80.7,107.3z M94.6,120.1c5.2,0,8.7-4.8,8.7-12.8c0-7.9-3.5-12.8-8.7-12.8c-5.3,0-8.8,4.9-8.8,12.8
			C85.8,115.3,89.2,120.1,94.6,120.1z"/>
		<path d="M125.4,91.1h5.1v6.1c1.8-4.2,5.5-6.9,9.8-6.9c7.9,0,12.8,6.9,12.8,17.2c0,10.2-4.9,17.1-12.8,17.1c-4.2,0-8-2.7-9.8-6.8
			v18.2h-5.1V91.1z M139.1,120.2c5.3,0,8.8-4.9,8.8-12.8c0-7.9-3.4-12.8-8.8-12.8c-5.2,0-8.7,4.8-8.7,12.8
			C130.4,115.3,133.9,120.2,139.1,120.2z"/>
		<path d="M157.5,91.1h5.1v6.6c1.4-4.9,4.9-7.4,8.1-7.4c1.2,0,2.6,0.3,3.8,1l-0.5,4.7c-1.2-0.7-2.6-1-3.8-1c-2.3,0-7.6,1.9-7.6,12.6
			v16.1h-5.1V91.1z"/>
		<path d="M175,107.3c0-10.3,5.5-17.1,13.8-17.1c8.4,0,13.9,6.9,13.9,17.1c0,10.3-5.5,17.2-13.9,17.2
			C180.5,124.5,175,117.7,175,107.3z M188.8,120.1c5.2,0,8.8-4.8,8.8-12.8c0-7.9-3.6-12.8-8.8-12.8c-5.1,0-8.7,4.9-8.7,12.8
			C180.1,115.3,183.6,120.1,188.8,120.1z"/>
		<path d="M212.3,91.1v35.2c0,6.8-3.8,10.4-8.7,10.4h-1l-0.4-4.6c0.3,0.1,0.6,0.1,0.8,0.1c2.5,0,4.2-2.3,4.2-6.6V91.1H212.3z
			 M206.9,75.9h5.7v6.2h-5.7V75.9z"/>
		<path d="M216.8,107.3c0-9.7,5.6-17.1,13.9-17.1c9.2,0,14.2,8,12.2,17.4h-21.4c0,9.5,5.1,12.4,9.2,12.4c4.4,0,7.1-2.7,7.6-6.9
			l4.9,0.4c-0.8,6.4-5.9,10.9-12.5,10.9C221.8,124.5,216.8,117,216.8,107.3z M238.4,103.9c0.5-5.6-2.7-9.5-7.7-9.5
			c-4.7,0-8.2,3.9-8.8,9.5H238.4z"/>
		<path d="M246.5,107.3c0-10,5.9-17.1,14.1-17.1c6.6,0,11.7,4.8,12.5,11.8l-4.9,0.9c-0.5-5.2-3.6-8.3-7.6-8.3c-5.2,0-9,4.9-9,12.7
			c0,8,3.7,12.8,8.8,12.8c4.4,0,7.4-2.9,7.8-7.5l4.9,0.5c-0.9,6.8-5.8,11.4-12.7,11.4C252.1,124.5,246.5,117.4,246.5,107.3z"/>
		<path d="M280.2,115.1V95.2h-6v-4.2h6V81h5.1v10.1h8.6v4.2h-8.6v19.2c0,3.9,1.5,5.7,4,5.7c1.2,0,2.7-0.5,3.9-2.2l0.9,4.4
			c-1.3,1.5-3.7,2.2-5.2,2.2C283.3,124.5,280.2,121.1,280.2,115.1z"/>
		<path d="M296.6,112.5l4.9-0.4c0.3,4.6,3.8,8.3,8.3,8.3c4,0,6.2-2.3,6.2-5.4c0-8.5-18.1-3.5-18.1-15.4c0-5.1,4.4-9.4,10.9-9.4
			c5.9,0,11.1,4.1,11.6,9.7l-4.9,0.3c-0.2-3.3-3.1-6-6.6-6c-3.9,0-5.9,2.3-5.9,5.1c0,8,18.1,2.2,18.1,15.3c0,5.6-4.4,9.8-11.2,9.8
			C302.6,124.5,297,119.4,296.6,112.5z"/>
		<path d="M339.9,115.1V95.2h-6v-4.2h6V81h5.1v10.1h8.6v4.2h-8.6v19.2c0,3.9,1.5,5.7,4,5.7c1.2,0,2.7-0.5,3.9-2.2l0.9,4.4
			c-1.3,1.5-3.7,2.2-5.2,2.2C342.9,124.5,339.9,121.1,339.9,115.1z"/>
		<path d="M355.3,107.3c0-10.3,5.5-17.1,13.8-17.1c8.4,0,13.9,6.9,13.9,17.1c0,10.3-5.5,17.2-13.9,17.2
			C360.8,124.5,355.3,117.7,355.3,107.3z M369.1,120.1c5.2,0,8.8-4.8,8.8-12.8c0-7.9-3.6-12.8-8.8-12.8c-5.1,0-8.7,4.9-8.7,12.8
			C360.4,115.3,364,120.1,369.1,120.1z"/>
		<path d="M396.5,107.3c0-10,5.9-17.1,14.1-17.1c6.6,0,11.7,4.8,12.5,11.8l-4.9,0.9c-0.5-5.2-3.6-8.3-7.6-8.3c-5.2,0-9,4.9-9,12.7
			c0,8,3.7,12.8,8.8,12.8c4.4,0,7.4-2.9,7.8-7.5l4.9,0.5c-0.9,6.8-5.8,11.4-12.7,11.4C402.1,124.5,396.5,117.4,396.5,107.3z"/>
		<path d="M427.2,91.1h5.1v6.6c1.4-4.9,4.9-7.4,8.1-7.4c1.2,0,2.6,0.3,3.8,1l-0.5,4.7c-1.2-0.7-2.6-1-3.8-1c-2.3,0-7.6,1.9-7.6,12.6
			v16.1h-5.1V91.1z"/>
		<path d="M465.2,116.9c-1.4,4.6-5.1,7.6-10.3,7.6c-5.8,0-9.5-3.4-9.5-8.8c0-13.7,19.6-7.9,19.8-15.5c0-2.9-2.4-5.7-7-5.7
			c-4.3,0-7.7,3.3-7.9,7.7l-5.1-0.5c0.7-6.4,6.2-11.4,12.9-11.4c7.5,0,12.2,4.2,12.2,11.4v13.8c0,1.9,0.3,6.2,1.3,8.3H466
			C465.5,122.2,465.2,119,465.2,116.9z M456.2,120.3c5.7,0,9-6.8,9-11.4v-3.1c-3.5,3.6-14.6,1.6-14.6,9.6
			C450.5,118.5,452.7,120.3,456.2,120.3z"/>
		<path d="M488.5,75.1c3.7,0,7.7,2.3,8.5,6.4l-4.5,1.8c-0.6-2.3-2.1-3.9-4.2-3.9c-2.3,0-4.5,1.8-4.5,6.2v5.4h9.4v4.2h-9.4v28.4h-5.1
			V95.2h-5.3v-4.2h5.3v-4.9C478.7,78.2,483.4,75.1,488.5,75.1z"/>
		<path d="M499.8,115.1V95.2h-6v-4.2h6V81h5.1v10.1h8.6v4.2h-8.6v19.2c0,3.9,1.5,5.7,4,5.7c1.2,0,2.7-0.5,3.9-2.2l0.9,4.4
			c-1.3,1.5-3.7,2.2-5.2,2.2C502.9,124.5,499.8,121.1,499.8,115.1z"/>
		<path d="M541.1,75.1c3.7,0,7.7,2.3,8.5,6.4l-4.5,1.8c-0.6-2.3-2.1-3.9-4.2-3.9c-2.3,0-4.5,1.8-4.5,6.2v5.4h9.4v4.2h-9.4v28.4h-5.1
			V95.2H526v-4.2h5.3v-4.9C531.3,78.2,535.9,75.1,541.1,75.1z"/>
		<path d="M548.6,91.1h5.1v6.6c1.4-4.9,4.9-7.4,8.1-7.4c1.2,0,2.6,0.3,3.8,1l-0.5,4.7c-1.2-0.7-2.6-1-3.8-1c-2.3,0-7.6,1.9-7.6,12.6
			v16.1h-5.1V91.1z"/>
		<path d="M566.1,107.3c0-9.7,5.6-17.1,13.9-17.1c9.2,0,14.2,8,12.2,17.4h-21.4c0,9.5,5.1,12.4,9.2,12.4c4.4,0,7.1-2.7,7.6-6.9
			l4.9,0.4c-0.8,6.4-5.9,10.9-12.5,10.9C571.1,124.5,566.1,117,566.1,107.3z M587.7,103.9c0.5-5.6-2.7-9.5-7.7-9.5
			c-4.7,0-8.2,3.9-8.8,9.5H587.7z"/>
		<path d="M595.6,112.5l4.9-0.4c0.3,4.6,3.8,8.3,8.3,8.3c4,0,6.2-2.3,6.2-5.4c0-8.5-18.1-3.5-18.1-15.4c0-5.1,4.4-9.4,10.9-9.4
			c5.9,0,11.1,4.1,11.6,9.7l-4.9,0.3c-0.2-3.3-3.1-6-6.6-6c-3.9,0-5.9,2.3-5.9,5.1c0,8,18.1,2.2,18.1,15.3c0,5.6-4.4,9.8-11.2,9.8
			C601.6,124.5,596,119.4,595.6,112.5z"/>
		<path d="M638.2,94.5c-4.5,0-8.1,3.9-8.6,10.9v18.2h-5.1V75.9h5.1v21.3c1.7-4.2,5.5-7,9.6-7c7,0,11.1,4.8,11.1,12.5v20.9h-5.1V103
			C645.3,98,642.5,94.5,638.2,94.5z"/>
		<path d="M2.1,178.1l4.9-0.4c0.3,4.6,3.8,8.3,8.3,8.3c4,0,6.2-2.3,6.2-5.4c0-8.5-18.1-3.5-18.1-15.4c0-5.1,4.4-9.4,10.9-9.4
			c5.9,0,11.1,4.1,11.6,9.7l-4.9,0.3c-0.2-3.3-3.1-6-6.6-6c-3.9,0-5.9,2.3-5.9,5.1c0,8,18.1,2.2,18.1,15.3c0,5.6-4.4,9.8-11.2,9.8
			C8.1,190.1,2.5,185,2.1,178.1z"/>
		<path d="M29.2,173c0-10.3,5.5-17.1,13.8-17.1c8.4,0,13.9,6.9,13.9,17.1c0,10.3-5.5,17.2-13.9,17.2C34.7,190.1,29.2,183.3,29.2,173
			z M43,185.7c5.2,0,8.8-4.8,8.8-12.8c0-7.9-3.6-12.8-8.8-12.8c-5.1,0-8.7,4.9-8.7,12.8C34.3,181,37.9,185.7,43,185.7z"/>
		<path d="M61.4,141.6h5.1v47.7h-5.1V141.6z"/>
		<path d="M84.6,185.8c4.9,0,8.6-4.6,8.6-12.8v0.3l0.1-16.6h5.1l-0.1,32.6h-5.1v-6.2c-1.7,4.2-5.5,7-9.6,7c-7,0-11.1-4.8-11.1-12.5
			v-20.9h5.1v20.7C77.5,182.3,80.3,185.8,84.6,185.8z"/>
		<path d="M108.1,180.7v-19.8h-6v-4.2h6v-10.1h5.1v10.1h8.6v4.2h-8.6v19.2c0,3.9,1.5,5.7,4,5.7c1.2,0,2.7-0.5,3.9-2.2l0.9,4.4
			c-1.3,1.5-3.7,2.2-5.2,2.2C111.2,190.1,108.1,186.7,108.1,180.7z"/>
		<path d="M125.9,141.6h5.7v6.2h-5.7V141.6z M126.2,156.7h5.1v32.6h-5.1V156.7z"/>
		<path d="M135.7,173c0-10.3,5.5-17.1,13.8-17.1c8.4,0,13.9,6.9,13.9,17.1c0,10.3-5.5,17.2-13.9,17.2
			C141.2,190.1,135.7,183.3,135.7,173z M149.5,185.7c5.2,0,8.8-4.8,8.8-12.8c0-7.9-3.6-12.8-8.8-12.8c-5.1,0-8.7,4.9-8.7,12.8
			C140.8,181,144.4,185.7,149.5,185.7z"/>
		<path d="M181.5,160.2c-4.9,0-8.6,4.6-8.6,12.8v16.3h-5.1v-32.6h5.1v6.2c1.7-4.2,5.5-7,9.6-7c7,0,11.1,4.8,11.1,12.5v20.9h-5.1
			v-20.7C188.6,163.7,185.8,160.2,181.5,160.2z"/>
		<path d="M197.9,178.1l4.9-0.4c0.3,4.6,3.8,8.3,8.3,8.3c4,0,6.2-2.3,6.2-5.4c0-8.5-18.1-3.5-18.1-15.4c0-5.1,4.4-9.4,10.9-9.4
			c5.9,0,11.1,4.1,11.6,9.7l-4.9,0.3c-0.2-3.3-3.1-6-6.6-6c-3.9,0-5.9,2.3-5.9,5.1c0,8,18.1,2.2,18.1,15.3c0,5.6-4.4,9.8-11.2,9.8
			C203.9,190.1,198.3,185,197.9,178.1z"/>
		<path d="M241.1,180.7v-19.8h-6v-4.2h6v-10.1h5.1v10.1h8.6v4.2h-8.6v19.2c0,3.9,1.5,5.7,4,5.7c1.2,0,2.7-0.5,3.9-2.2l0.9,4.4
			c-1.3,1.5-3.7,2.2-5.2,2.2C244.2,190.1,241.1,186.7,241.1,180.7z"/>
		<path d="M256.6,173c0-10.3,5.5-17.1,13.8-17.1c8.4,0,13.9,6.9,13.9,17.1c0,10.3-5.5,17.2-13.9,17.2
			C262.1,190.1,256.6,183.3,256.6,173z M270.4,185.7c5.2,0,8.8-4.8,8.8-12.8c0-7.9-3.6-12.8-8.8-12.8c-5.1,0-8.7,4.9-8.7,12.8
			C261.7,181,265.3,185.7,270.4,185.7z"/>
		<path d="M297.8,173c0-10,5.9-17.1,14.1-17.1c6.6,0,11.7,4.8,12.5,11.8l-4.9,0.9c-0.5-5.2-3.6-8.3-7.6-8.3c-5.2,0-9,4.9-9,12.7
			c0,8,3.7,12.8,8.8,12.8c4.4,0,7.4-2.9,7.8-7.5l4.9,0.5c-0.9,6.8-5.8,11.4-12.7,11.4C303.4,190.1,297.8,183,297.8,173z"/>
		<path d="M328.5,141.6h5.1v47.7h-5.1V141.6z"/>
		<path d="M339.5,141.6h5.7v6.2h-5.7V141.6z M339.9,156.7h5.1v32.6h-5.1V156.7z"/>
		<path d="M364.5,160.2c-4.9,0-8.3,4.9-8.3,12.5v16.5h-5.1v-32.6h5.1v6.2c1.6-4,5.5-7,9.7-7c5.1,0,8.4,2.9,9.7,7.7
			c1.4-4.4,5.6-7.7,10.5-7.7c6.3,0,10.3,4.6,10.3,12v21.5h-5.1v-20.9c0-4.9-2.5-8.2-6.6-8.2c-5,0-8.4,4.9-8.4,11.4v17.6h-5.1v-20.4
			C371.2,163.7,368.6,160.2,364.5,160.2z"/>
		<path d="M420.7,182.5c-1.4,4.6-5.1,7.6-10.3,7.6c-5.8,0-9.5-3.4-9.5-8.8c0-13.7,19.6-7.9,19.8-15.5c0-2.9-2.4-5.7-7-5.7
			c-4.3,0-7.7,3.3-7.9,7.7l-5.1-0.5c0.7-6.4,6.2-11.4,12.9-11.4c7.5,0,12.2,4.2,12.2,11.4V181c0,1.9,0.3,6.2,1.3,8.3h-5.5
			C421,187.8,420.8,184.6,420.7,182.5z M411.7,185.9c5.7,0,9-6.8,9-11.4v-3.1c-3.5,3.6-14.6,1.6-14.6,9.6
			C406.1,184.2,408.2,185.9,411.7,185.9z"/>
		<path d="M434.8,180.7v-19.8h-6v-4.2h6v-10.1h5.1v10.1h8.6v4.2h-8.6v19.2c0,3.9,1.5,5.7,4,5.7c1.2,0,2.7-0.5,3.9-2.2l0.9,4.4
			c-1.3,1.5-3.7,2.2-5.2,2.2C437.9,190.1,434.8,186.7,434.8,180.7z"/>
		<path d="M450.3,173c0-9.7,5.6-17.1,13.9-17.1c9.2,0,14.2,8,12.2,17.4h-21.4c0,9.5,5.1,12.4,9.2,12.4c4.4,0,7.1-2.7,7.6-6.9
			l4.9,0.4c-0.8,6.4-5.9,10.9-12.5,10.9C455.3,190.1,450.3,182.6,450.3,173z M471.9,169.5c0.5-5.6-2.7-9.5-7.7-9.5
			c-4.7,0-8.2,3.9-8.8,9.5H471.9z"/>
		<path d="M490.6,173c0-10,5.9-17.1,14.1-17.1c6.6,0,11.7,4.8,12.5,11.8l-4.9,0.9c-0.5-5.2-3.6-8.3-7.6-8.3c-5.2,0-9,4.9-9,12.7
			c0,8,3.7,12.8,8.8,12.8c4.4,0,7.4-2.9,7.8-7.5l4.9,0.5c-0.9,6.8-5.8,11.4-12.7,11.4C496.2,190.1,490.6,183,490.6,173z"/>
		<path d="M535,160.2c-4.5,0-8.1,3.9-8.6,10.9v18.2h-5.1v-47.7h5.1v21.3c1.7-4.2,5.5-7,9.6-7c7,0,11.1,4.8,11.1,12.5v20.9h-5.1
			v-20.7C542.1,163.7,539.3,160.2,535,160.2z"/>
		<path d="M571.5,182.5c-1.4,4.6-5.1,7.6-10.3,7.6c-5.8,0-9.5-3.4-9.5-8.8c0-13.7,19.6-7.9,19.8-15.5c0-2.9-2.4-5.7-7-5.7
			c-4.3,0-7.7,3.3-7.9,7.7l-5.1-0.5c0.7-6.4,6.2-11.4,12.9-11.4c7.5,0,12.2,4.2,12.2,11.4V181c0,1.9,0.3,6.2,1.3,8.3h-5.5
			C571.8,187.8,571.6,184.6,571.5,182.5z M562.5,185.9c5.7,0,9-6.8,9-11.4v-3.1c-3.5,3.6-14.6,1.6-14.6,9.6
			C556.9,184.2,559,185.9,562.5,185.9z"/>
		<path d="M596.2,160.2c-4.9,0-8.6,4.6-8.6,12.8v16.3h-5.1v-32.6h5.1v6.2c1.7-4.2,5.5-7,9.6-7c7,0,11.1,4.8,11.1,12.5v20.9h-5.1
			v-20.7C603.3,163.7,600.5,160.2,596.2,160.2z"/>
		<path d="M612,192.9c0-3.4,1.8-5.9,3.7-7.4c-1.1-1.3-1.7-2.9-1.7-4.4c0-2.3,1.4-4.2,2.6-5.3c-2.3-2-3.7-4.9-3.7-8.5
			c0-6.8,4.9-11.5,12-11.5c3,0,5.6,0.9,7.7,2.4c1.7-1.7,3.7-3,6.1-3.8l1.9,3.8c-1.7,0.5-3.8,1.4-5.5,2.7c1.2,1.8,1.8,4,1.8,6.4
			c0,6.8-4.9,11.4-12,11.4c-1.8,0-3.6-0.3-5.1-1c-0.5,0.6-1,1.4-1,2.4c0,2.2,1.4,3.6,3.6,3.6c2.9,0,3.9-0.5,7.3-0.5
			c5.9,0,9.4,3.6,9.4,8.8c0,6.4-5.3,10.3-13.7,10.3C617.4,202.3,612,198.7,612,192.9z M625.4,198.3c5.4,0,8.7-2.3,8.7-6.1
			c0-2.6-1.7-4.6-5.2-4.6c-2.9,0-4.3,0.5-7.2,0.5c-1.1,0-2.1-0.2-3-0.5c-1.2,1.2-2,2.7-2,4.7C616.7,196.1,620.2,198.3,625.4,198.3z
			 M624.9,174.9c4.2,0,6.9-3.1,6.9-7.6c0-4.4-2.7-7.5-6.9-7.5c-4.2,0-7,3.1-7,7.5C617.9,171.7,620.6,174.9,624.9,174.9z"/>
		<path d="M640.8,173c0-9.7,5.6-17.1,13.9-17.1c9.2,0,14.2,8,12.2,17.4h-21.4c0,9.5,5.1,12.4,9.2,12.4c4.4,0,7.1-2.7,7.6-6.9
			l4.9,0.4c-0.8,6.4-5.9,10.9-12.5,10.9C645.8,190.1,640.8,182.6,640.8,173z M662.4,169.5c0.5-5.6-2.7-9.5-7.7-9.5
			c-4.7,0-8.2,3.9-8.8,9.5H662.4z"/>
		<path d="M671.6,182.8h6.6v6.5h-6.6V182.8z"/>
	</g>
	<g>
		<path d="M290.5,74.2c53.1,0,106.2-3,159.3-6.1c26.3-1.5,52.6-3.2,78.9-4c26.6-0.8,53.2-0.8,79.8-0.8c14.8,0,29.7-0.3,44.5,0.5
			c7.4,0.4,14.7,0.9,22.1,0.7c3.7-0.1,7.2-0.7,10.8-1.1c1.9-0.2,4.5,0.5,6-1.2c0.4-0.4,0.2-1.1-0.3-1.3c-1.8-0.6-3.4-1.5-5.3-1.4
			c-1,0.1-1,1.6,0,1.5c1.8-0.1,3.3,0.8,4.9,1.3c-0.1-0.4-0.2-0.8-0.3-1.3c-0.9,1-2.2,0.5-3.3,0.6c-1.3,0-2.7,0.3-4,0.5
			c-3.6,0.5-7.1,0.8-10.7,0.8c-6.6,0.1-13.2-0.3-19.7-0.7c-13-0.7-26-0.6-38.9-0.5c-26.1,0-52.1,0-78.2,0.6
			c-52.4,1.2-104.7,5.6-157.1,7.9c-29.4,1.3-58.9,2.3-88.3,2.3C289.6,72.7,289.6,74.2,290.5,74.2L290.5,74.2z"/>
	</g>
	<g>
		<path d="M164.2,58.3c-17.5,9.6-32.9,23.4-45.1,39.2c-5.8,7.5-11.2,16.6-11.1,26.4c0.1,7.7,3.8,14.5,9.8,19.1
			c5.7,4.4,12.8,6.9,19.8,8.6c7.7,1.9,15.6,2.8,23.4,3.6c22.6,2.4,45.5,3,68.2,0.8c11.1-1.1,22.3-2.7,33.1-5.4
			c10.6-2.6,21-6.3,30.9-10.9c8.8-4.1,16.6-9.6,23.4-16.5c6.5-6.5,12.9-13.9,15.7-22.8c2.6-8.5,1.8-18.2-2.9-25.8
			c-4.9-8-13.1-13-21.8-16c-4.6-1.6-9.2-2.7-13.9-3.7c-5.5-1.2-11-2.2-16.6-2.7c-11.3-1.1-22.6-0.6-33.8,1.2
			c-20.7,3.3-40.9,8.9-60.4,16.5c-19.3,7.4-37.8,16.7-55.6,27.1c-4.4,2.6-8.8,5.3-13.1,8c-0.8,0.5-0.1,1.8,0.8,1.3
			c17-10.8,34.7-20.6,53.2-28.7c18.5-8.2,37.7-14.7,57.3-19.2c10.3-2.3,20.8-4.4,31.3-5c11.2-0.7,22.5,0.1,33.6,2.4
			c9.2,1.9,18.8,4,26.8,8.9c7.7,4.7,13.4,12.2,14.8,21.2c1.5,9.4-1.7,18.3-7.2,25.9c-5.5,7.5-12.4,14.4-20,19.7
			c-8.3,5.9-17.9,9.9-27.5,13.2c-10.1,3.5-20.5,6-31.1,7.7c-21.9,3.5-44.3,4.2-66.4,2.9c-10.1-0.6-20.1-1.5-30.1-3
			c-6.9-1-13.8-2.4-20.4-4.8c-6.4-2.4-12.7-6.1-16.4-12c-5-8-3.8-17.7,0.2-25.8c4.3-8.8,11-16.3,17.7-23.3
			c6.7-7.1,14.1-13.6,22.1-19.2c3.9-2.7,7.9-5.2,12.1-7.5C165.8,59.1,165.1,57.8,164.2,58.3L164.2,58.3z"/>
	</g>
	<g>
		<path d="M294.3,216.4c5.6-6.4,10.6-13.4,16.8-19.3c2.6-2.5,5.5-5.9,9.3-6.6c4.1-0.8,6.8,1.6,8.9,4.8c3.2,5,5.3,11.2,10.2,15
			c5.6,4.3,12.5,2.7,18-0.9c5.9-3.9,10.5-10,17.1-13c4.1-1.8,7.7-0.7,11,2.1c2.6,2.2,4.8,4.7,7.2,7c4.1,4,9.9,8.5,16,7
			c6.2-1.5,10.1-7.2,14.5-11.3c5.3-5,13.7-3,19.8-0.7c3.7,1.4,7.3,3.2,11,4.4c3.9,1.3,8,1.9,12.1,1.6c3.9-0.3,7.9-1.2,11.4-3
			c3.6-1.8,6.5-5.3,10.3-6.5c2.4-0.7,4.1,0.3,6,1.6c1.7,1.2,3.5,2.3,5.3,3.1c2.9,1.4,6.2,2.1,9.4,1.6c6.3-0.8,11.3-5.4,16.2-9.1
			c2.6-2,5.5-4,8.7-4.8c3.4-0.8,6,0.5,8.3,2.9c2.3,2.4,4.1,5.1,6.6,7.3c2.5,2.3,5.4,4.1,8.6,5.2c3.2,1.1,6.7,1.2,9.9-0.1
			c3.5-1.4,6.8-5,10.7-2.9c1.5,0.8,2.9,1.9,4.4,2.8c1.7,1,3.4,1.9,5.2,2.8c3.2,1.5,6.7,2.7,10.3,2.5c3.9-0.2,7.2-2.5,10.6-4.3
			c1.9-1,3.9-2,5.9-2.6c2-0.6,3.6,0,5.3,1c3.3,2,6.2,4.5,10,5.7c3.4,1,6.7,1,10.1,0c4.3-1.2,8.2-3.5,12.6-4.1c4.2-0.6,8.5-1,12.7-2
			c1.8-0.4,3.7-0.9,5.4-1.7c0.6-0.3,1.3-0.7,1.8-1.1c0.8-0.7,1.1-1.6,2.3-1.7c1-0.1,1-1.6,0-1.5c-1.4,0.1-2,0.7-2.9,1.7
			c-1.5,1.5-3.6,2-5.7,2.6c-4.5,1.2-9.1,1.8-13.7,2.3c-4.4,0.6-8.1,2.7-12.3,3.9c-4.3,1.3-8.4,1.2-12.5-0.8c-3.3-1.6-6-4.5-9.4-5.7
			c-3-1.1-6.2,0.6-8.9,2c-3.9,1.9-7.7,4.9-12.3,4.9c-4.2,0-8.2-2-11.9-3.9c-1.5-0.8-2.9-1.7-4.3-2.6c-1.4-0.9-2.8-2-4.5-2.2
			c-3.3-0.5-6.2,2.2-9,3.5c-7.8,3.5-15.8-2.2-20.6-8c-3.7-4.3-7.3-8.9-13.6-7.1c-6.1,1.8-10.7,6.9-15.9,10.3
			c-2.8,1.8-5.8,3.3-9.2,3.5c-4.1,0.2-7.8-1.5-11.2-3.6c-3.1-2-5.5-4.1-9.3-2.6c-3.6,1.3-6.2,4.4-9.6,6.1
			c-8.2,4.4-17.8,3.7-26.2,0.3c-6.5-2.6-13.2-6-20.4-5.6c-2.9,0.2-5.8,1-8,3c-2.4,2.1-4.4,4.6-6.7,6.8c-2.5,2.3-5.6,4.7-9.1,4.9
			c-3.6,0.2-7.2-1.9-9.9-4.1c-2.6-2.1-4.9-4.6-7.3-6.9c-2.2-2.2-4.6-4.7-7.5-5.8c-6.5-2.5-12.7,3-17.3,7
			c-5.4,4.7-12.4,11.5-20.3,9.6c-6.8-1.6-9.7-9.1-12.8-14.5c-1.4-2.4-3-5.1-5.4-6.7c-2.5-1.6-5.9-1.4-8.5-0.3c-3,1.3-5.5,4-7.8,6.3
			c-3.1,3-5.9,6.2-8.6,9.5c-2.7,3.3-5.4,6.6-8.2,9.8C292.6,216,293.7,217.1,294.3,216.4L294.3,216.4z"/>
	</g>
</g>
</svg>
