<?xml version="1.0" encoding="utf-8"?>
<!-- Generator: Adobe Illustrator 26.0.3, SVG Export Plug-In . SVG Version: 6.00 Build 0)  -->
<svg version="1.2" baseProfile="tiny" id="Layer_1" xmlns="http://www.w3.org/2000/svg" xmlns:xlink="http://www.w3.org/1999/xlink"
	 x="0px" y="0px" viewBox="0 0 480.7 348" overflow="visible" xml:space="preserve">
<g>
	<g>
		<path d="M134.4,41.2l5.3-0.8c0.7,8.6,4.7,13.8,10.7,13.8c5,0,8.5-3.4,8.5-8.3c0-13.9-23.1-6.4-23-23.6c0-7.4,5.8-12.9,13.6-12.9
			c7.7,0,13.9,5.5,14.8,15l-5.4,0.8c-0.4-7.3-4.4-11.1-9.4-11.1c-4.6,0-8,3.4-8,7.9c0,12.7,23,5,23,23.7c0,7.6-5.9,13.1-14.2,13.1
			C141.8,58.9,135.3,52.3,134.4,41.2z"/>
		<path d="M169,25.4h5.1v6.1c1.8-4.2,5.5-6.9,9.8-6.9c7.9,0,12.8,6.9,12.8,17.2c0,10.2-4.9,17.1-12.8,17.1c-4.2,0-8-2.7-9.8-6.8
			v18.2H169V25.4z M182.8,54.6c5.3,0,8.8-4.9,8.8-12.8c0-7.9-3.4-12.8-8.8-12.8c-5.2,0-8.7,4.8-8.7,12.8
			C174.1,49.7,177.6,54.6,182.8,54.6z"/>
		<path d="M219.6,51.3c-1.4,4.6-5.1,7.6-10.3,7.6c-5.8,0-9.5-3.4-9.5-8.8c0-13.7,19.6-7.9,19.8-15.5c0-2.9-2.4-5.7-7-5.7
			c-4.3,0-7.7,3.3-7.9,7.7l-5.1-0.5c0.7-6.4,6.2-11.3,12.9-11.3c7.5,0,12.2,4.2,12.2,11.3v13.8c0,1.9,0.3,6.2,1.3,8.3h-5.5
			C219.8,56.5,219.6,53.4,219.6,51.3z M210.5,54.7c5.7,0,9-6.8,9-11.4v-3.1c-3.5,3.6-14.6,1.6-14.6,9.6
			C204.9,52.9,207.1,54.7,210.5,54.7z M215.9,10.3h5.7l-6.6,10.6h-4.5L215.9,10.3z"/>
		<path d="M235.8,25.4v35.2c0,6.8-3.8,10.4-8.7,10.4h-1l-0.4-4.6c0.3,0.1,0.6,0.1,0.8,0.1c2.5,0,4.2-2.3,4.2-6.6V25.4H235.8z
			 M230.4,10.3h5.7v6.2h-5.7V10.3z"/>
		<path d="M260.5,51.3c-1.4,4.6-5.1,7.6-10.3,7.6c-5.8,0-9.5-3.4-9.5-8.8c0-13.7,19.6-7.9,19.8-15.5c0-2.9-2.4-5.7-7-5.7
			c-4.3,0-7.7,3.3-7.9,7.7l-5.1-0.5c0.7-6.4,6.2-11.3,12.9-11.3c7.5,0,12.2,4.2,12.2,11.3v13.8c0,1.9,0.3,6.2,1.3,8.3h-5.5
			C260.8,56.5,260.6,53.4,260.5,51.3z M251.5,54.7c5.7,0,9-6.8,9-11.4v-3.1c-3.5,3.6-14.6,1.6-14.6,9.6
			C245.9,52.9,248,54.7,251.5,54.7z"/>
		<path d="M284.9,29c-4.9,0-8.3,4.9-8.3,12.5V58h-5.1V25.4h5.1v6.2c1.6-4,5.5-7,9.7-7c5.1,0,8.4,2.9,9.7,7.7
			c1.4-4.4,5.6-7.7,10.5-7.7c6.3,0,10.3,4.6,10.3,12V58h-5.1V37.2c0-4.9-2.5-8.2-6.6-8.2c-5,0-8.4,4.9-8.4,11.4V58h-5.1V37.7
			C291.7,32.4,289.1,29,284.9,29z"/>
		<path d="M321,41.7c0-9.7,5.6-17.1,13.9-17.1c9.2,0,14.2,8,12.2,17.4h-21.4c0,9.5,5.1,12.4,9.2,12.4c4.4,0,7.1-2.7,7.6-6.9l4.9,0.4
			c-0.8,6.4-5.9,10.9-12.5,10.9C326,58.9,321,51.3,321,41.7z M342.6,38.3c0.5-5.6-2.7-9.5-7.7-9.5c-4.7,0-8.2,3.9-8.8,9.5H342.6z"/>
		<path d="M60.6,106.1l-5.5,5.5v12.1h-5.1V75.9h5.1v29.3l14.5-14.2h6l-11.3,11.4l12,21.3h-5.7L60.6,106.1z"/>
		<path d="M79.6,91.1h5.1v6.6c1.4-4.9,4.9-7.4,8.1-7.4c1.2,0,2.6,0.3,3.8,1l-0.5,4.7c-1.2-0.7-2.6-1-3.8-1c-2.3,0-7.6,1.9-7.6,12.6
			v16.1h-5.1V91.1z"/>
		<path d="M97.2,107.3c0-9.7,5.6-17.1,13.9-17.1c9.2,0,14.2,8,12.2,17.4h-21.4c0,9.5,5.1,12.4,9.2,12.4c4.4,0,7.1-2.7,7.6-6.9
			l4.9,0.4c-0.8,6.4-5.9,10.9-12.5,10.9C102.1,124.5,97.2,117,97.2,107.3z M118.8,103.9c0.5-5.6-2.7-9.5-7.7-9.5
			c-4.7,0-8.2,3.9-8.8,9.5H118.8z"/>
		<path d="M146.9,116.9c-1.4,4.6-5.1,7.6-10.3,7.6c-5.8,0-9.5-3.4-9.5-8.8c0-13.7,19.6-7.9,19.8-15.5c0-2.9-2.4-5.7-7-5.7
			c-4.3,0-7.7,3.3-7.9,7.7l-5.1-0.5c0.7-6.4,6.2-11.3,12.9-11.3c7.5,0,12.2,4.2,12.2,11.3v13.8c0,1.9,0.3,6.2,1.3,8.3h-5.5
			C147.1,122.2,146.9,119,146.9,116.9z M137.8,120.3c5.7,0,9-6.8,9-11.4v-3.1c-3.5,3.6-14.6,1.6-14.6,9.6
			C132.2,118.5,134.3,120.3,137.8,120.3z"/>
		<path d="M160.9,115.1V95.2h-6v-4.2h6V81h5.1v10.1h8.6v4.2H166v19.2c0,3.9,1.5,5.7,4,5.7c1.2,0,2.7-0.5,3.9-2.2l0.9,4.4
			c-1.3,1.5-3.7,2.2-5.2,2.2C164,124.5,160.9,121.1,160.9,115.1z"/>
		<path d="M179.1,91.1h5.1v32.6h-5.1V91.1z M184.9,75.9h5.7l-6.6,10.6h-4.5L184.9,75.9z"/>
		<path d="M187.5,91.1h5.1l9,28.1l8.9-28.1h5.1l-10.8,32.6h-6.4L187.5,91.1z"/>
		<path d="M232.7,94.5c-4.9,0-8.6,4.6-8.6,12.8v16.3H219V91.1h5.1v6.2c1.7-4.2,5.5-7,9.6-7c7,0,11.1,4.8,11.1,12.5v20.9h-5.1V103
			C239.8,98,237,94.5,232.7,94.5z"/>
		<path d="M248.5,135.4l-0.3-4.9c1,1,2.6,1.6,4.1,1.6c2.5,0,4.6-1.9,6.1-6.4l1.2-3.2l-11.8-31.5h5.1l9.2,25.6l9.4-25.6h5.1
			l-13.6,35.7c-2.6,7-6.2,9.9-10.4,9.9C251.2,136.7,249.7,136.2,248.5,135.4z"/>
		<path d="M277.2,107.3c0-10,5.9-17.1,14.1-17.1c6.6,0,11.7,4.8,12.5,11.8l-4.9,0.9c-0.5-5.2-3.6-8.3-7.6-8.3c-5.2,0-9,4.9-9,12.7
			c0,8,3.7,12.8,8.8,12.8c4.4,0,7.4-2.9,7.8-7.5l4.9,0.5c-0.9,6.8-5.8,11.4-12.7,11.4C282.8,124.5,277.2,117.4,277.2,107.3z"/>
		<path d="M321.5,94.5c-4.5,0-8.1,3.9-8.6,10.9v18.2h-5.1V75.9h5.1v21.3c1.7-4.2,5.5-7,9.6-7c7,0,11.1,4.8,11.1,12.5v20.9h-5.1V103
			C328.6,98,325.8,94.5,321.5,94.5z"/>
		<path d="M350.4,75.9h5.1v47.7h-5.1V75.9z M359.7,73.2h4.6l-2.5,13.3h-3.5L359.7,73.2z"/>
		<path d="M375,120.2c4.9,0,8.6-4.6,8.6-12.8v0.3l0.1-16.6h5.1l-0.1,32.6h-5.1v-6.2c-1.7,4.2-5.5,7-9.6,7c-7,0-11.1-4.8-11.1-12.5
			V91.1h5.1v20.7C367.9,116.7,370.7,120.2,375,120.2z"/>
		<path d="M393,107.3c0-10.2,4.9-17.1,12.8-17.1c4.3,0,8.1,2.7,9.8,7V75.9h5.1v47.7h-5.1v-6.3c-1.8,4.3-5.5,7.1-9.8,7.1
			C397.9,124.5,393,117.6,393,107.3z M406.9,120.1c5.2,0,8.7-4.8,8.7-12.8c0-7.9-3.5-12.8-8.7-12.8c-5.3,0-8.8,4.9-8.8,12.8
			C398.2,115.3,401.6,120.1,406.9,120.1z"/>
		<path d="M427,91.1h5.1v32.6H427V91.1z M432.8,75.9h5.7L432,86.5h-4.5L432.8,75.9z"/>
		<path d="M22.3,182.5c-1.4,4.6-5.1,7.6-10.3,7.6c-5.8,0-9.5-3.4-9.5-8.8c0-13.7,19.6-7.9,19.8-15.5c0-2.9-2.4-5.7-7-5.7
			c-4.3,0-7.7,3.3-7.9,7.7l-5.1-0.5c0.7-6.4,6.2-11.3,12.9-11.3c7.5,0,12.2,4.2,12.2,11.3V181c0,1.9,0.3,6.2,1.3,8.3h-5.5
			C22.6,187.8,22.4,184.7,22.3,182.5z M13.3,186c5.7,0,9-6.8,9-11.4v-3.1C18.8,175,7.7,173,7.7,181C7.7,184.2,9.8,186,13.3,186z"/>
		<path d="M44.1,156.7h5.1v6.1c1.8-4.2,5.5-6.9,9.8-6.9c7.9,0,12.8,6.9,12.8,17.2c0,10.2-4.9,17.1-12.8,17.1c-4.2,0-8-2.7-9.8-6.8
			v18.2h-5.1V156.7z M57.8,185.8c5.3,0,8.8-4.9,8.8-12.8c0-7.9-3.4-12.8-8.8-12.8c-5.2,0-8.7,4.8-8.7,12.8
			C49.2,181,52.6,185.8,57.8,185.8z"/>
		<path d="M76.2,156.7h5.1v6.6c1.4-4.9,4.9-7.4,8.1-7.4c1.2,0,2.6,0.3,3.8,1l-0.5,4.7c-1.2-0.7-2.6-1-3.8-1c-2.3,0-7.6,1.9-7.6,12.6
			v16.1h-5.1V156.7z"/>
		<path d="M93.7,173c0-10.3,5.5-17.1,13.8-17.1c8.4,0,13.9,6.9,13.9,17.1c0,10.3-5.5,17.2-13.9,17.2C99.2,190.1,93.7,183.3,93.7,173
			z M107.5,185.7c5.2,0,8.8-4.8,8.8-12.8c0-7.9-3.6-12.8-8.8-12.8c-5.1,0-8.7,4.9-8.7,12.8C98.8,181,102.3,185.7,107.5,185.7z"/>
		<path d="M131,156.7v35.2c0,6.8-3.8,10.4-8.7,10.4h-1l-0.4-4.6c0.3,0.1,0.6,0.1,0.8,0.1c2.5,0,4.2-2.3,4.2-6.6v-34.5H131z
			 M125.6,141.6h5.7v6.2h-5.7V141.6z"/>
		<path d="M135.5,173c0-9.7,5.6-17.1,13.9-17.1c9.2,0,14.2,8,12.2,17.4h-21.4c0,9.5,5.1,12.4,9.2,12.4c4.4,0,7.1-2.7,7.6-6.9
			l4.9,0.4c-0.8,6.4-5.9,10.9-12.5,10.9C140.5,190.1,135.5,182.6,135.5,173z M157.1,169.5c0.5-5.6-2.7-9.5-7.7-9.5
			c-4.7,0-8.2,3.9-8.8,9.5H157.1z"/>
		<path d="M177.3,171.7l-5.5,5.5v12.1h-5.1v-47.7h5.1v29.3l14.5-14.2h6L181,168l12,21.3h-5.7L177.3,171.7z"/>
		<path d="M200,180.7v-19.8h-6v-4.2h6v-10.1h5.1v10.1h8.6v4.2H205v19.2c0,3.9,1.5,5.7,4,5.7c1.2,0,2.7-0.5,3.9-2.2l0.9,4.4
			c-1.3,1.5-3.7,2.2-5.2,2.2C203.1,190.1,200,186.7,200,180.7z"/>
		<path d="M216.1,201l-0.3-4.9c1,1,2.6,1.6,4.1,1.6c2.5,0,4.6-1.9,6.1-6.4l1.2-3.2l-11.8-31.5h5.1l9.2,25.6l9.4-25.6h5.1l-13.6,35.7
			c-2.6,7-6.2,9.9-10.4,9.9C218.8,202.3,217.3,201.8,216.1,201z"/>
		<path d="M243.4,189.3h-2.5v-6.5h6.6v5l-2.9,11h-3.3L243.4,189.3z"/>
		<path d="M283,182.5c-1.4,4.6-5.1,7.6-10.3,7.6c-5.8,0-9.5-3.4-9.5-8.8c0-13.7,19.6-7.9,19.8-15.5c0-2.9-2.4-5.7-7-5.7
			c-4.3,0-7.7,3.3-7.9,7.7l-5.1-0.5c0.7-6.4,6.2-11.3,12.9-11.3c7.5,0,12.2,4.2,12.2,11.3V181c0,1.9,0.3,6.2,1.3,8.3h-5.5
			C283.3,187.8,283,184.7,283,182.5z M274,186c5.7,0,9-6.8,9-11.4v-3.1c-3.5,3.6-14.6,1.6-14.6,9.6C268.3,184.2,270.5,186,274,186z"
			/>
		<path d="M299.1,183.2v6.1h-5.1v-47.7h5.1v21.1c1.8-4.2,5.5-6.8,9.8-6.8c7.9,0,12.8,6.9,12.8,17.1c0,10.3-4.9,17.2-12.8,17.2
			C304.7,190.1,300.9,187.4,299.1,183.2z M307.8,185.7c5.3,0,8.8-4.9,8.8-12.8c0-7.9-3.4-12.8-8.8-12.8c-5.2,0-8.7,4.9-8.7,12.8
			C299.1,181,302.6,185.7,307.8,185.7z"/>
		<path d="M323.6,201l-0.3-4.9c1,1,2.6,1.6,4.1,1.6c2.5,0,4.6-1.9,6.1-6.4l1.2-3.2l-11.8-31.5h5.1l9.2,25.6l9.4-25.6h5.1L338,192.4
			c-2.6,7-6.2,9.9-10.4,9.9C326.3,202.3,324.8,201.8,323.6,201z"/>
		<path d="M364.1,178.1l4.9-0.4c0.3,4.6,3.8,8.3,8.3,8.3c4,0,6.2-2.3,6.2-5.4c0-8.5-18.1-3.5-18.1-15.4c0-5.1,4.4-9.4,10.9-9.4
			c5.9,0,11.1,4.1,11.6,9.7l-4.9,0.3c-0.2-3.3-3.1-6-6.6-6c-3.9,0-5.9,2.3-5.9,5.1c0,8,18.1,2.2,18.1,15.3c0,5.6-4.4,9.8-11.2,9.8
			C370.1,190.1,364.5,185,364.1,178.1z"/>
		<path d="M406.3,160.2c-4.9,0-8.3,4.9-8.3,12.5v16.5h-5.1v-32.6h5.1v6.2c1.6-4,5.5-7,9.7-7c5.1,0,8.4,2.9,9.7,7.7
			c1.4-4.4,5.6-7.7,10.5-7.7c6.3,0,10.3,4.6,10.3,12v21.5h-5.1v-20.9c0-4.9-2.5-8.2-6.6-8.2c-5,0-8.4,4.9-8.4,11.4v17.6h-5.1v-20.4
			C413.1,163.7,410.5,160.2,406.3,160.2z"/>
		<path d="M442.4,173c0-9.7,5.6-17.1,13.9-17.1c9.2,0,14.2,8,12.2,17.4h-21.4c0,9.5,5.1,12.4,9.2,12.4c4.4,0,7.1-2.7,7.6-6.9
			l4.9,0.4c-0.8,6.4-5.9,10.9-12.5,10.9C447.4,190.1,442.4,182.6,442.4,173z M464,169.5c0.5-5.6-2.7-9.5-7.7-9.5
			c-4.7,0-8.2,3.9-8.8,9.5H464z"/>
		<path d="M31.2,225.8c-4.9,0-8.6,4.6-8.6,12.8v16.3h-5.1v-32.6h5.1v6.2c1.7-4.2,5.5-7,9.6-7c7,0,11.1,4.8,11.1,12.5v20.9h-5.1
			v-20.7C38.3,229.3,35.5,225.8,31.2,225.8z"/>
		<path d="M67.8,248.2c-1.4,4.6-5.1,7.6-10.3,7.6c-5.8,0-9.5-3.4-9.5-8.8c0-13.7,19.6-7.9,19.8-15.5c0-2.9-2.4-5.7-7-5.7
			c-4.3,0-7.7,3.3-7.9,7.7l-5.1-0.5c0.7-6.4,6.2-11.4,12.9-11.4c7.5,0,12.2,4.2,12.2,11.4v13.8c0,1.9,0.3,6.2,1.3,8.3h-5.5
			C68,253.4,67.8,250.3,67.8,248.2z M58.7,251.6c5.7,0,9-6.8,9-11.4V237c-3.5,3.6-14.6,1.6-14.6,9.6
			C53.1,249.8,55.2,251.6,58.7,251.6z"/>
		<path d="M77.1,243.7l4.9-0.4c0.3,4.6,3.8,8.3,8.3,8.3c4,0,6.2-2.3,6.2-5.4c0-8.5-18.1-3.5-18.1-15.4c0-5.1,4.4-9.4,10.9-9.4
			c5.9,0,11.1,4.1,11.6,9.7l-4.9,0.3c-0.2-3.3-3.1-6-6.6-6c-3.9,0-5.9,2.3-5.9,5.1c0,8,18.1,2.2,18.1,15.3c0,5.6-4.4,9.8-11.2,9.8
			C83.1,255.8,77.5,250.6,77.1,243.7z M84,207.2l5.4,7.2l5.3-7.2h4.9l-7.5,10.6h-5.5l-7.5-10.6H84z"/>
		<path d="M106,207.2h5.1v47.7H106V207.2z"/>
		<path d="M117,207.2h5.7v6.2H117V207.2z M117.3,222.3h5.1v32.6h-5.1V222.3z"/>
		<path d="M153,225.8c-4.9,0-8.6,4.6-8.6,12.8v16.3h-5.1v-32.6h5.1v6.2c1.7-4.2,5.5-7,9.6-7c7,0,11.1,4.8,11.1,12.5v20.9h-5.1v-20.7
			C160.1,229.3,157.3,225.8,153,225.8z"/>
		<path d="M169.4,238.6c0-10.3,5.5-17.1,13.8-17.1c8.4,0,13.9,6.9,13.9,17.1c0,10.3-5.5,17.2-13.9,17.2
			C175,255.8,169.4,248.9,169.4,238.6z M183.2,251.4c5.2,0,8.8-4.8,8.8-12.8c0-7.9-3.6-12.8-8.8-12.8c-5.1,0-8.7,4.9-8.7,12.8
			C174.5,246.6,178.1,251.4,183.2,251.4z"/>
		<path d="M198.3,222.3h5.1l9,28.1l8.9-28.1h5.1l-10.8,32.6h-6.4L198.3,222.3z"/>
		<path d="M227.5,238.6c0-9.7,5.6-17.1,13.9-17.1c9.2,0,14.2,8,12.2,17.4h-21.4c0,9.5,5.1,12.4,9.2,12.4c4.4,0,7.1-2.7,7.6-6.9
			l4.9,0.4c-0.8,6.4-5.9,10.9-12.5,10.9C232.5,255.8,227.5,248.2,227.5,238.6z M249.1,235.2c0.5-5.6-2.7-9.5-7.7-9.5
			c-4.7,0-8.2,3.9-8.8,9.5H249.1z M244.2,207.2h5.7l-6.6,10.6h-4.5L244.2,207.2z"/>
		<path d="M269.5,222.3h5.1v6.6c1.4-4.9,4.9-7.4,8.1-7.4c1.2,0,2.6,0.3,3.8,1l-0.5,4.7c-1.2-0.7-2.6-1-3.8-1
			c-2.3,0-7.6,1.9-7.6,12.6v16.1h-5.1V222.3z"/>
		<path d="M289.7,207.2h5.7v6.2h-5.7V207.2z M290,222.3h5.1v32.6H290V222.3z"/>
		<path d="M299.5,238.6c0-9.7,5.6-17.1,13.9-17.1c9.2,0,14.2,8,12.2,17.4h-21.4c0,9.5,5.1,12.4,9.2,12.4c4.4,0,7.1-2.7,7.6-6.9
			l4.9,0.4c-0.8,6.4-5.9,10.9-12.5,10.9C304.5,255.8,299.5,248.2,299.5,238.6z M321.1,235.2c0.5-5.6-2.7-9.5-7.7-9.5
			c-4.7,0-8.2,3.9-8.8,9.5H321.1z"/>
		<path d="M329.1,243.7l4.9-0.4c0.3,4.6,3.8,8.3,8.3,8.3c4,0,6.2-2.3,6.2-5.4c0-8.5-18.1-3.5-18.1-15.4c0-5.1,4.4-9.4,10.9-9.4
			c5.9,0,11.1,4.1,11.6,9.7l-4.9,0.3c-0.2-3.3-3.1-6-6.6-6c-3.9,0-5.9,2.3-5.9,5.1c0,8,18.1,2.2,18.1,15.3c0,5.6-4.4,9.8-11.2,9.8
			C335.1,255.8,329.5,250.6,329.1,243.7z M336,207.2l5.4,7.2l5.3-7.2h4.9l-7.5,10.6h-5.5l-7.5-10.6H336z"/>
		<path d="M356.2,238.6c0-9.7,5.6-17.1,13.9-17.1c9.2,0,14.2,8,12.2,17.4H361c0,9.5,5.1,12.4,9.2,12.4c4.4,0,7.1-2.7,7.6-6.9
			l4.9,0.4c-0.8,6.4-5.9,10.9-12.5,10.9C361.2,255.8,356.2,248.2,356.2,238.6z M377.8,235.2c0.5-5.6-2.7-9.5-7.7-9.5
			c-4.7,0-8.2,3.9-8.8,9.5H377.8z"/>
		<path d="M401.1,225.8c-4.9,0-8.6,4.6-8.6,12.8v16.3h-5.1v-32.6h5.1v6.2c1.7-4.2,5.5-7,9.6-7c7,0,11.1,4.8,11.1,12.5v20.9h-5.1
			v-20.7C408.2,229.3,405.4,225.8,401.1,225.8z"/>
		<path d="M418.8,207.2h5.7v6.2h-5.7V207.2z M419.2,222.3h5.1v32.6h-5.1V222.3z"/>
		<path d="M448.9,248.2c-1.4,4.6-5.1,7.6-10.3,7.6c-5.8,0-9.5-3.4-9.5-8.8c0-13.7,19.6-7.9,19.8-15.5c0-2.9-2.4-5.7-7-5.7
			c-4.3,0-7.7,3.3-7.9,7.7l-5.1-0.5c0.7-6.4,6.2-11.4,12.9-11.4c7.5,0,12.2,4.2,12.2,11.4v13.8c0,1.9,0.3,6.2,1.3,8.3h-5.5
			C449.2,253.4,449,250.3,448.9,248.2z M439.9,251.6c5.7,0,9-6.8,9-11.4V237c-3.5,3.6-14.6,1.6-14.6,9.6
			C434.3,249.8,436.4,251.6,439.9,251.6z"/>
		<path d="M55.6,303l-5.5,5.5v12.1H45v-47.7h5.1v29.3l14.5-14.2h6l-11.4,11.4l12,21.3h-5.7L55.6,303z"/>
		<path d="M74.6,272.8h5.1v47.7h-5.1V272.8z"/>
		<path d="M85.6,272.8h5.7v6.2h-5.7V272.8z M86,287.9H91v32.6H86V287.9z"/>
		<path d="M110.6,291.5c-4.9,0-8.3,4.9-8.3,12.5v16.5h-5.1v-32.6h5.1v6.2c1.6-4,5.5-7,9.7-7c5.1,0,8.4,2.9,9.7,7.7
			c1.4-4.4,5.6-7.7,10.5-7.7c6.3,0,10.3,4.6,10.3,12v21.5h-5.1v-20.9c0-4.9-2.5-8.2-6.6-8.2c-5,0-8.4,4.9-8.4,11.4v17.6h-5.1v-20.4
			C117.4,294.9,114.8,291.5,110.6,291.5z"/>
		<path d="M166.9,313.8c-1.4,4.6-5.1,7.6-10.3,7.6c-5.8,0-9.5-3.4-9.5-8.8c0-13.7,19.6-7.9,19.8-15.5c0-2.9-2.4-5.7-7-5.7
			c-4.3,0-7.7,3.3-7.9,7.7l-5.1-0.5c0.7-6.4,6.2-11.4,12.9-11.4c7.5,0,12.2,4.2,12.2,11.4v13.8c0,1.9,0.3,6.2,1.3,8.3h-5.5
			C167.1,319.1,166.9,315.9,166.9,313.8z M157.8,317.2c5.7,0,9-6.8,9-11.4v-3.1c-3.5,3.6-14.6,1.6-14.6,9.6
			C152.2,315.4,154.3,317.2,157.8,317.2z"/>
		<path d="M180.9,311.9v-19.8h-6v-4.2h6v-10.1h5.1v10.1h8.6v4.2H186v19.2c0,3.9,1.5,5.7,4,5.7c1.2,0,2.7-0.5,3.9-2.2l0.9,4.4
			c-1.3,1.5-3.7,2.2-5.2,2.2C184,321.4,180.9,318,180.9,311.9z"/>
		<path d="M198.7,272.8h5.7v6.2h-5.7V272.8z M199.1,287.9h5.1v32.6h-5.1V287.9z"/>
		<path d="M208.6,304.2c0-10,5.9-17.1,14.1-17.1c6.6,0,11.7,4.8,12.5,11.8l-4.9,0.9c-0.5-5.2-3.6-8.3-7.6-8.3c-5.2,0-9,4.9-9,12.7
			c0,8,3.7,12.8,8.8,12.8c4.4,0,7.4-2.9,7.8-7.5l4.9,0.5c-0.9,6.8-5.8,11.4-12.7,11.4C214.2,321.4,208.6,314.3,208.6,304.2z"/>
		<path d="M249.8,303l-5.5,5.5v12.1h-5.1v-47.7h5.1v29.3l14.5-14.2h6l-11.3,11.4l12,21.3h-5.7L249.8,303z"/>
		<path d="M264.8,304.2c0-9.7,5.6-17.1,13.9-17.1c9.2,0,14.2,8,12.2,17.4h-21.4c0,9.5,5.1,12.4,9.2,12.4c4.4,0,7.1-2.7,7.6-6.9
			l4.9,0.4c-0.8,6.4-5.9,10.9-12.5,10.9C269.8,321.4,264.8,313.9,264.8,304.2z M286.4,300.8c0.5-5.6-2.7-9.5-7.7-9.5
			c-4.7,0-8.2,3.9-8.8,9.5H286.4z"/>
		<path d="M301.3,287.9v35.2c0,6.8-3.8,10.4-8.7,10.4h-1l-0.4-4.6c0.3,0.1,0.6,0.1,0.8,0.1c2.5,0,4.2-2.3,4.2-6.6v-34.5H301.3z
			 M295.9,272.8h5.7v6.2h-5.7V272.8z"/>
		<path d="M328.9,303l-5.5,5.5v12.1h-5.1v-47.7h5.1v29.3l14.5-14.2h6l-11.4,11.4l12,21.3h-5.7L328.9,303z"/>
		<path d="M347.9,287.9h5.1v6.6c1.4-4.9,4.9-7.4,8.1-7.4c1.2,0,2.6,0.3,3.8,1l-0.5,4.7c-1.2-0.7-2.6-1-3.8-1
			c-2.3,0-7.6,1.9-7.6,12.6v16.1h-5.1V287.9z"/>
		<path d="M368.4,287.9h5.1v32.6h-5.1V287.9z M374.3,272.8h5.7l-6.6,10.6h-4.5L374.3,272.8z"/>
		<path d="M377.9,316.7l18.9-24.6h-18.1v-4.2h24.5v3.8l-18.9,24.6h18.9v4.2h-25.3V316.7z"/>
		<path d="M405.7,332.2l-0.3-4.9c1,1,2.6,1.6,4.1,1.6c2.5,0,4.6-1.9,6.1-6.4l1.2-3.2l-11.8-31.5h5.1l9.2,25.6l9.4-25.6h5.1
			l-13.6,35.7c-2.6,7-6.2,9.9-10.4,9.9C408.3,333.5,406.8,333.1,405.7,332.2z"/>
		<path d="M430.4,314.1h6.6v6.5h-6.6V314.1z"/>
	</g>
	<g>
		<path d="M42.6,139.5c53.1,0,106.2-3,159.3-6.1c26.3-1.5,52.6-3.2,78.9-4c26.6-0.8,53.2-0.8,79.8-0.8c14.8,0,29.7-0.3,44.5,0.5
			c7.4,0.4,14.7,0.9,22.1,0.7c3.7-0.1,7.2-0.7,10.8-1.1c1.9-0.2,4.5,0.5,6-1.2c0.4-0.4,0.2-1.1-0.3-1.3c-1.8-0.6-3.4-1.5-5.3-1.4
			c-1,0.1-1,1.6,0,1.5c1.8-0.1,3.3,0.8,4.9,1.3c-0.1-0.4-0.2-0.8-0.3-1.3c-0.9,1-2.2,0.5-3.3,0.6c-1.3,0-2.7,0.3-4,0.5
			c-3.6,0.5-7.1,0.8-10.7,0.8c-6.6,0.1-13.2-0.3-19.7-0.7c-13-0.7-26-0.6-38.9-0.5c-26.1,0-52.1,0-78.2,0.6
			c-52.4,1.2-104.7,5.6-157.1,7.9C101.5,137,72,138,42.6,138C41.6,138,41.6,139.5,42.6,139.5L42.6,139.5z"/>
	</g>
	<g>
		<path d="M50.6,347.7c5.6-6.4,10.6-13.4,16.8-19.3c2.6-2.5,5.5-5.9,9.3-6.6c4.1-0.8,6.8,1.6,8.9,4.8c3.2,5,5.3,11.2,10.2,15
			c5.6,4.3,12.5,2.7,18-0.9c5.9-3.9,10.5-10,17.1-13c4.1-1.8,7.7-0.7,11,2.1c2.6,2.2,4.8,4.7,7.2,7c4.1,4,9.9,8.5,16,7
			c6.2-1.5,10.1-7.2,14.5-11.3c5.3-5,13.7-3,19.8-0.7c3.7,1.4,7.3,3.2,11,4.4c3.9,1.3,8,1.9,12.1,1.6c3.9-0.3,7.9-1.2,11.4-3
			c3.6-1.8,6.5-5.3,10.3-6.5c2.4-0.7,4.1,0.3,6,1.6c1.7,1.2,3.5,2.3,5.3,3.1c2.9,1.4,6.2,2.1,9.4,1.6c6.3-0.8,11.3-5.4,16.2-9.1
			c2.6-2,5.5-4,8.7-4.8c3.4-0.8,6,0.5,8.3,2.9c2.3,2.4,4.1,5.1,6.6,7.3c2.5,2.3,5.4,4.1,8.6,5.2c3.2,1.1,6.7,1.2,9.9-0.1
			c3.5-1.4,6.8-5,10.7-2.9c1.5,0.8,2.9,1.9,4.4,2.8c1.7,1,3.4,1.9,5.2,2.8c3.2,1.5,6.7,2.7,10.3,2.5c3.9-0.2,7.2-2.5,10.6-4.3
			c1.9-1,3.9-2,5.9-2.6c2-0.6,3.6,0,5.3,1c3.3,2,6.2,4.5,10,5.7c3.4,1,6.7,1,10.1,0c4.3-1.2,8.2-3.5,12.6-4.1c4.2-0.6,8.5-1,12.7-2
			c1.8-0.4,3.7-0.9,5.4-1.7c0.6-0.3,1.3-0.7,1.8-1.1c0.8-0.7,1.1-1.6,2.3-1.7c1-0.1,1-1.6,0-1.5c-1.4,0.1-2,0.7-2.9,1.7
			c-1.5,1.5-3.6,2-5.7,2.6c-4.5,1.2-9.1,1.8-13.7,2.3c-4.4,0.6-8.1,2.7-12.3,3.9c-4.3,1.3-8.4,1.2-12.5-0.8c-3.3-1.6-6-4.5-9.4-5.7
			c-3-1.1-6.2,0.6-8.9,2c-3.9,1.9-7.7,4.9-12.3,4.9c-4.2,0-8.2-2-11.9-3.9c-1.5-0.8-2.9-1.7-4.3-2.6c-1.4-0.9-2.8-2-4.5-2.2
			c-3.3-0.5-6.2,2.2-9,3.5c-7.8,3.5-15.8-2.2-20.6-8c-3.7-4.3-7.3-8.9-13.6-7.1c-6.1,1.8-10.7,6.9-15.9,10.3
			c-2.8,1.8-5.8,3.3-9.2,3.5c-4.1,0.2-7.8-1.5-11.2-3.6c-3.1-2-5.5-4.1-9.3-2.6c-3.6,1.3-6.2,4.4-9.6,6.1
			c-8.2,4.4-17.8,3.7-26.2,0.3c-6.5-2.6-13.2-6-20.4-5.6c-2.9,0.2-5.8,1-8,3c-2.4,2.1-4.4,4.6-6.7,6.8c-2.5,2.3-5.6,4.7-9.1,4.9
			c-3.6,0.2-7.2-1.9-9.9-4.1c-2.6-2.1-4.9-4.6-7.3-6.9c-2.2-2.2-4.6-4.7-7.5-5.8c-6.5-2.5-12.7,3-17.3,7
			c-5.4,4.7-12.4,11.5-20.3,9.6c-6.8-1.6-9.7-9.1-12.8-14.5c-1.4-2.4-3-5.1-5.4-6.7c-2.5-1.6-5.9-1.4-8.5-0.3c-3,1.3-5.5,4-7.8,6.3
			c-3.1,3-5.9,6.2-8.6,9.5c-2.7,3.3-5.4,6.6-8.2,9.8C48.9,347.4,50,348.5,50.6,347.7L50.6,347.7z"/>
	</g>
	<g>
		<path d="M86.6,123.9c-17.5,9.6-32.9,23.4-45.1,39.2c-5.8,7.5-11.2,16.6-11.1,26.4c0.1,7.7,3.8,14.5,9.8,19.1
			c5.7,4.4,12.8,6.9,19.8,8.6c7.7,1.9,15.6,2.8,23.4,3.6c22.6,2.4,45.5,3,68.2,0.8c11.1-1.1,22.3-2.7,33.1-5.4
			c10.6-2.6,21-6.3,30.9-10.9c8.8-4.1,16.6-9.6,23.4-16.5c6.5-6.5,12.9-13.9,15.7-22.8c2.6-8.5,1.8-18.2-2.9-25.8
			c-4.9-8-13.1-13-21.8-16c-4.6-1.6-9.2-2.7-13.9-3.7c-5.5-1.2-11-2.2-16.6-2.7c-11.3-1.1-22.6-0.6-33.8,1.2
			c-20.7,3.3-40.9,8.9-60.4,16.5c-19.3,7.4-37.8,16.7-55.6,27.1c-4.4,2.6-8.8,5.3-13.1,8c-0.8,0.5-0.1,1.8,0.8,1.3
			c17-10.8,34.7-20.6,53.2-28.7c18.5-8.2,37.7-14.7,57.3-19.2c10.3-2.3,20.8-4.4,31.3-5c11.2-0.7,22.5,0.1,33.6,2.4
			c9.2,1.9,18.8,4,26.8,8.9c7.7,4.7,13.4,12.2,14.8,21.2c1.5,9.4-1.7,18.3-7.2,25.9c-5.5,7.5-12.4,14.4-20,19.7
			c-8.3,5.9-17.9,9.9-27.5,13.2c-10.1,3.5-20.5,6-31.1,7.7c-21.9,3.5-44.3,4.2-66.4,2.9c-10.1-0.6-20.1-1.5-30.1-3
			c-6.9-1-13.8-2.4-20.4-4.8c-6.4-2.4-12.7-6.1-16.4-12c-5-8-3.8-17.7,0.2-25.8c4.3-8.8,11-16.3,17.7-23.3
			c6.7-7.1,14.1-13.6,22.1-19.2c3.9-2.7,7.9-5.2,12.1-7.5C88.2,124.8,87.5,123.5,86.6,123.9L86.6,123.9z"/>
	</g>
</g>
</svg>
