<?xml version="1.0" encoding="utf-8"?>
<!-- Generator: Adobe Illustrator 26.0.3, SVG Export Plug-In . SVG Version: 6.00 Build 0)  -->
<svg version="1.2" baseProfile="tiny" id="Layer_1" xmlns="http://www.w3.org/2000/svg" xmlns:xlink="http://www.w3.org/1999/xlink"
	 x="0px" y="0px" viewBox="0 0 402.3 472.4" overflow="visible" xml:space="preserve">
<g>
	<g>
		<path d="M52.7,34.2c0-14.4,7.9-24.7,19.1-24.7c9.3,0,16.3,5.9,17.4,17.9l-5.5,0.8c-0.4-9.5-5.6-14.1-11.9-14.1
			c-7.9,0-13.5,8.3-13.5,20.1c0,11.8,5.6,20,13.9,20c6.5,0,11.3-5.7,11.6-13.5l5.5,0.4c-0.6,10.5-7.2,17.8-17,17.8
			C60.6,58.9,52.7,48.5,52.7,34.2z"/>
		<path d="M92,41.7c0-10.3,5.5-17.1,13.8-17.1c8.4,0,13.9,6.9,13.9,17.1c0,10.3-5.5,17.2-13.9,17.2C97.6,58.9,92,52,92,41.7z
			 M105.8,54.5c5.2,0,8.8-4.8,8.8-12.8c0-7.9-3.6-12.8-8.8-12.8c-5.1,0-8.7,4.9-8.7,12.8C97.1,49.7,100.7,54.5,105.8,54.5z"/>
		<path d="M137.8,28.9c-4.9,0-8.6,4.6-8.6,12.8V58h-5.1V25.4h5.1v6.2c1.7-4.2,5.5-7,9.6-7c7,0,11.1,4.8,11.1,12.5V58h-5.1V37.3
			C144.9,32.4,142.1,28.9,137.8,28.9z"/>
		<path d="M169.5,28.9c-4.9,0-8.6,4.6-8.6,12.8V58h-5.1V25.4h5.1v6.2c1.7-4.2,5.5-7,9.6-7c7,0,11.1,4.8,11.1,12.5V58h-5.1V37.3
			C176.7,32.4,173.9,28.9,169.5,28.9z"/>
		<path d="M185.9,41.7c0-9.7,5.6-17.1,13.9-17.1c9.2,0,14.2,8,12.2,17.4h-21.4c0,9.5,5.1,12.4,9.2,12.4c4.4,0,7.1-2.7,7.6-6.9
			l4.9,0.4c-0.8,6.4-5.9,10.9-12.5,10.9C190.9,58.9,185.9,51.3,185.9,41.7z M207.6,38.3c0.5-5.6-2.7-9.5-7.7-9.5
			c-4.7,0-8.2,3.9-8.8,9.5H207.6z"/>
		<path d="M215.6,41.7c0-10,5.9-17.1,14.1-17.1c6.6,0,11.7,4.8,12.5,11.8l-4.9,0.9c-0.5-5.2-3.6-8.3-7.6-8.3c-5.2,0-9,4.9-9,12.7
			c0,8,3.7,12.8,8.8,12.8c4.4,0,7.4-2.9,7.8-7.5l4.9,0.5c-0.9,6.8-5.8,11.4-12.7,11.4C221.2,58.9,215.6,51.8,215.6,41.7z"/>
		<path d="M249.3,49.4V29.6h-6v-4.2h6V15.4h5.1v10.1h8.6v4.2h-8.6v19.2c0,3.9,1.5,5.7,4,5.7c1.2,0,2.7-0.5,3.9-2.2l0.9,4.4
			c-1.3,1.5-3.7,2.2-5.2,2.2C252.4,58.9,249.3,55.4,249.3,49.4z"/>
		<path d="M267.1,10.3h5.7v6.2h-5.7V10.3z M267.4,25.4h5.1V58h-5.1V25.4z"/>
		<path d="M292.3,28.9c-4.9,0-8.6,4.6-8.6,12.8V58h-5.1V25.4h5.1v6.2c1.7-4.2,5.5-7,9.6-7c7,0,11.1,4.8,11.1,12.5V58h-5.1V37.3
			C299.4,32.4,296.6,28.9,292.3,28.9z"/>
		<path d="M308.2,61.7c0-3.4,1.8-5.9,3.7-7.4c-1.1-1.3-1.7-2.9-1.7-4.4c0-2.3,1.4-4.2,2.6-5.3c-2.3-2-3.7-4.9-3.7-8.5
			c0-6.8,4.9-11.5,12-11.5c3,0,5.6,0.9,7.7,2.4c1.7-1.7,3.7-3,6.1-3.8l1.9,3.8c-1.7,0.5-3.8,1.4-5.5,2.7c1.2,1.8,1.8,4,1.8,6.4
			c0,6.8-4.9,11.4-12,11.4c-1.8,0-3.6-0.3-5.1-1c-0.5,0.6-1,1.4-1,2.4c0,2.2,1.4,3.6,3.6,3.6c2.9,0,3.9-0.5,7.3-0.5
			c5.9,0,9.4,3.6,9.4,8.8c0,6.4-5.3,10.3-13.7,10.3C313.5,71,308.2,67.5,308.2,61.7z M321.6,67.1c5.4,0,8.7-2.3,8.7-6.1
			c0-2.6-1.7-4.6-5.2-4.6c-2.9,0-4.3,0.5-7.2,0.5c-1.1,0-2.1-0.2-3-0.5c-1.2,1.2-2,2.7-2,4.7C312.8,64.9,316.3,67.1,321.6,67.1z
			 M321,43.6c4.2,0,6.9-3.1,6.9-7.6c0-4.4-2.7-7.5-6.9-7.5c-4.2,0-7,3.1-7,7.5C314.1,40.5,316.8,43.6,321,43.6z"/>
		<path d="M13.9,107.3c0-10,5.9-17.1,14.1-17.1c6.6,0,11.7,4.8,12.5,11.8l-4.9,0.9c-0.5-5.2-3.6-8.3-7.6-8.3c-5.2,0-9,4.9-9,12.7
			c0,8,3.7,12.8,8.8,12.8c4.4,0,7.4-2.9,7.8-7.5l4.9,0.5c-0.9,6.8-5.8,11.4-12.7,11.4C19.5,124.5,13.9,117.4,13.9,107.3z"/>
		<path d="M44.5,91.1h5.1v6.6c1.4-4.9,4.9-7.4,8.1-7.4c1.2,0,2.6,0.3,3.8,1L61,95.9c-1.2-0.7-2.6-1-3.8-1c-2.3,0-7.6,1.9-7.6,12.6
			v16.1h-5.1V91.1z"/>
		<path d="M62,107.3c0-9.7,5.6-17.1,13.9-17.1c9.2,0,14.2,8,12.2,17.4H66.8c0,9.5,5.1,12.4,9.2,12.4c4.4,0,7.1-2.7,7.6-6.9l4.9,0.4
			c-0.8,6.4-5.9,10.9-12.5,10.9C67,124.5,62,117,62,107.3z M83.6,103.9c0.5-5.6-2.7-9.5-7.7-9.5c-4.7,0-8.2,3.9-8.8,9.5H83.6z"/>
		<path d="M111.7,116.9c-1.4,4.6-5.1,7.6-10.3,7.6c-5.8,0-9.5-3.4-9.5-8.8c0-13.7,19.6-7.9,19.8-15.5c0-2.9-2.4-5.7-7-5.7
			c-4.3,0-7.7,3.3-7.9,7.7l-5.1-0.5c0.7-6.4,6.2-11.4,12.9-11.4c7.5,0,12.2,4.2,12.2,11.4v13.8c0,1.9,0.3,6.2,1.3,8.3h-5.5
			C112,122.2,111.8,119,111.7,116.9z M102.7,120.3c5.7,0,9-6.8,9-11.4v-3.1c-3.5,3.6-14.6,1.6-14.6,9.6
			C97.1,118.5,99.2,120.3,102.7,120.3z"/>
		<path d="M125.8,115.1V95.2h-6v-4.2h6V81h5.1v10.1h8.6v4.2h-8.6v19.2c0,3.9,1.5,5.7,4,5.7c1.2,0,2.7-0.5,3.9-2.2l0.9,4.4
			c-1.3,1.5-3.7,2.2-5.2,2.2C128.9,124.5,125.8,121.1,125.8,115.1z"/>
		<path d="M143.6,75.9h5.7v6.2h-5.7V75.9z M143.9,91.1h5.1v32.6h-5.1V91.1z"/>
		<path d="M152.4,91.1h5.1l9,28.1l8.9-28.1h5.1l-10.8,32.6h-6.4L152.4,91.1z"/>
		<path d="M181.6,107.3c0-9.7,5.6-17.1,13.9-17.1c9.2,0,14.2,8,12.2,17.4h-21.4c0,9.5,5.1,12.4,9.2,12.4c4.4,0,7.1-2.7,7.6-6.9
			l4.9,0.4c-0.8,6.4-5.9,10.9-12.5,10.9C186.6,124.5,181.6,117,181.6,107.3z M203.2,103.9c0.5-5.6-2.7-9.5-7.7-9.5
			c-4.7,0-8.2,3.9-8.8,9.5H203.2z"/>
		<path d="M223.6,91.1h5.1v6.1c1.8-4.2,5.5-6.9,9.8-6.9c7.9,0,12.8,6.9,12.8,17.2c0,10.2-4.9,17.1-12.8,17.1c-4.2,0-8-2.7-9.8-6.8
			v18.2h-5.1V91.1z M237.4,120.2c5.3,0,8.8-4.9,8.8-12.8c0-7.9-3.4-12.8-8.8-12.8c-5.2,0-8.7,4.8-8.7,12.8
			C228.7,115.3,232.2,120.2,237.4,120.2z"/>
		<path d="M254.1,107.3c0-9.7,5.6-17.1,13.9-17.1c9.2,0,14.2,8,12.2,17.4h-21.4c0,9.5,5.1,12.4,9.2,12.4c4.4,0,7.1-2.7,7.6-6.9
			l4.9,0.4c-0.8,6.4-5.9,10.9-12.5,10.9C259.1,124.5,254.1,117,254.1,107.3z M275.7,103.9c0.5-5.6-2.7-9.5-7.7-9.5
			c-4.7,0-8.2,3.9-8.8,9.5H275.7z"/>
		<path d="M283.8,107.3c0-10.3,5.5-17.1,13.8-17.1c8.4,0,13.9,6.9,13.9,17.1c0,10.3-5.5,17.2-13.9,17.2
			C289.3,124.5,283.8,117.7,283.8,107.3z M297.6,120.1c5.2,0,8.8-4.8,8.8-12.8c0-7.9-3.6-12.8-8.8-12.8c-5.1,0-8.7,4.9-8.7,12.8
			C288.9,115.3,292.5,120.1,297.6,120.1z"/>
		<path d="M315.9,91.1h5.1v6.1c1.8-4.2,5.5-6.9,9.8-6.9c7.9,0,12.8,6.9,12.8,17.2c0,10.2-4.9,17.1-12.8,17.1c-4.2,0-8-2.7-9.8-6.8
			v18.2h-5.1V91.1z M329.7,120.2c5.3,0,8.8-4.9,8.8-12.8c0-7.9-3.4-12.8-8.8-12.8c-5.2,0-8.7,4.8-8.7,12.8
			C321,115.3,324.5,120.2,329.7,120.2z"/>
		<path d="M348.1,75.9h5.1v47.7h-5.1V75.9z"/>
		<path d="M357.7,107.3c0-9.7,5.6-17.1,13.9-17.1c9.2,0,14.2,8,12.2,17.4h-21.4c0,9.5,5.1,12.4,9.2,12.4c4.4,0,7.1-2.7,7.6-6.9
			l4.9,0.4c-0.8,6.4-5.9,10.9-12.5,10.9C362.7,124.5,357.7,117,357.7,107.3z M379.3,103.9c0.5-5.6-2.7-9.5-7.7-9.5
			c-4.7,0-8.2,3.9-8.8,9.5H379.3z"/>
		<path d="M68.7,182.5c-1.4,4.6-5.1,7.6-10.3,7.6c-5.8,0-9.5-3.4-9.5-8.8c0-13.7,19.6-7.9,19.8-15.5c0-2.9-2.4-5.7-7-5.7
			c-4.3,0-7.7,3.3-7.9,7.7l-5.1-0.5c0.7-6.4,6.2-11.4,12.9-11.4c7.5,0,12.2,4.2,12.2,11.4V181c0,1.9,0.3,6.2,1.3,8.3h-5.5
			C68.9,187.8,68.7,184.6,68.7,182.5z M59.6,185.9c5.7,0,9-6.8,9-11.4v-3.1C65.2,175,54,173,54,181C54,184.2,56.2,185.9,59.6,185.9z
			"/>
		<path d="M93.3,160.2c-4.9,0-8.6,4.6-8.6,12.8v16.3h-5.1v-32.6h5.1v6.2c1.7-4.2,5.5-7,9.6-7c7,0,11.1,4.8,11.1,12.5v20.9h-5.1
			v-20.7C100.5,163.7,97.7,160.2,93.3,160.2z"/>
		<path d="M109.6,173c0-10.2,4.9-17.1,12.8-17.1c4.3,0,8.1,2.7,9.8,7v-21.3h5.1v47.7h-5.1V183c-1.8,4.3-5.5,7.1-9.8,7.1
			C114.5,190.1,109.6,183.2,109.6,173z M123.5,185.7c5.2,0,8.7-4.8,8.7-12.8c0-7.9-3.5-12.8-8.7-12.8c-5.3,0-8.8,4.9-8.8,12.8
			C114.7,180.9,118.2,185.7,123.5,185.7z"/>
		<path d="M154.3,156.7h5.1v6.1c1.8-4.2,5.5-6.9,9.8-6.9c7.9,0,12.8,6.9,12.8,17.2c0,10.2-4.9,17.1-12.8,17.1c-4.2,0-8-2.7-9.8-6.8
			v18.2h-5.1V156.7z M168.1,185.8c5.3,0,8.8-4.9,8.8-12.8c0-7.9-3.4-12.8-8.8-12.8c-5.2,0-8.7,4.8-8.7,12.8
			C159.4,181,162.9,185.8,168.1,185.8z"/>
		<path d="M186.4,156.7h5.1v6.6c1.4-4.9,4.9-7.4,8.1-7.4c1.2,0,2.6,0.3,3.8,1l-0.5,4.7c-1.2-0.7-2.6-1-3.8-1
			c-2.3,0-7.6,1.9-7.6,12.6v16.1h-5.1V156.7z"/>
		<path d="M203.9,173c0-10.3,5.5-17.1,13.8-17.1c8.4,0,13.9,6.9,13.9,17.1c0,10.3-5.5,17.2-13.9,17.2
			C209.4,190.1,203.9,183.3,203.9,173z M217.7,185.7c5.2,0,8.8-4.8,8.8-12.8c0-7.9-3.6-12.8-8.8-12.8c-5.1,0-8.7,4.9-8.7,12.8
			C209,181,212.6,185.7,217.7,185.7z"/>
		<path d="M241.2,156.7v35.2c0,6.8-3.8,10.4-8.7,10.4h-1l-0.4-4.6c0.3,0.1,0.6,0.1,0.8,0.1c2.5,0,4.2-2.3,4.2-6.6v-34.5H241.2z
			 M235.8,141.6h5.7v6.2h-5.7V141.6z"/>
		<path d="M245.7,173c0-9.7,5.6-17.1,13.9-17.1c9.2,0,14.2,8,12.2,17.4h-21.4c0,9.5,5.1,12.4,9.2,12.4c4.4,0,7.1-2.7,7.6-6.9
			l4.9,0.4c-0.8,6.4-5.9,10.9-12.5,10.9C250.7,190.1,245.7,182.6,245.7,173z M267.3,169.5c0.5-5.6-2.7-9.5-7.7-9.5
			c-4.7,0-8.2,3.9-8.8,9.5H267.3z"/>
		<path d="M275.4,173c0-10,5.9-17.1,14.1-17.1c6.6,0,11.7,4.8,12.5,11.8l-4.9,0.9c-0.5-5.2-3.6-8.3-7.6-8.3c-5.2,0-9,4.9-9,12.7
			c0,8,3.7,12.8,8.8,12.8c4.4,0,7.4-2.9,7.8-7.5l4.9,0.5c-0.9,6.8-5.8,11.4-12.7,11.4C281,190.1,275.4,183,275.4,173z"/>
		<path d="M309.1,180.7v-19.8h-6v-4.2h6v-10.1h5.1v10.1h8.6v4.2h-8.6v19.2c0,3.9,1.5,5.7,4,5.7c1.2,0,2.7-0.5,3.9-2.2l0.9,4.4
			c-1.3,1.5-3.7,2.2-5.2,2.2C312.2,190.1,309.1,186.7,309.1,180.7z"/>
		<path d="M325.5,178.1l4.9-0.4c0.3,4.6,3.8,8.3,8.3,8.3c4,0,6.2-2.3,6.2-5.4c0-8.5-18.1-3.5-18.1-15.4c0-5.1,4.4-9.4,10.9-9.4
			c5.9,0,11.1,4.1,11.6,9.7l-4.9,0.3c-0.2-3.3-3.1-6-6.6-6c-3.9,0-5.9,2.3-5.9,5.1c0,8,18.1,2.2,18.1,15.3c0,5.6-4.4,9.8-11.2,9.8
			C331.5,190.1,325.9,185,325.5,178.1z"/>
		<path d="M40.5,246.3v-19.8h-6v-4.2h6v-10.1h5.1v10.1h8.6v4.2h-8.6v19.2c0,3.9,1.5,5.7,4,5.7c1.2,0,2.7-0.5,3.9-2.2l0.9,4.4
			c-1.3,1.5-3.7,2.2-5.2,2.2C43.6,255.7,40.5,252.3,40.5,246.3z"/>
		<path d="M55.9,238.6c0-10.3,5.5-17.1,13.8-17.1c8.4,0,13.9,6.9,13.9,17.1c0,10.3-5.5,17.2-13.9,17.2
			C61.5,255.7,55.9,248.9,55.9,238.6z M69.8,251.4c5.2,0,8.8-4.8,8.8-12.8c0-7.9-3.6-12.8-8.8-12.8c-5.1,0-8.7,4.9-8.7,12.8
			C61.1,246.6,64.6,251.4,69.8,251.4z"/>
		<path d="M97.2,238.6c0-10,5.9-17.1,14.1-17.1c6.6,0,11.7,4.8,12.5,11.8l-4.9,0.9c-0.5-5.2-3.6-8.3-7.6-8.3c-5.2,0-9,4.9-9,12.7
			c0,8,3.7,12.8,8.8,12.8c4.4,0,7.4-2.9,7.8-7.5l4.9,0.5c-0.9,6.8-5.8,11.4-12.7,11.4C102.8,255.7,97.2,248.6,97.2,238.6z"/>
		<path d="M127.8,222.3h5.1v6.6c1.4-4.9,4.9-7.4,8.1-7.4c1.2,0,2.6,0.3,3.8,1l-0.5,4.7c-1.2-0.7-2.6-1-3.8-1
			c-2.3,0-7.6,1.9-7.6,12.6v16.1h-5.1V222.3z"/>
		<path d="M165.8,248.2c-1.4,4.6-5.1,7.6-10.3,7.6c-5.8,0-9.5-3.4-9.5-8.8c0-13.7,19.6-7.9,19.8-15.5c0-2.9-2.4-5.7-7-5.7
			c-4.3,0-7.7,3.3-7.9,7.7l-5.1-0.5c0.7-6.4,6.2-11.4,12.9-11.4c7.5,0,12.2,4.2,12.2,11.4v13.8c0,1.9,0.3,6.2,1.3,8.3h-5.5
			C166.1,253.4,165.9,250.3,165.8,248.2z M156.8,251.6c5.7,0,9-6.8,9-11.4V237c-3.5,3.6-14.6,1.6-14.6,9.6
			C151.2,249.8,153.3,251.6,156.8,251.6z"/>
		<path d="M189.1,206.4c3.7,0,7.7,2.3,8.5,6.4l-4.5,1.8c-0.6-2.3-2.1-3.9-4.2-3.9c-2.3,0-4.5,1.8-4.5,6.2v5.4h9.4v4.2h-9.4v28.4
			h-5.1v-28.4h-5.3v-4.2h5.3v-4.9C179.4,209.5,184,206.4,189.1,206.4z"/>
		<path d="M200.5,246.3v-19.8h-6v-4.2h6v-10.1h5.1v10.1h8.6v4.2h-8.6v19.2c0,3.9,1.5,5.7,4,5.7c1.2,0,2.7-0.5,3.9-2.2l0.9,4.4
			c-1.3,1.5-3.7,2.2-5.2,2.2C203.6,255.7,200.5,252.3,200.5,246.3z"/>
		<path d="M241.7,206.4c3.7,0,7.7,2.3,8.5,6.4l-4.5,1.8c-0.6-2.3-2.1-3.9-4.2-3.9c-2.3,0-4.5,1.8-4.5,6.2v5.4h9.4v4.2H237v28.4h-5.1
			v-28.4h-5.3v-4.2h5.3v-4.9C231.9,209.5,236.6,206.4,241.7,206.4z"/>
		<path d="M249.2,222.3h5.1v6.6c1.4-4.9,4.9-7.4,8.1-7.4c1.2,0,2.6,0.3,3.8,1l-0.5,4.7c-1.2-0.7-2.6-1-3.8-1
			c-2.3,0-7.6,1.9-7.6,12.6v16.1h-5.1V222.3z"/>
		<path d="M266.7,238.6c0-9.7,5.6-17.1,13.9-17.1c9.2,0,14.2,8,12.2,17.4h-21.4c0,9.5,5.1,12.4,9.2,12.4c4.4,0,7.1-2.7,7.6-6.9
			l4.9,0.4c-0.8,6.4-5.9,10.9-12.5,10.9C271.7,255.7,266.7,248.2,266.7,238.6z M288.3,235.2c0.5-5.6-2.7-9.5-7.7-9.5
			c-4.7,0-8.2,3.9-8.8,9.5H288.3z"/>
		<path d="M296.3,243.7l4.9-0.4c0.3,4.6,3.8,8.3,8.3,8.3c4,0,6.2-2.3,6.2-5.4c0-8.5-18.1-3.5-18.1-15.4c0-5.1,4.4-9.4,10.9-9.4
			c5.9,0,11.1,4.1,11.6,9.7l-4.9,0.3c-0.2-3.3-3.1-6-6.6-6c-3.9,0-5.9,2.3-5.9,5.1c0,8,18.1,2.2,18.1,15.3c0,5.6-4.4,9.8-11.2,9.8
			C302.3,255.7,296.7,250.6,296.3,243.7z"/>
		<path d="M338.9,225.8c-4.5,0-8.1,3.9-8.6,10.9v18.2h-5.1v-47.7h5.1v21.3c1.7-4.2,5.5-7,9.6-7c7,0,11.1,4.8,11.1,12.5v20.9H346
			v-20.7C346,229.3,343.2,225.8,338.9,225.8z"/>
		<path d="M83.7,309.3l4.9-0.4c0.3,4.6,3.8,8.3,8.3,8.3c4,0,6.2-2.3,6.2-5.4c0-8.5-18.1-3.5-18.1-15.4c0-5.1,4.4-9.4,10.9-9.4
			c5.9,0,11.1,4.1,11.6,9.7l-4.9,0.3c-0.2-3.3-3.1-6-6.6-6c-3.9,0-5.9,2.3-5.9,5.1c0,8,18.1,2.2,18.1,15.3c0,5.6-4.4,9.8-11.2,9.8
			C89.7,321.4,84.1,316.2,83.7,309.3z"/>
		<path d="M110.8,304.2c0-10.3,5.5-17.1,13.8-17.1c8.4,0,13.9,6.9,13.9,17.1c0,10.3-5.5,17.2-13.9,17.2
			C116.4,321.4,110.8,314.5,110.8,304.2z M124.6,317c5.2,0,8.8-4.8,8.8-12.8c0-7.9-3.6-12.8-8.8-12.8c-5.1,0-8.7,4.9-8.7,12.8
			C115.9,312.2,119.5,317,124.6,317z"/>
		<path d="M143,272.8h5.1v47.7H143V272.8z"/>
		<path d="M166.2,317.1c4.9,0,8.6-4.6,8.6-12.8v0.3l0.1-16.6h5.1l-0.1,32.6h-5.1v-6.2c-1.7,4.2-5.5,7-9.6,7c-7,0-11.1-4.8-11.1-12.5
			v-20.9h5.1v20.7C159.1,313.6,161.9,317.1,166.2,317.1z"/>
		<path d="M189.7,311.9v-19.8h-6v-4.2h6v-10.1h5.1v10.1h8.6v4.2h-8.6v19.2c0,3.9,1.5,5.7,4,5.7c1.2,0,2.7-0.5,3.9-2.2l0.9,4.4
			c-1.3,1.5-3.7,2.2-5.2,2.2C192.8,321.4,189.7,318,189.7,311.9z"/>
		<path d="M207.5,272.8h5.7v6.2h-5.7V272.8z M207.8,287.9h5.1v32.6h-5.1V287.9z"/>
		<path d="M217.3,304.2c0-10.3,5.5-17.1,13.8-17.1c8.4,0,13.9,6.9,13.9,17.1c0,10.3-5.5,17.2-13.9,17.2
			C222.9,321.4,217.3,314.5,217.3,304.2z M231.1,317c5.2,0,8.8-4.8,8.8-12.8c0-7.9-3.6-12.8-8.8-12.8c-5.1,0-8.7,4.9-8.7,12.8
			C222.5,312.2,226,317,231.1,317z"/>
		<path d="M263.1,291.4c-4.9,0-8.6,4.6-8.6,12.8v16.3h-5.1v-32.6h5.1v6.2c1.7-4.2,5.5-7,9.6-7c7,0,11.1,4.8,11.1,12.5v20.9h-5.1
			v-20.7C270.3,294.9,267.4,291.4,263.1,291.4z"/>
		<path d="M279.5,309.3l4.9-0.4c0.3,4.6,3.8,8.3,8.3,8.3c4,0,6.2-2.3,6.2-5.4c0-8.5-18.1-3.5-18.1-15.4c0-5.1,4.4-9.4,10.9-9.4
			c5.9,0,11.1,4.1,11.6,9.7l-4.9,0.3c-0.2-3.3-3.1-6-6.6-6c-3.9,0-5.9,2.3-5.9,5.1c0,8,18.1,2.2,18.1,15.3c0,5.6-4.4,9.8-11.2,9.8
			C285.5,321.4,279.9,316.2,279.5,309.3z"/>
		<path d="M78.5,377.6v-19.8h-6v-4.2h6v-10.1h5.1v10.1h8.6v4.2h-8.6V377c0,3.9,1.5,5.7,4,5.7c1.2,0,2.7-0.5,3.9-2.2l0.9,4.4
			c-1.3,1.5-3.7,2.2-5.2,2.2C81.6,387,78.5,383.6,78.5,377.6z"/>
		<path d="M93.9,369.8c0-10.3,5.5-17.1,13.8-17.1c8.4,0,13.9,6.9,13.9,17.1c0,10.3-5.5,17.2-13.9,17.2
			C99.5,387,93.9,380.2,93.9,369.8z M107.7,382.6c5.2,0,8.8-4.8,8.8-12.8c0-7.9-3.6-12.8-8.8-12.8c-5.1,0-8.7,4.9-8.7,12.8
			C99.1,377.8,102.6,382.6,107.7,382.6z"/>
		<path d="M135.2,369.8c0-10,5.9-17.1,14.1-17.1c6.6,0,11.7,4.8,12.5,11.8l-4.9,0.9c-0.5-5.2-3.6-8.3-7.6-8.3c-5.2,0-9,4.9-9,12.7
			c0,8,3.7,12.8,8.8,12.8c4.4,0,7.4-2.9,7.8-7.5l4.9,0.5c-0.9,6.8-5.8,11.4-12.7,11.4C140.8,387,135.2,379.9,135.2,369.8z"/>
		<path d="M165.9,338.5h5.1v47.7h-5.1V338.5z"/>
		<path d="M176.9,338.5h5.7v6.2h-5.7V338.5z M177.2,353.6h5.1v32.6h-5.1V353.6z"/>
		<path d="M201.8,357.1c-4.9,0-8.3,4.9-8.3,12.5v16.5h-5.1v-32.6h5.1v6.2c1.6-4,5.5-7,9.7-7c5.1,0,8.4,2.9,9.7,7.7
			c1.4-4.4,5.6-7.7,10.5-7.7c6.3,0,10.3,4.6,10.3,12v21.5h-5.1v-20.9c0-4.9-2.5-8.2-6.6-8.2c-5,0-8.4,4.9-8.4,11.4v17.6h-5.1v-20.4
			C208.6,360.5,206,357.1,201.8,357.1z"/>
		<path d="M258.1,379.4c-1.4,4.6-5.1,7.6-10.3,7.6c-5.8,0-9.5-3.4-9.5-8.8c0-13.7,19.6-7.9,19.8-15.5c0-2.9-2.4-5.7-7-5.7
			c-4.3,0-7.7,3.3-7.9,7.7l-5.1-0.5c0.7-6.4,6.2-11.3,12.9-11.3c7.5,0,12.2,4.2,12.2,11.3v13.8c0,1.9,0.3,6.2,1.3,8.3h-5.5
			C258.4,384.7,258.1,381.5,258.1,379.4z M249.1,382.8c5.7,0,9-6.8,9-11.4v-3.1c-3.5,3.6-14.6,1.6-14.6,9.6
			C243.4,381.1,245.6,382.8,249.1,382.8z"/>
		<path d="M272.2,377.6v-19.8h-6v-4.2h6v-10.1h5.1v10.1h8.6v4.2h-8.6V377c0,3.9,1.5,5.7,4,5.7c1.2,0,2.7-0.5,3.9-2.2l0.9,4.4
			c-1.3,1.5-3.7,2.2-5.2,2.2C275.2,387,272.2,383.6,272.2,377.6z"/>
		<path d="M287.6,369.8c0-9.7,5.6-17.1,13.9-17.1c9.2,0,14.2,8,12.2,17.4h-21.4c0,9.5,5.1,12.4,9.2,12.4c4.4,0,7.1-2.7,7.6-6.9
			l4.9,0.4c-0.8,6.4-5.9,10.9-12.5,10.9C292.6,387,287.6,379.5,287.6,369.8z M309.2,366.4c0.5-5.6-2.7-9.5-7.7-9.5
			c-4.7,0-8.2,3.9-8.8,9.5H309.2z"/>
		<path d="M104.5,435.5c0-10,5.9-17.1,14.1-17.1c6.6,0,11.7,4.8,12.5,11.8l-4.9,0.9c-0.5-5.2-3.6-8.3-7.6-8.3c-5.2,0-9,4.9-9,12.7
			c0,8,3.7,12.8,8.8,12.8c4.4,0,7.4-2.9,7.8-7.5l4.9,0.5c-0.9,6.8-5.8,11.4-12.7,11.4C110.1,452.6,104.5,445.5,104.5,435.5z"/>
		<path d="M148.9,422.7c-4.5,0-8.1,3.9-8.6,10.9v18.2h-5.1v-47.7h5.1v21.3c1.7-4.2,5.5-7,9.6-7c7,0,11.1,4.8,11.1,12.5v20.9H156
			v-20.7C156,426.2,153.2,422.7,148.9,422.7z"/>
		<path d="M185.4,445c-1.4,4.6-5.1,7.6-10.3,7.6c-5.8,0-9.5-3.4-9.5-8.8c0-13.7,19.6-7.9,19.8-15.5c0-2.9-2.4-5.7-7-5.7
			c-4.3,0-7.7,3.3-7.9,7.7l-5.1-0.5c0.7-6.4,6.2-11.3,12.9-11.3c7.5,0,12.2,4.2,12.2,11.3v13.8c0,1.9,0.3,6.2,1.3,8.3h-5.5
			C185.6,450.3,185.4,447.2,185.4,445z M176.3,448.5c5.7,0,9-6.8,9-11.4v-3.1c-3.5,3.6-14.6,1.6-14.6,9.6
			C170.7,446.7,172.9,448.5,176.3,448.5z"/>
		<path d="M210.1,422.7c-4.9,0-8.6,4.6-8.6,12.8v16.3h-5.1v-32.6h5.1v6.2c1.7-4.2,5.5-7,9.6-7c7,0,11.1,4.8,11.1,12.5v20.9h-5.1
			v-20.7C217.2,426.2,214.4,422.7,210.1,422.7z"/>
		<path d="M225.9,455.4c0-3.4,1.8-5.9,3.7-7.4c-1.1-1.3-1.7-2.9-1.7-4.4c0-2.3,1.4-4.2,2.6-5.3c-2.3-2-3.7-4.9-3.7-8.5
			c0-6.8,4.9-11.5,12-11.5c3,0,5.6,0.9,7.7,2.4c1.7-1.7,3.7-3,6.1-3.8l1.9,3.8c-1.7,0.5-3.8,1.4-5.5,2.7c1.2,1.8,1.8,4,1.8,6.4
			c0,6.8-4.9,11.4-12,11.4c-1.8,0-3.6-0.3-5.1-1c-0.5,0.6-1,1.4-1,2.4c0,2.2,1.4,3.6,3.6,3.6c2.9,0,3.9-0.5,7.3-0.5
			c5.9,0,9.4,3.6,9.4,8.8c0,6.4-5.3,10.3-13.7,10.3C231.2,464.8,225.9,461.2,225.9,455.4z M239.3,460.8c5.4,0,8.7-2.3,8.7-6.1
			c0-2.6-1.7-4.6-5.2-4.6c-2.9,0-4.3,0.5-7.2,0.5c-1.1,0-2.1-0.2-3-0.5c-1.2,1.2-2,2.7-2,4.7C230.6,458.6,234,460.8,239.3,460.8z
			 M238.8,437.4c4.2,0,6.9-3.1,6.9-7.6c0-4.4-2.7-7.5-6.9-7.5c-4.2,0-7,3.1-7,7.5C231.8,434.2,234.5,437.4,238.8,437.4z"/>
		<path d="M254.7,435.5c0-9.7,5.6-17.1,13.9-17.1c9.2,0,14.2,8,12.2,17.4h-21.4c0,9.5,5.1,12.4,9.2,12.4c4.4,0,7.1-2.7,7.6-6.9
			l4.9,0.4c-0.8,6.4-5.9,10.9-12.5,10.9C259.7,452.6,254.7,445.1,254.7,435.5z M276.3,432c0.5-5.6-2.7-9.5-7.7-9.5
			c-4.7,0-8.2,3.9-8.8,9.5H276.3z"/>
		<path d="M285.5,445.3h6.6v6.5h-6.6V445.3z"/>
	</g>
	<g>
		<path d="M0.7,139.5c53.1,0,106.2-3,159.3-6.1c26.3-1.5,52.6-3.2,78.9-4c26.6-0.8,53.2-0.8,79.8-0.8c14.8,0,29.7-0.3,44.5,0.5
			c7.4,0.4,14.7,0.9,22.1,0.7c3.7-0.1,7.2-0.7,10.8-1.1c1.9-0.2,4.5,0.5,6-1.2c0.4-0.4,0.2-1.1-0.3-1.3c-1.8-0.6-3.4-1.5-5.3-1.4
			c-1,0.1-1,1.6,0,1.5c1.8-0.1,3.3,0.8,4.9,1.3c-0.1-0.4-0.2-0.8-0.3-1.3c-0.9,1-2.2,0.5-3.3,0.6c-1.3,0-2.7,0.3-4,0.5
			c-3.6,0.5-7.1,0.8-10.7,0.8c-6.6,0.1-13.2-0.3-19.7-0.7c-13-0.7-26-0.6-38.9-0.5c-26.1,0-52.1,0-78.2,0.6
			c-52.4,1.2-104.7,5.6-157.1,7.9C59.6,137,30.2,138,0.7,138C-0.2,138-0.2,139.5,0.7,139.5L0.7,139.5z"/>
	</g>
	<g>
		<path d="M188.7,123.9c-17.5,9.6-32.9,23.4-45.1,39.2c-5.8,7.5-11.2,16.6-11.1,26.4c0.1,7.7,3.8,14.5,9.8,19.1
			c5.7,4.4,12.8,6.9,19.8,8.6c7.7,1.9,15.6,2.8,23.4,3.6c22.6,2.4,45.5,3,68.2,0.8c11.1-1.1,22.3-2.7,33.1-5.4
			c10.6-2.6,21-6.3,30.9-10.9c8.8-4.1,16.6-9.6,23.4-16.5c6.5-6.5,12.9-13.9,15.7-22.8c2.6-8.5,1.8-18.2-2.9-25.8
			c-4.9-8-13.1-13-21.8-16c-4.6-1.6-9.2-2.7-13.9-3.7c-5.5-1.2-11-2.2-16.6-2.7c-11.3-1.1-22.6-0.6-33.8,1.2
			c-20.7,3.3-40.9,8.9-60.4,16.5c-19.3,7.4-37.8,16.7-55.6,27.1c-4.4,2.6-8.8,5.3-13.1,8c-0.8,0.5-0.1,1.8,0.8,1.3
			c17-10.8,34.7-20.6,53.2-28.7c18.5-8.2,37.7-14.7,57.3-19.2c10.3-2.3,20.8-4.4,31.3-5c11.2-0.7,22.5,0.1,33.6,2.4
			c9.2,1.9,18.8,4,26.8,8.9c7.7,4.7,13.4,12.2,14.8,21.2c1.5,9.4-1.7,18.3-7.2,25.9c-5.5,7.5-12.4,14.4-20,19.7
			c-8.3,5.9-17.9,9.9-27.5,13.2c-10.1,3.5-20.5,6-31.1,7.7c-21.9,3.5-44.3,4.2-66.4,2.9c-10.1-0.6-20.1-1.5-30.1-3
			c-6.9-1-13.8-2.4-20.4-4.8c-6.4-2.4-12.7-6.1-16.4-12c-5-8-3.8-17.7,0.2-25.8c4.3-8.8,11-16.3,17.7-23.3
			c6.7-7.1,14.1-13.6,22.1-19.2c3.9-2.7,7.9-5.2,12.1-7.5C190.4,124.8,189.6,123.5,188.7,123.9L188.7,123.9z"/>
	</g>
	<g>
		<path d="M289.2,458.1c-1.9,0.2-3.5-0.9-5.1-1.8c-1.5-0.9-3.2-1.7-4.8-2.3c-2.9-1.1-6.2-1.6-9.3-1.1c-5.6,1-9.9,5.1-14,8.8
			c-3.8,3.5-9.5,9.3-15.2,7.3c-2.6-1-4.6-3.3-6.4-5.2c-2.3-2.3-4.7-4.5-7.6-6.1c-2.8-1.5-5.9-2.6-9.1-2.7c-3.4-0.1-6.2,1.1-9,3
			c-1.4,1-2.8,2-4.5,2.5c-1.8,0.5-3.4-0.4-5-1.2c-2.9-1.6-5.9-3-9.1-4.1c-3.1-1.1-6.5-1.8-9.8-1.4c-3.7,0.5-6.8,2.9-9.9,4.9
			c-2.7,1.7-6.4,4.6-9.7,3.5c-1.8-0.6-3.5-1.8-5.2-2.7c-1.5-0.9-3.1-1.7-4.8-2.2c-3.1-1.1-6.5-1.4-9.7-0.6c-3.8,0.9-7.1,3-10.6,4.6
			c-2,0.9-4,1.3-6.1,1.7c-2,0.4-4,0.9-5.9,1.4c-2,0.5-4,1.1-5.9,1.8c-1.6,0.6-3.4,1.2-4.8,2.2c-1,0.7-1.7,2.5-3,2.6
			c-0.9,0.1-1,1.6,0,1.5c1.3-0.1,2-0.7,2.7-1.7c1.2-1.6,3-2.2,4.8-2.9c3.7-1.4,7.7-2.5,11.6-3.2c2-0.4,4-0.7,5.9-1.4
			c1.8-0.7,3.6-1.6,5.3-2.5c3.3-1.6,6.8-3.1,10.5-2.9c4,0.3,7.3,1.9,10.7,3.9c2.7,1.6,5.3,3.1,8.5,1.9c3.6-1.3,6.7-3.7,9.9-5.8
			c1.7-1,3.3-2,5.3-2.4c1.8-0.3,3.7-0.2,5.5,0.1c3.5,0.6,6.7,2.1,9.9,3.5c2.7,1.2,5.4,3.7,8.5,3.2c3.2-0.6,5.5-3.2,8.4-4.5
			c3.3-1.5,7-1.3,10.3-0.1c3.3,1.1,6.3,3.1,8.8,5.5c2.1,2,3.9,4.2,6.3,5.9c2,1.5,4.4,2.2,6.9,1.8c2.9-0.5,5.5-2.2,7.7-3.9
			c4.5-3.5,8.3-8.1,13.4-10.8c2.6-1.4,5.5-2,8.5-1.7c3.8,0.4,7.1,2.3,10.4,4.1c1.4,0.8,2.8,1.4,4.4,1.2
			C290.2,459.5,290.2,458,289.2,458.1L289.2,458.1z"/>
	</g>
	<g>
		<path d="M124.5,404.6c6.1-6.9,11.4-14.5,18.2-20.7c3-2.7,5.9-5.7,10.3-5.3c3.6,0.3,5.7,3.7,7.3,6.6c3.2,5.5,5.9,12.5,12.2,15.1
			c7.7,3.2,15-2.1,20.6-6.8c5.2-4.4,13-13.2,20.5-8.2c5.9,4,9.8,10.5,16.3,13.9c3,1.6,6.3,2.5,9.6,1.5c3.3-1,6.1-3.4,8.6-5.7
			c2.4-2.3,4.6-5.5,7.6-7.1c3.3-1.8,7.3-1.6,10.8-1c8.2,1.5,15.2,6.5,23.5,7.7c4.5,0.6,9.1,0.2,13.5-1c3.9-1.2,7.2-3.3,10.4-5.8
			c1.7-1.3,3.6-2.5,5.8-2.7c1-0.1,1-1.6,0-1.5c-4.2,0.4-7.1,3.6-10.5,5.7c-3.9,2.4-8.3,3.7-12.9,4c-4.8,0.4-9.5-0.6-14-2.4
			c-3.8-1.5-7.5-3.3-11.4-4.5c-3.4-1-7-1.8-10.6-1.4c-3.5,0.3-6.4,1.7-8.8,4.2c-4.6,4.8-10.3,12.2-17.9,10
			c-7.2-2.1-11.6-9-17.2-13.6c-2.8-2.4-5.9-3.9-9.7-3.1c-3.8,0.8-7,3.3-9.8,5.7c-5.7,4.8-12.2,12.1-20.4,11.6
			c-7.9-0.5-11.2-8.6-14.5-14.6c-1.5-2.7-3.3-5.9-6.3-7.3c-3.1-1.5-7-0.7-9.7,1.2c-1.5,1.1-2.9,2.4-4.3,3.7
			c-1.7,1.5-3.3,3.2-4.9,4.8c-3.2,3.4-6.1,7.1-9,10.7c-1.5,1.8-2.9,3.5-4.5,5.3C122.8,404.3,123.8,405.3,124.5,404.6L124.5,404.6z"
			/>
	</g>
</g>
</svg>
