<?xml version="1.0" encoding="utf-8"?>
<!-- Generator: Adobe Illustrator 26.0.3, SVG Export Plug-In . SVG Version: 6.00 Build 0)  -->
<svg version="1.2" baseProfile="tiny" id="Layer_1" xmlns="http://www.w3.org/2000/svg" xmlns:xlink="http://www.w3.org/1999/xlink"
	 x="0px" y="0px" viewBox="0 0 507.6 348" overflow="visible" xml:space="preserve">
<g>
	<g>
		<path d="M108,34.2c0-14.4,7.9-24.7,19.1-24.7c9.3,0,16.3,5.9,17.4,17.9l-5.5,0.8c-0.4-9.5-5.6-14.1-11.9-14.1
			c-7.9,0-13.5,8.3-13.5,20.1c0,11.8,5.6,20,13.9,20c6.5,0,11.3-5.7,11.6-13.5l5.5,0.4c-0.6,10.5-7.2,17.8-17,17.8
			C115.9,58.9,108,48.5,108,34.2z"/>
		<path d="M147.3,41.7c0-10.3,5.5-17.1,13.8-17.1c8.4,0,13.9,6.9,13.9,17.1c0,10.3-5.5,17.2-13.9,17.2
			C152.8,58.9,147.3,52,147.3,41.7z M161.1,54.5c5.2,0,8.8-4.8,8.8-12.8c0-7.9-3.6-12.8-8.8-12.8c-5.1,0-8.7,4.9-8.7,12.8
			C152.4,49.7,156,54.5,161.1,54.5z"/>
		<path d="M193.1,28.9c-4.9,0-8.6,4.6-8.6,12.8V58h-5.1V25.4h5.1v6.2c1.7-4.2,5.5-7,9.6-7c7,0,11.1,4.8,11.1,12.5V58h-5.1V37.3
			C200.2,32.4,197.4,28.9,193.1,28.9z"/>
		<path d="M224.8,28.9c-4.9,0-8.6,4.6-8.6,12.8V58h-5.1V25.4h5.1v6.2c1.7-4.2,5.5-7,9.6-7c7,0,11.1,4.8,11.1,12.5V58h-5.1V37.3
			C231.9,32.4,229.1,28.9,224.8,28.9z"/>
		<path d="M241.2,41.7c0-9.7,5.6-17.1,13.9-17.1c9.2,0,14.2,8,12.2,17.4H246c0,9.5,5.1,12.4,9.2,12.4c4.4,0,7.1-2.7,7.6-6.9l4.9,0.4
			c-0.8,6.4-5.9,10.9-12.5,10.9C246.2,58.9,241.2,51.3,241.2,41.7z M262.8,38.3c0.5-5.6-2.7-9.5-7.7-9.5c-4.7,0-8.2,3.9-8.8,9.5
			H262.8z"/>
		<path d="M270.9,41.7c0-10,5.9-17.1,14.1-17.1c6.6,0,11.7,4.8,12.5,11.8l-4.9,0.9c-0.5-5.2-3.6-8.3-7.6-8.3c-5.2,0-9,4.9-9,12.7
			c0,8,3.7,12.8,8.8,12.8c4.4,0,7.4-2.9,7.8-7.5l4.9,0.5c-0.9,6.8-5.8,11.4-12.7,11.4C276.5,58.9,270.9,51.8,270.9,41.7z"/>
		<path d="M304.6,49.4V29.6h-6v-4.2h6V15.4h5.1v10.1h8.6v4.2h-8.6v19.2c0,3.9,1.5,5.7,4,5.7c1.2,0,2.7-0.5,3.9-2.2l0.9,4.4
			c-1.3,1.5-3.7,2.2-5.2,2.2C307.7,58.9,304.6,55.4,304.6,49.4z"/>
		<path d="M322.4,10.3h5.7v6.2h-5.7V10.3z M322.7,25.4h5.1V58h-5.1V25.4z"/>
		<path d="M347.6,28.9c-4.9,0-8.6,4.6-8.6,12.8V58h-5.1V25.4h5.1v6.2c1.7-4.2,5.5-7,9.6-7c7,0,11.1,4.8,11.1,12.5V58h-5.1V37.3
			C354.7,32.4,351.9,28.9,347.6,28.9z"/>
		<path d="M363.5,61.7c0-3.4,1.8-5.9,3.7-7.4c-1.1-1.3-1.7-2.9-1.7-4.4c0-2.3,1.4-4.2,2.6-5.3c-2.3-2-3.7-4.9-3.7-8.5
			c0-6.8,4.9-11.5,12-11.5c3,0,5.6,0.9,7.7,2.4c1.7-1.7,3.7-3,6.1-3.8L392,27c-1.7,0.5-3.8,1.4-5.5,2.7c1.2,1.8,1.8,4,1.8,6.4
			c0,6.8-4.9,11.4-12,11.4c-1.8,0-3.6-0.3-5.1-1c-0.5,0.6-1,1.4-1,2.4c0,2.2,1.4,3.6,3.6,3.6c2.9,0,3.9-0.5,7.3-0.5
			c5.9,0,9.4,3.6,9.4,8.8c0,6.4-5.3,10.3-13.7,10.3C368.8,71,363.5,67.5,363.5,61.7z M376.9,67.1c5.4,0,8.7-2.3,8.7-6.1
			c0-2.6-1.7-4.6-5.2-4.6c-2.9,0-4.3,0.5-7.2,0.5c-1.1,0-2.1-0.2-3-0.5c-1.2,1.2-2,2.7-2,4.7C368.1,64.9,371.6,67.1,376.9,67.1z
			 M376.3,43.6c4.2,0,6.9-3.1,6.9-7.6c0-4.4-2.7-7.5-6.9-7.5c-4.2,0-7,3.1-7,7.5C369.4,40.5,372.1,43.6,376.3,43.6z"/>
		<path d="M69.2,107.3c0-10,5.9-17.1,14.1-17.1c6.6,0,11.7,4.8,12.5,11.8l-4.9,0.9c-0.5-5.2-3.6-8.3-7.6-8.3c-5.2,0-9,4.9-9,12.7
			c0,8,3.7,12.8,8.8,12.8c4.4,0,7.4-2.9,7.8-7.5l4.9,0.5c-0.9,6.8-5.8,11.4-12.7,11.4C74.8,124.5,69.2,117.4,69.2,107.3z"/>
		<path d="M99.8,91.1h5.1v6.6c1.4-4.9,4.9-7.4,8.1-7.4c1.2,0,2.6,0.3,3.8,1l-0.5,4.7c-1.2-0.7-2.6-1-3.8-1c-2.3,0-7.6,1.9-7.6,12.6
			v16.1h-5.1V91.1z"/>
		<path d="M117.3,107.3c0-9.7,5.6-17.1,13.9-17.1c9.2,0,14.2,8,12.2,17.4h-21.4c0,9.5,5.1,12.4,9.2,12.4c4.4,0,7.1-2.7,7.6-6.9
			l4.9,0.4c-0.8,6.4-5.9,10.9-12.5,10.9C122.3,124.5,117.3,117,117.3,107.3z M138.9,103.9c0.5-5.6-2.7-9.5-7.7-9.5
			c-4.7,0-8.2,3.9-8.8,9.5H138.9z"/>
		<path d="M167,116.9c-1.4,4.6-5.1,7.6-10.3,7.6c-5.8,0-9.5-3.4-9.5-8.8c0-13.7,19.6-7.9,19.8-15.5c0-2.9-2.4-5.7-7-5.7
			c-4.3,0-7.7,3.3-7.9,7.7l-5.1-0.5c0.7-6.4,6.2-11.4,12.9-11.4c7.5,0,12.2,4.2,12.2,11.4v13.8c0,1.9,0.3,6.2,1.3,8.3h-5.5
			C167.3,122.2,167.1,119,167,116.9z M158,120.3c5.7,0,9-6.8,9-11.4v-3.1c-3.5,3.6-14.6,1.6-14.6,9.6
			C152.4,118.5,154.5,120.3,158,120.3z"/>
		<path d="M181.1,115.1V95.2h-6v-4.2h6V81h5.1v10.1h8.6v4.2h-8.6v19.2c0,3.9,1.5,5.7,4,5.7c1.2,0,2.7-0.5,3.9-2.2l0.9,4.4
			c-1.3,1.5-3.7,2.2-5.2,2.2C184.2,124.5,181.1,121.1,181.1,115.1z"/>
		<path d="M198.8,75.9h5.7v6.2h-5.7V75.9z M199.2,91.1h5.1v32.6h-5.1V91.1z"/>
		<path d="M207.7,91.1h5.1l9,28.1l8.9-28.1h5.1l-10.8,32.6h-6.4L207.7,91.1z"/>
		<path d="M236.9,107.3c0-9.7,5.6-17.1,13.9-17.1c9.2,0,14.2,8,12.2,17.4h-21.4c0,9.5,5.1,12.4,9.2,12.4c4.4,0,7.1-2.7,7.6-6.9
			l4.9,0.4c-0.8,6.4-5.9,10.9-12.5,10.9C241.9,124.5,236.9,117,236.9,107.3z M258.5,103.9c0.5-5.6-2.7-9.5-7.7-9.5
			c-4.7,0-8.2,3.9-8.8,9.5H258.5z"/>
		<path d="M278.9,91.1h5.1v6.1c1.8-4.2,5.5-6.9,9.8-6.9c7.9,0,12.8,6.9,12.8,17.2c0,10.2-4.9,17.1-12.8,17.1c-4.2,0-8-2.7-9.8-6.8
			v18.2h-5.1V91.1z M292.7,120.2c5.3,0,8.8-4.9,8.8-12.8c0-7.9-3.4-12.8-8.8-12.8c-5.2,0-8.7,4.8-8.7,12.8
			C284,115.3,287.5,120.2,292.7,120.2z"/>
		<path d="M309.4,107.3c0-9.7,5.6-17.1,13.9-17.1c9.2,0,14.2,8,12.2,17.4h-21.4c0,9.5,5.1,12.4,9.2,12.4c4.4,0,7.1-2.7,7.6-6.9
			l4.9,0.4c-0.8,6.4-5.9,10.9-12.5,10.9C314.4,124.5,309.4,117,309.4,107.3z M331,103.9c0.5-5.6-2.7-9.5-7.7-9.5
			c-4.7,0-8.2,3.9-8.8,9.5H331z"/>
		<path d="M339.1,107.3c0-10.3,5.5-17.1,13.8-17.1c8.4,0,13.9,6.9,13.9,17.1c0,10.3-5.5,17.2-13.9,17.2
			C344.6,124.5,339.1,117.7,339.1,107.3z M352.9,120.1c5.2,0,8.8-4.8,8.8-12.8c0-7.9-3.6-12.8-8.8-12.8c-5.1,0-8.7,4.9-8.7,12.8
			C344.2,115.3,347.8,120.1,352.9,120.1z"/>
		<path d="M371.2,91.1h5.1v6.1c1.8-4.2,5.5-6.9,9.8-6.9c7.9,0,12.8,6.9,12.8,17.2c0,10.2-4.9,17.1-12.8,17.1c-4.2,0-8-2.7-9.8-6.8
			v18.2h-5.1V91.1z M384.9,120.2c5.3,0,8.8-4.9,8.8-12.8c0-7.9-3.4-12.8-8.8-12.8c-5.2,0-8.7,4.8-8.7,12.8
			C376.3,115.3,379.8,120.2,384.9,120.2z"/>
		<path d="M403.3,75.9h5.1v47.7h-5.1V75.9z"/>
		<path d="M413,107.3c0-9.7,5.6-17.1,13.9-17.1c9.2,0,14.2,8,12.2,17.4h-21.4c0,9.5,5.1,12.4,9.2,12.4c4.4,0,7.1-2.7,7.6-6.9
			l4.9,0.4c-0.8,6.4-5.9,10.9-12.5,10.9C418,124.5,413,117,413,107.3z M434.6,103.9c0.5-5.6-2.7-9.5-7.7-9.5c-4.7,0-8.2,3.9-8.8,9.5
			H434.6z"/>
		<path d="M22.3,182.5c-1.4,4.6-5.1,7.6-10.3,7.6c-5.8,0-9.5-3.4-9.5-8.8c0-13.7,19.6-7.9,19.8-15.5c0-2.9-2.4-5.7-7-5.7
			c-4.3,0-7.7,3.3-7.9,7.7l-5.1-0.5c0.7-6.4,6.2-11.4,12.9-11.4c7.5,0,12.2,4.2,12.2,11.4V181c0,1.9,0.3,6.2,1.3,8.3h-5.5
			C22.6,187.8,22.4,184.6,22.3,182.5z M13.3,185.9c5.7,0,9-6.8,9-11.4v-3.1C18.8,175,7.7,173,7.7,181
			C7.7,184.2,9.8,185.9,13.3,185.9z"/>
		<path d="M47,160.2c-4.9,0-8.6,4.6-8.6,12.8v16.3h-5.1v-32.6h5.1v6.2c1.7-4.2,5.5-7,9.6-7c7,0,11.1,4.8,11.1,12.5v20.9h-5.1v-20.7
			C54.1,163.7,51.3,160.2,47,160.2z"/>
		<path d="M63.2,173c0-10.2,4.9-17.1,12.8-17.1c4.3,0,8.1,2.7,9.8,7v-21.3h5.1v47.7h-5.1V183c-1.8,4.3-5.5,7.1-9.8,7.1
			C68.1,190.1,63.2,183.2,63.2,173z M77.1,185.7c5.2,0,8.7-4.8,8.7-12.8c0-7.9-3.5-12.8-8.7-12.8c-5.3,0-8.8,4.9-8.8,12.8
			C68.4,180.9,71.8,185.7,77.1,185.7z"/>
		<path d="M108,156.7h5.1v6.1c1.8-4.2,5.5-6.9,9.8-6.9c7.9,0,12.8,6.9,12.8,17.2c0,10.2-4.9,17.1-12.8,17.1c-4.2,0-8-2.7-9.8-6.8
			v18.2H108V156.7z M121.7,185.8c5.3,0,8.8-4.9,8.8-12.8c0-7.9-3.4-12.8-8.8-12.8c-5.2,0-8.7,4.8-8.7,12.8
			C113,181,116.5,185.8,121.7,185.8z"/>
		<path d="M140,156.7h5.1v6.6c1.4-4.9,4.9-7.4,8.1-7.4c1.2,0,2.6,0.3,3.8,1l-0.5,4.7c-1.2-0.7-2.6-1-3.8-1c-2.3,0-7.6,1.9-7.6,12.6
			v16.1H140V156.7z"/>
		<path d="M157.5,173c0-10.3,5.5-17.1,13.8-17.1c8.4,0,13.9,6.9,13.9,17.1c0,10.3-5.5,17.2-13.9,17.2
			C163.1,190.1,157.5,183.3,157.5,173z M171.3,185.7c5.2,0,8.8-4.8,8.8-12.8c0-7.9-3.6-12.8-8.8-12.8c-5.1,0-8.7,4.9-8.7,12.8
			C162.6,181,166.2,185.7,171.3,185.7z"/>
		<path d="M194.8,156.7v35.2c0,6.8-3.8,10.4-8.7,10.4h-1l-0.4-4.6c0.3,0.1,0.6,0.1,0.8,0.1c2.5,0,4.2-2.3,4.2-6.6v-34.5H194.8z
			 M189.4,141.6h5.7v6.2h-5.7V141.6z"/>
		<path d="M199.4,173c0-9.7,5.6-17.1,13.9-17.1c9.2,0,14.2,8,12.2,17.4h-21.4c0,9.5,5.1,12.4,9.2,12.4c4.4,0,7.1-2.7,7.6-6.9
			l4.9,0.4c-0.8,6.4-5.9,10.9-12.5,10.9C204.4,190.1,199.4,182.6,199.4,173z M221,169.5c0.5-5.6-2.7-9.5-7.7-9.5
			c-4.7,0-8.2,3.9-8.8,9.5H221z"/>
		<path d="M229,173c0-10,5.9-17.1,14.1-17.1c6.6,0,11.7,4.8,12.5,11.8l-4.9,0.9c-0.5-5.2-3.6-8.3-7.6-8.3c-5.2,0-9,4.9-9,12.7
			c0,8,3.7,12.8,8.8,12.8c4.4,0,7.4-2.9,7.8-7.5l4.9,0.5c-0.9,6.8-5.8,11.4-12.7,11.4C234.6,190.1,229,183,229,173z"/>
		<path d="M262.7,180.7v-19.8h-6v-4.2h6v-10.1h5.1v10.1h8.6v4.2h-8.6v19.2c0,3.9,1.5,5.7,4,5.7c1.2,0,2.7-0.5,3.9-2.2l0.9,4.4
			c-1.3,1.5-3.7,2.2-5.2,2.2C265.8,190.1,262.7,186.7,262.7,180.7z"/>
		<path d="M279.1,178.1l4.9-0.4c0.3,4.6,3.8,8.3,8.3,8.3c4,0,6.2-2.3,6.2-5.4c0-8.5-18.1-3.5-18.1-15.4c0-5.1,4.4-9.4,10.9-9.4
			c5.9,0,11.1,4.1,11.6,9.7l-4.9,0.3c-0.2-3.3-3.1-6-6.6-6c-3.9,0-5.9,2.3-5.9,5.1c0,8,18.1,2.2,18.1,15.3c0,5.6-4.4,9.8-11.2,9.8
			C285.2,190.1,279.6,185,279.1,178.1z"/>
		<path d="M322.4,180.7v-19.8h-6v-4.2h6v-10.1h5.1v10.1h8.6v4.2h-8.6v19.2c0,3.9,1.5,5.7,4,5.7c1.2,0,2.7-0.5,3.9-2.2l0.9,4.4
			c-1.3,1.5-3.7,2.2-5.2,2.2C325.5,190.1,322.4,186.7,322.4,180.7z"/>
		<path d="M337.9,173c0-10.3,5.5-17.1,13.8-17.1c8.4,0,13.9,6.9,13.9,17.1c0,10.3-5.5,17.2-13.9,17.2
			C343.4,190.1,337.9,183.3,337.9,173z M351.7,185.7c5.2,0,8.8-4.8,8.8-12.8c0-7.9-3.6-12.8-8.8-12.8c-5.1,0-8.7,4.9-8.7,12.8
			C343,181,346.6,185.7,351.7,185.7z"/>
		<path d="M379.1,173c0-10,5.9-17.1,14.1-17.1c6.6,0,11.7,4.8,12.5,11.8l-4.9,0.9c-0.5-5.2-3.6-8.3-7.6-8.3c-5.2,0-9,4.9-9,12.7
			c0,8,3.7,12.8,8.8,12.8c4.4,0,7.4-2.9,7.8-7.5l4.9,0.5c-0.9,6.8-5.8,11.4-12.7,11.4C384.7,190.1,379.1,183,379.1,173z"/>
		<path d="M409.7,156.7h5.1v6.6c1.4-4.9,4.9-7.4,8.1-7.4c1.2,0,2.6,0.3,3.8,1l-0.5,4.7c-1.2-0.7-2.6-1-3.8-1
			c-2.3,0-7.6,1.9-7.6,12.6v16.1h-5.1V156.7z"/>
		<path d="M447.7,182.5c-1.4,4.6-5.1,7.6-10.3,7.6c-5.8,0-9.5-3.4-9.5-8.8c0-13.7,19.6-7.9,19.8-15.5c0-2.9-2.4-5.7-7-5.7
			c-4.3,0-7.7,3.3-7.9,7.7l-5.1-0.5c0.7-6.4,6.2-11.4,12.9-11.4c7.5,0,12.2,4.2,12.2,11.4V181c0,1.9,0.3,6.2,1.3,8.3h-5.5
			C448,187.8,447.8,184.6,447.7,182.5z M438.7,185.9c5.7,0,9-6.8,9-11.4v-3.1c-3.5,3.6-14.6,1.6-14.6,9.6
			C433.1,184.2,435.2,185.9,438.7,185.9z"/>
		<path d="M471.1,140.8c3.7,0,7.7,2.3,8.5,6.4l-4.5,1.8c-0.6-2.3-2.1-3.9-4.2-3.9c-2.3,0-4.5,1.8-4.5,6.2v5.4h9.4v4.2h-9.4v28.4
			h-5.1v-28.4H456v-4.2h5.3v-4.9C461.3,143.8,465.9,140.8,471.1,140.8z"/>
		<path d="M482.4,180.7v-19.8h-6v-4.2h6v-10.1h5.1v10.1h8.6v4.2h-8.6v19.2c0,3.9,1.5,5.7,4,5.7c1.2,0,2.7-0.5,3.9-2.2l0.9,4.4
			c-1.3,1.5-3.7,2.2-5.2,2.2C485.5,190.1,482.4,186.7,482.4,180.7z"/>
		<path d="M83.9,206.4c3.7,0,7.7,2.3,8.5,6.4l-4.5,1.8c-0.6-2.3-2.1-3.9-4.2-3.9c-2.3,0-4.5,1.8-4.5,6.2v5.4h9.4v4.2h-9.4v28.4h-5.1
			v-28.4h-5.3v-4.2h5.3v-4.9C74.1,209.5,78.7,206.4,83.9,206.4z"/>
		<path d="M91.4,222.3h5.1v6.6c1.4-4.9,4.9-7.4,8.1-7.4c1.2,0,2.6,0.3,3.8,1l-0.5,4.7c-1.2-0.7-2.6-1-3.8-1c-2.3,0-7.6,1.9-7.6,12.6
			v16.1h-5.1V222.3z"/>
		<path d="M108.9,238.6c0-9.7,5.6-17.1,13.9-17.1c9.2,0,14.2,8,12.2,17.4h-21.4c0,9.5,5.1,12.4,9.2,12.4c4.4,0,7.1-2.7,7.6-6.9
			l4.9,0.4c-0.8,6.4-5.9,10.9-12.5,10.9C113.9,255.7,108.9,248.2,108.9,238.6z M130.5,235.2c0.5-5.6-2.7-9.5-7.7-9.5
			c-4.7,0-8.2,3.9-8.8,9.5H130.5z"/>
		<path d="M138.4,243.7l4.9-0.4c0.3,4.6,3.8,8.3,8.3,8.3c4,0,6.2-2.3,6.2-5.4c0-8.5-18.1-3.5-18.1-15.4c0-5.1,4.4-9.4,10.9-9.4
			c5.9,0,11.1,4.1,11.6,9.7l-4.9,0.3c-0.2-3.3-3.1-6-6.6-6c-3.9,0-5.9,2.3-5.9,5.1c0,8,18.1,2.2,18.1,15.3c0,5.6-4.4,9.8-11.2,9.8
			C144.4,255.7,138.8,250.6,138.4,243.7z"/>
		<path d="M181,225.8c-4.5,0-8.1,3.9-8.6,10.9v18.2h-5.1v-47.7h5.1v21.3c1.7-4.2,5.5-7,9.6-7c7,0,11.1,4.8,11.1,12.5v20.9h-5.1
			v-20.7C188.1,229.3,185.3,225.8,181,225.8z"/>
		<path d="M208.1,243.7l4.9-0.4c0.3,4.6,3.8,8.3,8.3,8.3c4,0,6.2-2.3,6.2-5.4c0-8.5-18.1-3.5-18.1-15.4c0-5.1,4.4-9.4,10.9-9.4
			c5.9,0,11.1,4.1,11.6,9.7l-4.9,0.3c-0.2-3.3-3.1-6-6.6-6c-3.9,0-5.9,2.3-5.9,5.1c0,8,18.1,2.2,18.1,15.3c0,5.6-4.4,9.8-11.2,9.8
			C214.1,255.7,208.5,250.6,208.1,243.7z"/>
		<path d="M235.2,238.6c0-10.3,5.5-17.1,13.8-17.1c8.4,0,13.9,6.9,13.9,17.1c0,10.3-5.5,17.2-13.9,17.2
			C240.8,255.7,235.2,248.9,235.2,238.6z M249,251.4c5.2,0,8.8-4.8,8.8-12.8c0-7.9-3.6-12.8-8.8-12.8c-5.1,0-8.7,4.9-8.7,12.8
			C240.3,246.6,243.9,251.4,249,251.4z"/>
		<path d="M267.4,207.2h5.1v47.7h-5.1V207.2z"/>
		<path d="M290.6,251.4c4.9,0,8.6-4.6,8.6-12.8v0.3l0.1-16.6h5.1l-0.1,32.6h-5.1v-6.2c-1.7,4.2-5.5,7-9.6,7c-7,0-11.1-4.8-11.1-12.5
			v-20.9h5.1V243C283.5,248,286.3,251.4,290.6,251.4z"/>
		<path d="M314.1,246.3v-19.8h-6v-4.2h6v-10.1h5.1v10.1h8.6v4.2h-8.6v19.2c0,3.9,1.5,5.7,4,5.7c1.2,0,2.7-0.5,3.9-2.2l0.9,4.4
			c-1.3,1.5-3.7,2.2-5.2,2.2C317.2,255.7,314.1,252.3,314.1,246.3z"/>
		<path d="M331.9,207.2h5.7v6.2h-5.7V207.2z M332.2,222.3h5.1v32.6h-5.1V222.3z"/>
		<path d="M341.7,238.6c0-10.3,5.5-17.1,13.8-17.1c8.4,0,13.9,6.9,13.9,17.1c0,10.3-5.5,17.2-13.9,17.2
			C347.3,255.7,341.7,248.9,341.7,238.6z M355.5,251.4c5.2,0,8.8-4.8,8.8-12.8c0-7.9-3.6-12.8-8.8-12.8c-5.1,0-8.7,4.9-8.7,12.8
			C346.9,246.6,350.4,251.4,355.5,251.4z"/>
		<path d="M387.5,225.8c-4.9,0-8.6,4.6-8.6,12.8v16.3h-5.1v-32.6h5.1v6.2c1.7-4.2,5.5-7,9.6-7c7,0,11.1,4.8,11.1,12.5v20.9h-5.1
			v-20.7C394.7,229.3,391.9,225.8,387.5,225.8z"/>
		<path d="M403.9,243.7l4.9-0.4c0.3,4.6,3.8,8.3,8.3,8.3c4,0,6.2-2.3,6.2-5.4c0-8.5-18.1-3.5-18.1-15.4c0-5.1,4.4-9.4,10.9-9.4
			c5.9,0,11.1,4.1,11.6,9.7l-4.9,0.3c-0.2-3.3-3.1-6-6.6-6c-3.9,0-5.9,2.3-5.9,5.1c0,8,18.1,2.2,18.1,15.3c0,5.6-4.4,9.8-11.2,9.8
			C409.9,255.7,404.3,250.6,403.9,243.7z"/>
		<path d="M37.7,311.9v-19.8h-6v-4.2h6v-10.1h5.1v10.1h8.6v4.2h-8.6v19.2c0,3.9,1.5,5.7,4,5.7c1.2,0,2.7-0.5,3.9-2.2l0.9,4.4
			c-1.3,1.5-3.7,2.2-5.2,2.2C40.8,321.4,37.7,318,37.7,311.9z"/>
		<path d="M53.2,304.2c0-10.3,5.5-17.1,13.8-17.1c8.4,0,13.9,6.9,13.9,17.1c0,10.3-5.5,17.2-13.9,17.2
			C58.7,321.4,53.2,314.5,53.2,304.2z M67,317c5.2,0,8.8-4.8,8.8-12.8c0-7.9-3.6-12.8-8.8-12.8c-5.1,0-8.7,4.9-8.7,12.8
			C58.3,312.2,61.8,317,67,317z"/>
		<path d="M94.4,304.2c0-10,5.9-17.1,14.1-17.1c6.6,0,11.7,4.8,12.5,11.8l-4.9,0.9c-0.5-5.2-3.6-8.3-7.6-8.3c-5.2,0-9,4.9-9,12.7
			c0,8,3.7,12.8,8.8,12.8c4.4,0,7.4-2.9,7.8-7.5l4.9,0.5c-0.9,6.8-5.8,11.4-12.7,11.4C100,321.4,94.4,314.3,94.4,304.2z"/>
		<path d="M125.1,272.8h5.1v47.7h-5.1V272.8z"/>
		<path d="M136.1,272.8h5.7v6.2h-5.7V272.8z M136.4,287.9h5.1v32.6h-5.1V287.9z"/>
		<path d="M161,291.5c-4.9,0-8.3,4.9-8.3,12.5v16.5h-5.1v-32.6h5.1v6.2c1.6-4,5.5-7,9.7-7c5.1,0,8.4,2.9,9.7,7.7
			c1.4-4.4,5.6-7.7,10.5-7.7c6.3,0,10.3,4.6,10.3,12v21.5h-5.1v-20.9c0-4.9-2.5-8.2-6.6-8.2c-5,0-8.4,4.9-8.4,11.4v17.6h-5.1v-20.4
			C167.8,294.9,165.2,291.5,161,291.5z"/>
		<path d="M217.3,313.8c-1.4,4.6-5.1,7.6-10.3,7.6c-5.8,0-9.5-3.4-9.5-8.8c0-13.7,19.6-7.9,19.8-15.5c0-2.9-2.4-5.7-7-5.7
			c-4.3,0-7.7,3.3-7.9,7.7l-5.1-0.5c0.7-6.4,6.2-11.3,12.9-11.3c7.5,0,12.2,4.2,12.2,11.3v13.8c0,1.9,0.3,6.2,1.3,8.3h-5.5
			C217.6,319,217.4,315.9,217.3,313.8z M208.3,317.2c5.7,0,9-6.8,9-11.4v-3.1c-3.5,3.6-14.6,1.6-14.6,9.6
			C202.7,315.4,204.8,317.2,208.3,317.2z"/>
		<path d="M231.4,311.9v-19.8h-6v-4.2h6v-10.1h5.1v10.1h8.6v4.2h-8.6v19.2c0,3.9,1.5,5.7,4,5.7c1.2,0,2.7-0.5,3.9-2.2l0.9,4.4
			c-1.3,1.5-3.7,2.2-5.2,2.2C234.5,321.4,231.4,318,231.4,311.9z"/>
		<path d="M246.8,304.2c0-9.7,5.6-17.1,13.9-17.1c9.2,0,14.2,8,12.2,17.4h-21.4c0,9.5,5.1,12.4,9.2,12.4c4.4,0,7.1-2.7,7.6-6.9
			l4.9,0.4c-0.8,6.4-5.9,10.9-12.5,10.9C251.8,321.4,246.8,313.9,246.8,304.2z M268.4,300.8c0.5-5.6-2.7-9.5-7.7-9.5
			c-4.7,0-8.2,3.9-8.8,9.5H268.4z"/>
		<path d="M287.2,304.2c0-10,5.9-17.1,14.1-17.1c6.6,0,11.7,4.8,12.5,11.8l-4.9,0.9c-0.5-5.2-3.6-8.3-7.6-8.3c-5.2,0-9,4.9-9,12.7
			c0,8,3.7,12.8,8.8,12.8c4.4,0,7.4-2.9,7.8-7.5l4.9,0.5c-0.9,6.8-5.8,11.4-12.7,11.4C292.8,321.4,287.2,314.3,287.2,304.2z"/>
		<path d="M331.6,291.4c-4.5,0-8.1,3.9-8.6,10.9v18.2h-5.1v-47.7h5.1v21.3c1.7-4.2,5.5-7,9.6-7c7,0,11.1,4.8,11.1,12.5v20.9h-5.1
			v-20.7C338.7,294.9,335.9,291.4,331.6,291.4z"/>
		<path d="M368.1,313.8c-1.4,4.6-5.1,7.6-10.3,7.6c-5.8,0-9.5-3.4-9.5-8.8c0-13.7,19.6-7.9,19.8-15.5c0-2.9-2.4-5.7-7-5.7
			c-4.3,0-7.7,3.3-7.9,7.7l-5.1-0.5c0.7-6.4,6.2-11.3,12.9-11.3c7.5,0,12.2,4.2,12.2,11.3v13.8c0,1.9,0.3,6.2,1.3,8.3h-5.5
			C368.3,319,368.1,315.9,368.1,313.8z M359,317.2c5.7,0,9-6.8,9-11.4v-3.1c-3.5,3.6-14.6,1.6-14.6,9.6
			C353.4,315.4,355.5,317.2,359,317.2z"/>
		<path d="M392.7,291.4c-4.9,0-8.6,4.6-8.6,12.8v16.3h-5.1v-32.6h5.1v6.2c1.7-4.2,5.5-7,9.6-7c7,0,11.1,4.8,11.1,12.5v20.9h-5.1
			v-20.7C399.9,294.9,397,291.4,392.7,291.4z"/>
		<path d="M408.6,324.2c0-3.4,1.8-5.9,3.7-7.4c-1.1-1.3-1.7-2.9-1.7-4.4c0-2.3,1.4-4.2,2.6-5.3c-2.3-2-3.7-4.9-3.7-8.5
			c0-6.8,4.9-11.5,12-11.5c3,0,5.6,0.9,7.7,2.4c1.7-1.7,3.7-3,6.1-3.8l1.9,3.8c-1.7,0.5-3.8,1.4-5.5,2.7c1.2,1.8,1.8,4,1.8,6.4
			c0,6.8-4.9,11.4-12,11.4c-1.8,0-3.6-0.3-5.1-1c-0.5,0.6-1,1.4-1,2.4c0,2.2,1.4,3.6,3.6,3.6c2.9,0,3.9-0.5,7.3-0.5
			c5.9,0,9.4,3.6,9.4,8.8c0,6.4-5.3,10.3-13.7,10.3C413.9,333.5,408.6,330,408.6,324.2z M422,329.6c5.4,0,8.7-2.3,8.7-6.1
			c0-2.6-1.7-4.6-5.2-4.6c-2.9,0-4.3,0.5-7.2,0.5c-1.1,0-2.1-0.2-3-0.5c-1.2,1.2-2,2.7-2,4.7C413.3,327.4,416.7,329.6,422,329.6z
			 M421.5,306.1c4.2,0,6.9-3.1,6.9-7.6c0-4.4-2.7-7.5-6.9-7.5c-4.2,0-7,3.1-7,7.5C414.5,303,417.2,306.1,421.5,306.1z"/>
		<path d="M437.4,304.2c0-9.7,5.6-17.1,13.9-17.1c9.2,0,14.2,8,12.2,17.4h-21.4c0,9.5,5.1,12.4,9.2,12.4c4.4,0,7.1-2.7,7.6-6.9
			l4.9,0.4c-0.8,6.4-5.9,10.9-12.5,10.9C442.4,321.4,437.4,313.9,437.4,304.2z M459,300.8c0.5-5.6-2.7-9.5-7.7-9.5
			c-4.7,0-8.2,3.9-8.8,9.5H459z"/>
		<path d="M468.2,314.1h6.6v6.5h-6.6V314.1z"/>
	</g>
	<g>
		<path d="M56,139.5c53.1,0,106.2-3,159.3-6.1c26.3-1.5,52.6-3.2,78.9-4c26.6-0.8,53.2-0.8,79.8-0.8c14.8,0,29.7-0.3,44.5,0.5
			c7.4,0.4,14.7,0.9,22.1,0.7c3.7-0.1,7.2-0.7,10.8-1.1c1.9-0.2,4.5,0.5,6-1.2c0.4-0.4,0.2-1.1-0.3-1.3c-1.8-0.6-3.4-1.5-5.3-1.4
			c-1,0.1-1,1.6,0,1.5c1.8-0.1,3.3,0.8,4.9,1.3c-0.1-0.4-0.2-0.8-0.3-1.3c-0.9,1-2.2,0.5-3.3,0.6c-1.3,0-2.7,0.3-4,0.5
			c-3.6,0.5-7.1,0.8-10.7,0.8c-6.6,0.1-13.2-0.3-19.7-0.7c-13-0.7-26-0.6-38.9-0.5c-26.1,0-52.1,0-78.2,0.6
			c-52.4,1.2-104.7,5.6-157.1,7.9C114.9,137,85.5,138,56,138C55,138,55,139.5,56,139.5L56,139.5z"/>
	</g>
	<g>
		<path d="M145.7,123.9c-17.5,9.6-32.9,23.4-45.1,39.2c-5.8,7.5-11.2,16.6-11.1,26.4c0.1,7.7,3.8,14.5,9.8,19.1
			c5.7,4.4,12.8,6.9,19.8,8.6c7.7,1.9,15.6,2.8,23.4,3.6c22.6,2.4,45.5,3,68.2,0.8c11.1-1.1,22.3-2.7,33.1-5.4
			c10.6-2.6,21-6.3,30.9-10.9c8.8-4.1,16.6-9.6,23.4-16.5c6.5-6.5,12.9-13.9,15.7-22.8c2.6-8.5,1.8-18.2-2.9-25.8
			c-4.9-8-13.1-13-21.8-16c-4.6-1.6-9.2-2.7-13.9-3.7c-5.5-1.2-11-2.2-16.6-2.7c-11.3-1.1-22.6-0.6-33.8,1.2
			c-20.7,3.3-40.9,8.9-60.4,16.5c-19.3,7.4-37.8,16.7-55.6,27.1c-4.4,2.6-8.8,5.3-13.1,8c-0.8,0.5-0.1,1.8,0.8,1.3
			c17-10.8,34.7-20.6,53.2-28.7c18.5-8.2,37.7-14.7,57.3-19.2c10.3-2.3,20.8-4.4,31.3-5c11.2-0.7,22.5,0.1,33.6,2.4
			c9.2,1.9,18.8,4,26.8,8.9c7.7,4.7,13.4,12.2,14.8,21.2c1.5,9.4-1.7,18.3-7.2,25.9c-5.5,7.5-12.4,14.4-20,19.7
			c-8.3,5.9-17.9,9.9-27.5,13.2c-10.1,3.5-20.5,6-31.1,7.7c-21.9,3.5-44.3,4.2-66.4,2.9c-10.1-0.6-20.1-1.5-30.1-3
			c-6.9-1-13.8-2.4-20.4-4.8c-6.4-2.4-12.7-6.1-16.4-12c-5-8-3.8-17.7,0.2-25.8c4.3-8.8,11-16.3,17.7-23.3
			c6.7-7.1,14.1-13.6,22.1-19.2c3.9-2.7,7.9-5.2,12.1-7.5C147.3,124.8,146.6,123.5,145.7,123.9L145.7,123.9z"/>
	</g>
	<g>
		<path d="M90.8,347.7c5.6-6.4,10.6-13.4,16.8-19.3c2.6-2.5,5.5-5.9,9.3-6.6c4.1-0.8,6.8,1.6,8.9,4.8c3.2,5,5.3,11.2,10.2,15
			c5.6,4.3,12.5,2.7,18-0.9c5.9-3.9,10.5-10,17.1-13c4.1-1.8,7.7-0.7,11,2.1c2.6,2.2,4.8,4.7,7.2,7c4.1,4,9.9,8.5,16,7
			c6.2-1.5,10.1-7.2,14.5-11.3c5.3-5,13.7-3,19.8-0.7c3.7,1.4,7.3,3.2,11,4.4c3.9,1.3,8,1.9,12.1,1.6c3.9-0.3,7.9-1.2,11.4-3
			c3.6-1.8,6.5-5.3,10.3-6.5c2.4-0.7,4.1,0.3,6,1.6c1.7,1.2,3.5,2.3,5.3,3.1c2.9,1.4,6.2,2.1,9.4,1.6c6.3-0.8,11.3-5.4,16.2-9.1
			c2.6-2,5.5-4,8.7-4.8c3.4-0.8,6,0.5,8.3,2.9c2.3,2.4,4.1,5.1,6.6,7.3c2.5,2.3,5.4,4.1,8.6,5.2c3.2,1.1,6.7,1.2,9.9-0.1
			c3.5-1.4,6.8-5,10.7-2.9c1.5,0.8,2.9,1.9,4.4,2.8c1.7,1,3.4,1.9,5.2,2.8c3.2,1.5,6.7,2.7,10.3,2.5c3.9-0.2,7.2-2.5,10.6-4.3
			c1.9-1,3.9-2,5.9-2.6c2-0.6,3.6,0,5.3,1c3.3,2,6.2,4.5,10,5.7c3.4,1,6.7,1,10.1,0c4.3-1.2,8.2-3.5,12.6-4.1c4.2-0.6,8.5-1,12.7-2
			c1.8-0.4,3.7-0.9,5.4-1.7c0.6-0.3,1.3-0.7,1.8-1.1c0.8-0.7,1.1-1.6,2.3-1.7c1-0.1,1-1.6,0-1.5c-1.4,0.1-2,0.7-2.9,1.7
			c-1.5,1.5-3.6,2-5.7,2.6c-4.5,1.2-9.1,1.8-13.7,2.3c-4.4,0.6-8.1,2.7-12.3,3.9c-4.3,1.3-8.4,1.2-12.5-0.8c-3.3-1.6-6-4.5-9.4-5.7
			c-3-1.1-6.2,0.6-8.9,2c-3.9,1.9-7.7,4.9-12.3,4.9c-4.2,0-8.2-2-11.9-3.9c-1.5-0.8-2.9-1.7-4.3-2.6c-1.4-0.9-2.8-2-4.5-2.2
			c-3.3-0.5-6.2,2.2-9,3.5c-7.8,3.5-15.8-2.2-20.6-8c-3.7-4.3-7.3-8.9-13.6-7.1c-6.1,1.8-10.7,6.9-15.9,10.3
			c-2.8,1.8-5.8,3.3-9.2,3.5c-4.1,0.2-7.8-1.5-11.2-3.6c-3.1-2-5.5-4.1-9.3-2.6c-3.6,1.3-6.2,4.4-9.6,6.1
			c-8.2,4.4-17.8,3.7-26.2,0.3c-6.5-2.6-13.2-6-20.4-5.6c-2.9,0.2-5.8,1-8,3c-2.4,2.1-4.4,4.6-6.7,6.8c-2.5,2.3-5.6,4.7-9.1,4.9
			c-3.6,0.2-7.2-1.9-9.9-4.1c-2.6-2.1-4.9-4.6-7.3-6.9c-2.2-2.2-4.6-4.7-7.5-5.8c-6.5-2.5-12.7,3-17.3,7
			c-5.4,4.7-12.4,11.5-20.3,9.6c-6.8-1.6-9.7-9.1-12.8-14.5c-1.4-2.4-3-5.1-5.4-6.7c-2.5-1.6-5.9-1.4-8.5-0.3c-3,1.3-5.5,4-7.8,6.3
			c-3.1,3-5.9,6.2-8.6,9.5c-2.7,3.3-5.4,6.6-8.2,9.8C89.1,347.4,90.2,348.5,90.8,347.7L90.8,347.7z"/>
	</g>
</g>
</svg>
