<?xml version="1.0" encoding="utf-8"?>
<!-- Generator: Adobe Illustrator 26.0.3, SVG Export Plug-In . SVG Version: 6.00 Build 0)  -->
<svg version="1.2" baseProfile="tiny" id="Layer_1" xmlns="http://www.w3.org/2000/svg" xmlns:xlink="http://www.w3.org/1999/xlink"
	 x="0px" y="0px" viewBox="0 0 732.7 212.7" overflow="visible" xml:space="preserve">
<g>
	<g>
		<path d="M55.5,41.2l5.3-0.8c0.7,8.6,4.6,13.8,10.7,13.8c5,0,8.5-3.4,8.5-8.3c0-13.9-23.1-6.4-23-23.6C57,15,62.8,9.5,70.6,9.5
			c7.7,0,13.9,5.5,14.8,15L80,25.3c-0.4-7.3-4.4-11.1-9.4-11.1c-4.6,0-8,3.4-8,7.9c0,12.7,23,5,23,23.7c0,7.6-5.9,13.1-14.2,13.1
			C62.9,58.9,56.4,52.3,55.5,41.2z"/>
		<path d="M90.2,25.4h5.1v6.1c1.8-4.2,5.5-6.9,9.8-6.9c7.9,0,12.8,6.9,12.8,17.2c0,10.2-4.9,17.1-12.8,17.1c-4.2,0-8-2.7-9.8-6.8
			v18.2h-5.1V25.4z M103.9,54.6c5.3,0,8.8-4.9,8.8-12.8c0-7.9-3.4-12.8-8.8-12.8c-5.2,0-8.7,4.8-8.7,12.8
			C95.2,49.7,98.7,54.6,103.9,54.6z"/>
		<path d="M140.7,51.3c-1.4,4.6-5.1,7.6-10.3,7.6c-5.8,0-9.5-3.4-9.5-8.8c0-13.7,19.6-7.9,19.8-15.5c0-2.9-2.4-5.7-7-5.7
			c-4.3,0-7.7,3.3-7.9,7.7l-5.1-0.5c0.7-6.4,6.2-11.4,12.9-11.4c7.5,0,12.2,4.2,12.2,11.4v13.8c0,1.9,0.3,6.2,1.3,8.3h-5.5
			C141,56.5,140.8,53.4,140.7,51.3z M131.7,54.7c5.7,0,9-6.8,9-11.4v-3.1c-3.5,3.6-14.6,1.6-14.6,9.6
			C126.1,52.9,128.2,54.7,131.7,54.7z M137,10.3h5.7l-6.6,10.6h-4.5L137,10.3z"/>
		<path d="M156.9,25.4v35.2c0,6.8-3.8,10.4-8.7,10.4h-1l-0.4-4.6c0.3,0.1,0.6,0.1,0.8,0.1c2.5,0,4.2-2.3,4.2-6.6V25.4H156.9z
			 M151.5,10.3h5.7v6.2h-5.7V10.3z"/>
		<path d="M181.7,51.3c-1.4,4.6-5.1,7.6-10.3,7.6c-5.8,0-9.5-3.4-9.5-8.8c0-13.7,19.6-7.9,19.8-15.5c0-2.9-2.4-5.7-7-5.7
			c-4.3,0-7.7,3.3-7.9,7.7l-5.1-0.5c0.7-6.4,6.2-11.4,12.9-11.4c7.5,0,12.2,4.2,12.2,11.4v13.8c0,1.9,0.3,6.2,1.3,8.3h-5.5
			C181.9,56.5,181.7,53.4,181.7,51.3z M172.6,54.7c5.7,0,9-6.8,9-11.4v-3.1c-3.5,3.6-14.6,1.6-14.6,9.6
			C167,52.9,169.1,54.7,172.6,54.7z"/>
		<path d="M206.1,29c-4.9,0-8.3,4.9-8.3,12.5V58h-5.1V25.4h5.1v6.2c1.6-4,5.5-7,9.7-7c5.1,0,8.4,2.9,9.7,7.7
			c1.4-4.4,5.6-7.7,10.5-7.7c6.3,0,10.3,4.6,10.3,12V58h-5.1V37.2c0-4.9-2.5-8.2-6.6-8.2c-5,0-8.4,4.9-8.4,11.4V58h-5.1V37.7
			C212.8,32.4,210.2,29,206.1,29z"/>
		<path d="M242.2,41.7c0-9.7,5.6-17.1,13.9-17.1c9.2,0,14.2,8,12.2,17.4h-21.4c0,9.5,5.1,12.4,9.2,12.4c4.4,0,7.1-2.7,7.6-6.9
			l4.9,0.4c-0.8,6.4-5.9,10.9-12.5,10.9C247.2,58.9,242.2,51.3,242.2,41.7z M263.8,38.3c0.5-5.6-2.7-9.5-7.7-9.5
			c-4.7,0-8.2,3.9-8.8,9.5H263.8z"/>
		<path d="M294.8,40.5l-5.5,5.5V58h-5.1V10.3h5.1v29.3l14.5-14.2h6l-11.4,11.4l12,21.3h-5.7L294.8,40.5z"/>
		<path d="M313.8,25.4h5.1V32c1.4-4.9,4.9-7.4,8.1-7.4c1.2,0,2.6,0.3,3.8,1l-0.5,4.7c-1.2-0.7-2.6-1-3.8-1c-2.3,0-7.6,1.9-7.6,12.6
			V58h-5.1V25.4z"/>
		<path d="M331.3,41.7c0-9.7,5.6-17.1,13.9-17.1c9.2,0,14.2,8,12.2,17.4h-21.4c0,9.5,5.1,12.4,9.2,12.4c4.4,0,7.1-2.7,7.6-6.9
			l4.9,0.4c-0.8,6.4-5.9,10.9-12.5,10.9C336.3,58.9,331.3,51.3,331.3,41.7z M352.9,38.3c0.5-5.6-2.7-9.5-7.7-9.5
			c-4.7,0-8.2,3.9-8.8,9.5H352.9z"/>
		<path d="M381,51.3c-1.4,4.6-5.1,7.6-10.3,7.6c-5.8,0-9.5-3.4-9.5-8.8c0-13.7,19.6-7.9,19.8-15.5c0-2.9-2.4-5.7-7-5.7
			c-4.3,0-7.7,3.3-7.9,7.7L361,36c0.7-6.4,6.2-11.4,12.9-11.4c7.5,0,12.2,4.2,12.2,11.4v13.8c0,1.9,0.3,6.2,1.3,8.3h-5.5
			C381.3,56.5,381.1,53.4,381,51.3z M372,54.7c5.7,0,9-6.8,9-11.4v-3.1c-3.5,3.6-14.6,1.6-14.6,9.6C366.4,52.9,368.5,54.7,372,54.7z
			"/>
		<path d="M395.1,49.4V29.6h-6v-4.2h6V15.4h5.1v10.1h8.6v4.2h-8.6v19.2c0,3.9,1.5,5.7,4,5.7c1.2,0,2.7-0.5,3.9-2.2l0.9,4.4
			c-1.3,1.5-3.7,2.2-5.2,2.2C398.2,58.9,395.1,55.4,395.1,49.4z"/>
		<path d="M413.2,25.4h5.1V58h-5.1V25.4z M419.1,10.3h5.7l-6.6,10.6h-4.5L419.1,10.3z"/>
		<path d="M421.7,25.4h5.1l9,28.1l8.9-28.1h5.1L438.9,58h-6.4L421.7,25.4z"/>
		<path d="M466.8,28.9c-4.9,0-8.6,4.6-8.6,12.8V58h-5.1V25.4h5.1v6.2c1.7-4.2,5.5-7,9.6-7c7,0,11.1,4.8,11.1,12.5V58h-5.1V37.3
			C473.9,32.4,471.1,28.9,466.8,28.9z"/>
		<path d="M482.7,69.7l-0.3-4.9c1,1,2.6,1.6,4.1,1.6c2.5,0,4.6-1.9,6.1-6.4l1.2-3.2l-11.8-31.5h5.1l9.2,25.6l9.4-25.6h5.1
			l-13.6,35.7c-2.6,7-6.2,9.9-10.4,9.9C485.3,71,483.8,70.6,482.7,69.7z"/>
		<path d="M511.3,41.7c0-10,5.9-17.1,14.1-17.1c6.6,0,11.7,4.8,12.5,11.8l-4.9,0.9c-0.5-5.2-3.6-8.3-7.6-8.3c-5.2,0-9,4.9-9,12.7
			c0,8,3.7,12.8,8.8,12.8c4.4,0,7.4-2.9,7.8-7.5l4.9,0.5c-0.9,6.8-5.8,11.4-12.7,11.4C516.9,58.9,511.3,51.8,511.3,41.7z"/>
		<path d="M555.7,28.9c-4.5,0-8.1,3.9-8.6,10.9V58H542V10.3h5.1v21.3c1.7-4.2,5.5-7,9.6-7c7,0,11.1,4.8,11.1,12.5V58h-5.1V37.3
			C562.8,32.4,560,28.9,555.7,28.9z"/>
		<path d="M584.5,10.3h5.1V58h-5.1V10.3z M593.8,7.6h4.6L596,20.9h-3.5L593.8,7.6z"/>
		<path d="M609.2,54.6c4.9,0,8.6-4.6,8.6-12.8V42l0.1-16.6h5.1L622.8,58h-5.1v-6.2c-1.7,4.2-5.5,7-9.6,7c-7,0-11.1-4.8-11.1-12.5
			V25.4h5.1v20.7C602.1,51.1,604.9,54.6,609.2,54.6z"/>
		<path d="M627.2,41.7c0-10.2,4.9-17.1,12.8-17.1c4.3,0,8.1,2.7,9.8,7V10.3h5.1V58h-5.1v-6.3c-1.8,4.3-5.5,7.1-9.8,7.1
			C632.1,58.9,627.2,52,627.2,41.7z M641.1,54.5c5.2,0,8.7-4.8,8.7-12.8c0-7.9-3.5-12.8-8.7-12.8c-5.3,0-8.8,4.9-8.8,12.8
			C632.3,49.6,635.8,54.5,641.1,54.5z"/>
		<path d="M661.1,25.4h5.1V58h-5.1V25.4z M667,10.3h5.7l-6.6,10.6h-4.5L667,10.3z"/>
		<path d="M22.3,116.9c-1.4,4.6-5.1,7.6-10.3,7.6c-5.8,0-9.5-3.4-9.5-8.8c0-13.7,19.6-7.9,19.8-15.5c0-2.9-2.4-5.7-7-5.7
			c-4.3,0-7.7,3.3-7.9,7.7l-5.1-0.5c0.7-6.4,6.2-11.4,12.9-11.4c7.5,0,12.2,4.2,12.2,11.4v13.8c0,1.9,0.3,6.2,1.3,8.3h-5.5
			C22.6,122.2,22.4,119,22.3,116.9z M13.3,120.3c5.7,0,9-6.8,9-11.4v-3.1c-3.5,3.6-14.6,1.6-14.6,9.6
			C7.7,118.5,9.8,120.3,13.3,120.3z"/>
		<path d="M44.1,91.1h5.1v6.1c1.8-4.2,5.5-6.9,9.8-6.9c7.9,0,12.8,6.9,12.8,17.2c0,10.2-4.9,17.1-12.8,17.1c-4.2,0-8-2.7-9.8-6.8
			v18.2h-5.1V91.1z M57.8,120.2c5.3,0,8.8-4.9,8.8-12.8c0-7.9-3.4-12.8-8.8-12.8c-5.2,0-8.7,4.8-8.7,12.8
			C49.2,115.3,52.6,120.2,57.8,120.2z"/>
		<path d="M76.2,91.1h5.1v6.6c1.4-4.9,4.9-7.4,8.1-7.4c1.2,0,2.6,0.3,3.8,1l-0.5,4.7c-1.2-0.7-2.6-1-3.8-1c-2.3,0-7.6,1.9-7.6,12.6
			v16.1h-5.1V91.1z"/>
		<path d="M93.7,107.3c0-10.3,5.5-17.1,13.8-17.1c8.4,0,13.9,6.9,13.9,17.1c0,10.3-5.5,17.2-13.9,17.2
			C99.2,124.5,93.7,117.7,93.7,107.3z M107.5,120.1c5.2,0,8.8-4.8,8.8-12.8c0-7.9-3.6-12.8-8.8-12.8c-5.1,0-8.7,4.9-8.7,12.8
			C98.8,115.3,102.3,120.1,107.5,120.1z"/>
		<path d="M131,91.1v35.2c0,6.8-3.8,10.4-8.7,10.4h-1l-0.4-4.6c0.3,0.1,0.6,0.1,0.8,0.1c2.5,0,4.2-2.3,4.2-6.6V91.1H131z
			 M125.6,75.9h5.7v6.2h-5.7V75.9z"/>
		<path d="M135.5,107.3c0-9.7,5.6-17.1,13.9-17.1c9.2,0,14.2,8,12.2,17.4h-21.4c0,9.5,5.1,12.4,9.2,12.4c4.4,0,7.1-2.7,7.6-6.9
			l4.9,0.4c-0.8,6.4-5.9,10.9-12.5,10.9C140.5,124.5,135.5,117,135.5,107.3z M157.1,103.9c0.5-5.6-2.7-9.5-7.7-9.5
			c-4.7,0-8.2,3.9-8.8,9.5H157.1z"/>
		<path d="M177.3,106.1l-5.5,5.5v12.1h-5.1V75.9h5.1v29.3l14.5-14.2h6L181,102.4l12,21.3h-5.7L177.3,106.1z"/>
		<path d="M200,115.1V95.2h-6v-4.2h6V81h5.1v10.1h8.6v4.2H205v19.2c0,3.9,1.5,5.7,4,5.7c1.2,0,2.7-0.5,3.9-2.2l0.9,4.4
			c-1.3,1.5-3.7,2.2-5.2,2.2C203.1,124.5,200,121.1,200,115.1z"/>
		<path d="M216.1,135.4l-0.3-4.9c1,1,2.6,1.6,4.1,1.6c2.5,0,4.6-1.9,6.1-6.4l1.2-3.2l-11.8-31.5h5.1l9.2,25.6l9.4-25.6h5.1
			l-13.6,35.7c-2.6,7-6.2,9.9-10.4,9.9C218.8,136.7,217.3,136.2,216.1,135.4z"/>
		<path d="M243.4,123.7h-2.5v-6.5h6.6v5l-2.9,11h-3.3L243.4,123.7z"/>
		<path d="M283,116.9c-1.4,4.6-5.1,7.6-10.3,7.6c-5.8,0-9.5-3.4-9.5-8.8c0-13.7,19.6-7.9,19.8-15.5c0-2.9-2.4-5.7-7-5.7
			c-4.3,0-7.7,3.3-7.9,7.7l-5.1-0.5c0.7-6.4,6.2-11.4,12.9-11.4c7.5,0,12.2,4.2,12.2,11.4v13.8c0,1.9,0.3,6.2,1.3,8.3h-5.5
			C283.3,122.2,283,119,283,116.9z M274,120.3c5.7,0,9-6.8,9-11.4v-3.1c-3.5,3.6-14.6,1.6-14.6,9.6
			C268.3,118.5,270.5,120.3,274,120.3z"/>
		<path d="M299.1,117.6v6.1h-5.1V75.9h5.1v21.1c1.8-4.2,5.5-6.8,9.8-6.8c7.9,0,12.8,6.9,12.8,17.1c0,10.3-4.9,17.2-12.8,17.2
			C304.7,124.5,300.9,121.8,299.1,117.6z M307.8,120.1c5.3,0,8.8-4.9,8.8-12.8c0-7.9-3.4-12.8-8.8-12.8c-5.2,0-8.7,4.9-8.7,12.8
			C299.1,115.3,302.6,120.1,307.8,120.1z"/>
		<path d="M323.6,135.4l-0.3-4.9c1,1,2.6,1.6,4.1,1.6c2.5,0,4.6-1.9,6.1-6.4l1.2-3.2l-11.8-31.5h5.1l9.2,25.6l9.4-25.6h5.1
			L338,126.8c-2.6,7-6.2,9.9-10.4,9.9C326.3,136.7,324.7,136.2,323.6,135.4z"/>
		<path d="M364.1,112.5l4.9-0.4c0.3,4.6,3.8,8.3,8.3,8.3c4,0,6.2-2.3,6.2-5.4c0-8.5-18.1-3.5-18.1-15.4c0-5.1,4.4-9.4,10.9-9.4
			c5.9,0,11.1,4.1,11.6,9.7l-4.9,0.3c-0.2-3.3-3.1-6-6.6-6c-3.9,0-5.9,2.3-5.9,5.1c0,8,18.1,2.2,18.1,15.3c0,5.6-4.4,9.8-11.2,9.8
			C370.1,124.5,364.5,119.4,364.1,112.5z"/>
		<path d="M406.3,94.6c-4.9,0-8.3,4.9-8.3,12.5v16.5h-5.1V91.1h5.1v6.2c1.6-4,5.5-7,9.7-7c5.1,0,8.4,2.9,9.7,7.7
			c1.4-4.4,5.6-7.7,10.5-7.7c6.3,0,10.3,4.6,10.3,12v21.5h-5.1v-20.9c0-4.9-2.5-8.2-6.6-8.2c-5,0-8.4,4.9-8.4,11.4v17.6h-5.1v-20.4
			C413.1,98,410.5,94.6,406.3,94.6z"/>
		<path d="M442.4,107.3c0-9.7,5.6-17.1,13.9-17.1c9.2,0,14.2,8,12.2,17.4h-21.4c0,9.5,5.1,12.4,9.2,12.4c4.4,0,7.1-2.7,7.6-6.9
			l4.9,0.4c-0.8,6.4-5.9,10.9-12.5,10.9C447.4,124.5,442.4,117,442.4,107.3z M464,103.9c0.5-5.6-2.7-9.5-7.7-9.5
			c-4.7,0-8.2,3.9-8.8,9.5H464z"/>
		<path d="M498.1,94.5c-4.9,0-8.6,4.6-8.6,12.8v16.3h-5.1V91.1h5.1v6.2c1.7-4.2,5.5-7,9.6-7c7,0,11.1,4.8,11.1,12.5v20.9h-5.1V103
			C505.2,98,502.4,94.5,498.1,94.5z"/>
		<path d="M534.7,116.9c-1.4,4.6-5.1,7.6-10.3,7.6c-5.8,0-9.5-3.4-9.5-8.8c0-13.7,19.6-7.9,19.8-15.5c0-2.9-2.4-5.7-7-5.7
			c-4.3,0-7.7,3.3-7.9,7.7l-5.1-0.5c0.7-6.4,6.2-11.4,12.9-11.4c7.5,0,12.2,4.2,12.2,11.4v13.8c0,1.9,0.3,6.2,1.3,8.3h-5.5
			C535,122.2,534.8,119,534.7,116.9z M525.7,120.3c5.7,0,9-6.8,9-11.4v-3.1c-3.5,3.6-14.6,1.6-14.6,9.6
			C520.1,118.5,522.2,120.3,525.7,120.3z"/>
		<path d="M544,112.5l4.9-0.4c0.3,4.6,3.8,8.3,8.3,8.3c4,0,6.2-2.3,6.2-5.4c0-8.5-18.1-3.5-18.1-15.4c0-5.1,4.4-9.4,10.9-9.4
			c5.9,0,11.1,4.1,11.6,9.7l-4.9,0.3c-0.2-3.3-3.1-6-6.6-6c-3.9,0-5.9,2.3-5.9,5.1c0,8,18.1,2.2,18.1,15.3c0,5.6-4.4,9.8-11.2,9.8
			C550,124.5,544.4,119.4,544,112.5z M551,75.9l5.4,7.2l5.3-7.2h4.9l-7.5,10.6h-5.5l-7.5-10.6H551z"/>
		<path d="M572.9,75.9h5.1v47.7h-5.1V75.9z"/>
		<path d="M583.9,75.9h5.7v6.2h-5.7V75.9z M584.3,91.1h5.1v32.6h-5.1V91.1z"/>
		<path d="M620,94.5c-4.9,0-8.6,4.6-8.6,12.8v16.3h-5.1V91.1h5.1v6.2c1.7-4.2,5.5-7,9.6-7c7,0,11.1,4.8,11.1,12.5v20.9h-5.1V103
			C627.1,98,624.3,94.5,620,94.5z"/>
		<path d="M636.4,107.3c0-10.3,5.5-17.1,13.8-17.1c8.4,0,13.9,6.9,13.9,17.1c0,10.3-5.5,17.2-13.9,17.2
			C641.9,124.5,636.4,117.7,636.4,107.3z M650.2,120.1c5.2,0,8.8-4.8,8.8-12.8c0-7.9-3.6-12.8-8.8-12.8c-5.1,0-8.7,4.9-8.7,12.8
			C641.5,115.3,645.1,120.1,650.2,120.1z"/>
		<path d="M665.2,91.1h5.1l9,28.1l8.9-28.1h5.1l-10.8,32.6H676L665.2,91.1z"/>
		<path d="M694.4,107.3c0-9.7,5.6-17.1,13.9-17.1c9.2,0,14.2,8,12.2,17.4h-21.4c0,9.5,5.1,12.4,9.2,12.4c4.4,0,7.1-2.7,7.6-6.9
			l4.9,0.4c-0.8,6.4-5.9,10.9-12.5,10.9C699.4,124.5,694.4,117,694.4,107.3z M716,103.9c0.5-5.6-2.7-9.5-7.7-9.5
			c-4.7,0-8.2,3.9-8.8,9.5H716z M711.2,75.9h5.7l-6.6,10.6h-4.5L711.2,75.9z"/>
		<path d="M70.4,156.7h5.1v6.6c1.4-4.9,4.9-7.4,8.1-7.4c1.2,0,2.6,0.3,3.8,1l-0.5,4.7c-1.2-0.7-2.6-1-3.8-1c-2.3,0-7.6,1.9-7.6,12.6
			v16.1h-5.1V156.7z"/>
		<path d="M90.5,141.6h5.7v6.2h-5.7V141.6z M90.9,156.7h5.1v32.6h-5.1V156.7z"/>
		<path d="M100.4,173c0-9.7,5.6-17.1,13.9-17.1c9.2,0,14.2,8,12.2,17.4h-21.4c0,9.5,5.1,12.4,9.2,12.4c4.4,0,7.1-2.7,7.6-6.9
			l4.9,0.4c-0.8,6.4-5.9,10.9-12.5,10.9C105.4,190.1,100.4,182.6,100.4,173z M122,169.5c0.5-5.6-2.7-9.5-7.7-9.5
			c-4.7,0-8.2,3.9-8.8,9.5H122z"/>
		<path d="M129.9,178.1l4.9-0.4c0.3,4.6,3.8,8.3,8.3,8.3c4,0,6.2-2.3,6.2-5.4c0-8.5-18.1-3.5-18.1-15.4c0-5.1,4.4-9.4,10.9-9.4
			c5.9,0,11.1,4.1,11.6,9.7l-4.9,0.3c-0.2-3.3-3.1-6-6.6-6c-3.9,0-5.9,2.3-5.9,5.1c0,8,18.1,2.2,18.1,15.3c0,5.6-4.4,9.8-11.2,9.8
			C135.9,190.1,130.3,185,129.9,178.1z M136.9,141.6l5.4,7.2l5.3-7.2h4.9l-7.5,10.6h-5.5l-7.5-10.6H136.9z"/>
		<path d="M157,173c0-9.7,5.6-17.1,13.9-17.1c9.2,0,14.2,8,12.2,17.4h-21.4c0,9.5,5.1,12.4,9.2,12.4c4.4,0,7.1-2.7,7.6-6.9l4.9,0.4
			c-0.8,6.4-5.9,10.9-12.5,10.9C162,190.1,157,182.6,157,173z M178.6,169.5c0.5-5.6-2.7-9.5-7.7-9.5c-4.7,0-8.2,3.9-8.8,9.5H178.6z"
			/>
		<path d="M202,160.2c-4.9,0-8.6,4.6-8.6,12.8v16.3h-5.1v-32.6h5.1v6.2c1.7-4.2,5.5-7,9.6-7c7,0,11.1,4.8,11.1,12.5v20.9h-5.1v-20.7
			C209.1,163.7,206.3,160.2,202,160.2z"/>
		<path d="M219.7,141.6h5.7v6.2h-5.7V141.6z M220,156.7h5.1v32.6H220V156.7z"/>
		<path d="M249.8,182.5c-1.4,4.6-5.1,7.6-10.3,7.6c-5.8,0-9.5-3.4-9.5-8.8c0-13.7,19.6-7.9,19.8-15.5c0-2.9-2.4-5.7-7-5.7
			c-4.3,0-7.7,3.3-7.9,7.7l-5.1-0.5c0.7-6.4,6.2-11.4,12.9-11.4c7.5,0,12.2,4.2,12.2,11.4V181c0,1.9,0.3,6.2,1.3,8.3h-5.5
			C250,187.8,249.8,184.7,249.8,182.5z M240.7,186c5.7,0,9-6.8,9-11.4v-3.1c-3.5,3.6-14.6,1.6-14.6,9.6
			C235.1,184.2,237.2,186,240.7,186z"/>
		<path d="M282.2,171.7l-5.5,5.5v12.1h-5.1v-47.7h5.1v29.3l14.5-14.2h6L285.8,168l12,21.3h-5.7L282.2,171.7z"/>
		<path d="M301.2,141.6h5.1v47.7h-5.1V141.6z"/>
		<path d="M312.2,141.6h5.7v6.2h-5.7V141.6z M312.6,156.7h5.1v32.6h-5.1V156.7z"/>
		<path d="M337.2,160.2c-4.9,0-8.3,4.9-8.3,12.5v16.5h-5.1v-32.6h5.1v6.2c1.6-4,5.5-7,9.7-7c5.1,0,8.4,2.9,9.7,7.7
			c1.4-4.4,5.6-7.7,10.5-7.7c6.3,0,10.3,4.6,10.3,12v21.5h-5.1v-20.9c0-4.9-2.5-8.2-6.6-8.2c-5,0-8.4,4.9-8.4,11.4v17.6H344v-20.4
			C344,163.7,341.4,160.2,337.2,160.2z"/>
		<path d="M393.5,182.5c-1.4,4.6-5.1,7.6-10.3,7.6c-5.8,0-9.5-3.4-9.5-8.8c0-13.7,19.6-7.9,19.8-15.5c0-2.9-2.4-5.7-7-5.7
			c-4.3,0-7.7,3.3-7.9,7.7l-5.1-0.5c0.7-6.4,6.2-11.4,12.9-11.4c7.5,0,12.2,4.2,12.2,11.4V181c0,1.9,0.3,6.2,1.3,8.3h-5.5
			C393.7,187.8,393.5,184.7,393.5,182.5z M384.4,186c5.7,0,9-6.8,9-11.4v-3.1c-3.5,3.6-14.6,1.6-14.6,9.6
			C378.8,184.2,380.9,186,384.4,186z"/>
		<path d="M407.5,180.7v-19.8h-6v-4.2h6v-10.1h5.1v10.1h8.6v4.2h-8.6v19.2c0,3.9,1.5,5.7,4,5.7c1.2,0,2.7-0.5,3.9-2.2l0.9,4.4
			c-1.3,1.5-3.7,2.2-5.2,2.2C410.6,190.1,407.5,186.7,407.5,180.7z"/>
		<path d="M425.3,141.6h5.7v6.2h-5.7V141.6z M425.7,156.7h5.1v32.6h-5.1V156.7z"/>
		<path d="M435.2,173c0-10,5.9-17.1,14.1-17.1c6.6,0,11.7,4.8,12.5,11.8l-4.9,0.9c-0.5-5.2-3.6-8.3-7.6-8.3c-5.2,0-9,4.9-9,12.7
			c0,8,3.7,12.8,8.8,12.8c4.4,0,7.4-2.9,7.8-7.5l4.9,0.5c-0.9,6.8-5.8,11.4-12.7,11.4C440.8,190.1,435.2,183,435.2,173z"/>
		<path d="M476.4,171.7l-5.5,5.5v12.1h-5.1v-47.7h5.1v29.3l14.5-14.2h6L480.1,168l12,21.3h-5.7L476.4,171.7z"/>
		<path d="M491.4,173c0-9.7,5.6-17.1,13.9-17.1c9.2,0,14.2,8,12.2,17.4h-21.4c0,9.5,5.1,12.4,9.2,12.4c4.4,0,7.1-2.7,7.6-6.9
			l4.9,0.4c-0.8,6.4-5.9,10.9-12.5,10.9C496.4,190.1,491.4,182.6,491.4,173z M513,169.5c0.5-5.6-2.7-9.5-7.7-9.5
			c-4.7,0-8.2,3.9-8.8,9.5H513z"/>
		<path d="M527.9,156.7v35.2c0,6.8-3.8,10.4-8.7,10.4h-1l-0.4-4.6c0.3,0.1,0.6,0.1,0.8,0.1c2.5,0,4.2-2.3,4.2-6.6v-34.5H527.9z
			 M522.5,141.6h5.7v6.2h-5.7V141.6z"/>
		<path d="M555.5,171.7l-5.5,5.5v12.1H545v-47.7h5.1v29.3l14.5-14.2h6L559.2,168l12,21.3h-5.7L555.5,171.7z"/>
		<path d="M574.5,156.7h5.1v6.6c1.4-4.9,4.9-7.4,8.1-7.4c1.2,0,2.6,0.3,3.8,1l-0.5,4.7c-1.2-0.7-2.6-1-3.8-1
			c-2.3,0-7.6,1.9-7.6,12.6v16.1h-5.1V156.7z"/>
		<path d="M595,156.7h5.1v32.6H595V156.7z M600.9,141.6h5.7l-6.6,10.6h-4.5L600.9,141.6z"/>
		<path d="M604.5,185.5l18.9-24.6h-18.1v-4.2h24.5v3.8l-18.9,24.6h18.9v4.2h-25.3V185.5z"/>
		<path d="M632.3,201l-0.3-4.9c1,1,2.6,1.6,4.1,1.6c2.5,0,4.6-1.9,6.1-6.4l1.2-3.2l-11.8-31.5h5.1l9.2,25.6l9.4-25.6h5.1l-13.6,35.7
			c-2.6,7-6.2,9.9-10.4,9.9C634.9,202.3,633.4,201.8,632.3,201z"/>
		<path d="M657,182.8h6.6v6.5H657V182.8z"/>
	</g>
	<g>
		<path d="M271.9,74.2c53.1,0,106.2-3,159.3-6.1c26.3-1.5,52.6-3.2,78.9-4c26.6-0.8,53.2-0.8,79.8-0.8c14.8,0,29.7-0.3,44.5,0.5
			c7.4,0.4,14.7,0.9,22.1,0.7c3.7-0.1,7.2-0.7,10.8-1.1c1.9-0.2,4.5,0.5,6-1.2c0.4-0.4,0.2-1.1-0.3-1.3c-1.8-0.6-3.4-1.5-5.3-1.4
			c-1,0.1-1,1.6,0,1.5c1.8-0.1,3.3,0.8,4.9,1.3c-0.1-0.4-0.2-0.8-0.3-1.3c-0.9,1-2.2,0.5-3.3,0.6c-1.3,0-2.7,0.3-4,0.5
			c-3.6,0.5-7.1,0.8-10.7,0.8c-6.6,0.1-13.2-0.3-19.7-0.7c-13-0.7-26-0.6-38.9-0.5c-26.1,0-52.1,0-78.2,0.6
			c-52.4,1.2-104.7,5.6-157.1,7.9c-29.4,1.3-58.9,2.3-88.3,2.3C270.9,72.7,270.9,74.2,271.9,74.2L271.9,74.2z"/>
	</g>
	<g>
		<path d="M87.5,58.3C70,67.9,54.6,81.7,42.4,97.5c-5.8,7.5-11.2,16.6-11.1,26.4c0.1,7.7,3.8,14.5,9.8,19.1
			c5.7,4.4,12.8,6.9,19.8,8.6c7.7,1.9,15.6,2.8,23.4,3.6c22.6,2.4,45.5,3,68.2,0.8c11.1-1.1,22.3-2.7,33.1-5.4
			c10.6-2.6,21-6.3,30.9-10.9c8.8-4.1,16.6-9.6,23.4-16.5c6.5-6.5,12.9-13.9,15.7-22.8c2.6-8.5,1.8-18.2-2.9-25.8
			c-4.9-8-13.1-13-21.8-16c-4.6-1.6-9.2-2.7-13.9-3.7c-5.5-1.2-11-2.2-16.6-2.7c-11.3-1.1-22.6-0.6-33.8,1.2
			c-20.7,3.3-40.9,8.9-60.4,16.5C86.9,77.3,68.4,86.5,50.6,97c-4.4,2.6-8.8,5.3-13.1,8c-0.8,0.5-0.1,1.8,0.8,1.3
			c17-10.8,34.7-20.6,53.2-28.7c18.5-8.2,37.7-14.7,57.3-19.2c10.3-2.3,20.8-4.4,31.3-5c11.2-0.7,22.5,0.1,33.6,2.4
			c9.2,1.9,18.8,4,26.8,8.9c7.7,4.7,13.4,12.2,14.8,21.2c1.5,9.4-1.7,18.3-7.2,25.9c-5.5,7.5-12.4,14.4-20,19.7
			c-8.3,5.9-17.9,9.9-27.5,13.2c-10.1,3.5-20.5,6-31.1,7.7c-21.9,3.5-44.3,4.2-66.4,2.9c-10.1-0.6-20.1-1.5-30.1-3
			c-6.9-1-13.8-2.4-20.4-4.8c-6.4-2.4-12.7-6.1-16.4-12c-5-8-3.8-17.7,0.2-25.8c4.3-8.8,11-16.3,17.7-23.3
			c6.7-7.1,14.1-13.6,22.1-19.2c3.9-2.7,7.9-5.2,12.1-7.5C89.1,59.1,88.3,57.8,87.5,58.3L87.5,58.3z"/>
	</g>
	<g>
		<path d="M272.4,212.5c5.6-6.4,10.6-13.4,16.8-19.3c2.6-2.5,5.5-5.9,9.3-6.6c4.1-0.8,6.8,1.6,8.9,4.8c3.2,5,5.3,11.2,10.2,15
			c5.6,4.3,12.5,2.7,18-0.9c5.9-3.9,10.5-10,17.1-13c4.1-1.8,7.7-0.7,11,2.1c2.6,2.2,4.8,4.7,7.2,7c4.1,4,9.9,8.5,16,7
			c6.2-1.5,10.1-7.2,14.5-11.3c5.3-5,13.7-3,19.8-0.7c3.7,1.4,7.3,3.2,11,4.4c3.9,1.3,8,1.9,12.1,1.6c3.9-0.3,7.9-1.2,11.4-3
			c3.6-1.8,6.5-5.3,10.3-6.5c2.4-0.7,4.1,0.3,6,1.6c1.7,1.2,3.5,2.3,5.3,3.1c2.9,1.4,6.2,2.1,9.4,1.6c6.3-0.8,11.3-5.4,16.2-9.1
			c2.6-2,5.5-4,8.7-4.8c3.4-0.8,6,0.5,8.3,2.9c2.3,2.4,4.1,5.1,6.6,7.3c2.5,2.3,5.4,4.1,8.6,5.2c3.2,1.1,6.7,1.2,9.9-0.1
			c3.5-1.4,6.8-5,10.7-2.9c1.5,0.8,2.9,1.9,4.4,2.8c1.7,1,3.4,1.9,5.2,2.8c3.2,1.5,6.7,2.7,10.3,2.5c3.9-0.2,7.2-2.5,10.6-4.3
			c1.9-1,3.9-2,5.9-2.6c2-0.6,3.6,0,5.3,1c3.3,2,6.2,4.5,10,5.7c3.4,1,6.7,1,10.1,0c4.3-1.2,8.2-3.5,12.6-4.1c4.2-0.6,8.5-1,12.7-2
			c1.8-0.4,3.7-0.9,5.4-1.7c0.6-0.3,1.3-0.7,1.8-1.1c0.8-0.7,1.1-1.6,2.3-1.7c1-0.1,1-1.6,0-1.5c-1.4,0.1-2,0.7-2.9,1.7
			c-1.5,1.5-3.6,2-5.7,2.6c-4.5,1.2-9.1,1.8-13.7,2.3c-4.4,0.6-8.1,2.7-12.3,3.9c-4.3,1.3-8.4,1.2-12.5-0.8c-3.3-1.6-6-4.5-9.4-5.7
			c-3-1.1-6.2,0.6-8.9,2c-3.9,1.9-7.7,4.9-12.3,4.9c-4.2,0-8.2-2-11.9-3.9c-1.5-0.8-2.9-1.7-4.3-2.6c-1.4-0.9-2.8-2-4.5-2.2
			c-3.3-0.5-6.2,2.2-9,3.5c-7.8,3.5-15.8-2.2-20.6-8c-3.7-4.3-7.3-8.9-13.6-7.1c-6.1,1.8-10.7,6.9-15.9,10.3
			c-2.8,1.8-5.8,3.3-9.2,3.5c-4.1,0.2-7.8-1.5-11.2-3.6c-3.1-2-5.5-4.1-9.3-2.6c-3.6,1.3-6.2,4.4-9.6,6.1
			c-8.2,4.4-17.8,3.7-26.2,0.3c-6.5-2.6-13.2-6-20.4-5.6c-2.9,0.2-5.8,1-8,3c-2.4,2.1-4.4,4.6-6.7,6.8c-2.5,2.3-5.6,4.7-9.1,4.9
			c-3.6,0.2-7.2-1.9-9.9-4.1c-2.6-2.1-4.9-4.6-7.3-6.9c-2.2-2.2-4.6-4.7-7.5-5.8c-6.5-2.5-12.7,3-17.3,7
			c-5.4,4.7-12.4,11.5-20.3,9.6c-6.8-1.6-9.7-9.1-12.8-14.5c-1.4-2.4-3-5.1-5.4-6.7c-2.5-1.6-5.9-1.4-8.5-0.3c-3,1.3-5.5,4-7.8,6.3
			c-3.1,3-5.9,6.2-8.6,9.5s-5.4,6.6-8.2,9.8C270.7,212.2,271.8,213.2,272.4,212.5L272.4,212.5z"/>
	</g>
</g>
</svg>
