<?xml version="1.0" encoding="utf-8"?>
<!-- Generator: Adobe Illustrator 26.0.3, SVG Export Plug-In . SVG Version: 6.00 Build 0)  -->
<svg version="1.2" baseProfile="tiny" id="Layer_1" xmlns="http://www.w3.org/2000/svg" xmlns:xlink="http://www.w3.org/1999/xlink"
	 x="0px" y="0px" viewBox="0 0 361 451" overflow="visible" xml:space="preserve">
<g>
	<rect x="0.5" y="0.5" fill="#FFFFFF" stroke="#000000" stroke-miterlimit="10" width="360" height="450"/>
	<g>
		<path d="M110.6,206.3l-13.1-28.1h5.7l10.2,23l10-23h5.8l-13.2,28.1v19.2h-5.4V206.3z"/>
		<path d="M124.5,209.3c0-9.6,5.6-16.9,13.8-16.9c9.1,0,14,7.9,12.1,17.3h-21.2c0,9.4,5,12.3,9.1,12.3c4.3,0,7-2.7,7.5-6.8l4.9,0.4
			c-0.7,6.4-5.9,10.8-12.4,10.8C129.4,226.3,124.5,218.9,124.5,209.3z M145.9,205.9c0.5-5.6-2.7-9.4-7.7-9.4c-4.7,0-8.1,3.9-8.7,9.4
			H145.9z"/>
		<path d="M173.7,218.8c-1.4,4.6-5.1,7.5-10.2,7.5c-5.8,0-9.4-3.4-9.4-8.7c0-13.5,19.4-7.9,19.6-15.4c0-2.9-2.4-5.7-7-5.7
			c-4.3,0-7.6,3.3-7.9,7.7l-5-0.5c0.7-6.4,6.2-11.2,12.8-11.2c7.4,0,12.1,4.2,12.1,11.2v13.7c0,1.9,0.3,6.2,1.3,8.2h-5.5
			C174,224,173.8,220.9,173.7,218.8z M164.8,222.2c5.7,0,8.9-6.8,8.9-11.3v-3.1c-3.5,3.6-14.5,1.6-14.5,9.6
			C159.2,220.4,161.3,222.2,164.8,222.2z"/>
		<path d="M184.6,193.2h5v6.5c1.4-4.9,4.9-7.3,8.1-7.3c1.2,0,2.6,0.3,3.7,0.9L201,198c-1.2-0.7-2.6-1-3.8-1c-2.3,0-7.5,1.9-7.5,12.5
			v16h-5V193.2z"/>
		<path d="M214,209.3c0-10.2,5.5-16.9,13.7-16.9c8.3,0,13.8,6.8,13.8,16.9c0,10.2-5.5,17-13.8,17C219.5,226.3,214,219.5,214,209.3z
			 M227.7,222c5.1,0,8.7-4.7,8.7-12.7c0-7.9-3.5-12.7-8.7-12.7c-5.1,0-8.6,4.8-8.6,12.7C219.1,217.2,222.6,222,227.7,222z"/>
		<path d="M257.8,177.4c3.7,0,7.6,2.2,8.5,6.3l-4.5,1.8c-0.6-2.3-2-3.9-4.2-3.9c-2.3,0-4.5,1.8-4.5,6.2v5.4h9.3v4.1h-9.3v28.2h-5
			v-28.2h-5.2v-4.1h5.2v-4.9C248.1,180.4,252.7,177.4,257.8,177.4z"/>
		<path d="M23,256.9c0-14.3,7.9-24.5,19-24.5c9.2,0,16.1,5.8,17.2,17.8l-5.4,0.7c-0.4-9.4-5.6-14-11.8-14c-7.9,0-13.4,8.3-13.4,19.9
			c0,11.7,5.6,19.9,13.8,19.9c6.4,0,11.2-5.6,11.4-13.4l5.4,0.4c-0.6,10.4-7.2,17.6-16.9,17.6C30.9,281.3,23,271.1,23,256.9z"/>
		<path d="M63.7,233.2h5v47.3h-5V233.2z"/>
		<path d="M74.6,233.2h5.6v6.2h-5.6V233.2z M75,248.2h5v32.3h-5V248.2z"/>
		<path d="M99.4,251.7c-4.9,0-8.3,4.9-8.3,12.4v16.4h-5v-32.3h5v6.1c1.6-3.9,5.4-6.9,9.6-6.9c5,0,8.3,2.9,9.6,7.7
			c1.4-4.3,5.6-7.7,10.4-7.7c6.2,0,10.2,4.6,10.2,11.9v21.3h-5v-20.7c0-4.8-2.4-8.1-6.6-8.1c-4.9,0-8.3,4.9-8.3,11.3v17.5h-5v-20.2
			C106.1,255.1,103.5,251.7,99.4,251.7z"/>
		<path d="M155.1,273.8c-1.4,4.6-5.1,7.5-10.2,7.5c-5.8,0-9.4-3.4-9.4-8.7c0-13.5,19.4-7.9,19.6-15.4c0-2.9-2.4-5.7-7-5.7
			c-4.3,0-7.6,3.3-7.9,7.7l-5-0.5c0.7-6.4,6.2-11.2,12.8-11.2c7.4,0,12.1,4.2,12.1,11.2v13.7c0,1.9,0.3,6.2,1.3,8.2h-5.5
			C155.4,279,155.2,275.9,155.1,273.8z M146.2,277.2c5.7,0,8.9-6.8,8.9-11.3v-3.1c-3.5,3.6-14.5,1.6-14.5,9.6
			C140.6,275.4,142.7,277.2,146.2,277.2z"/>
		<path d="M169.1,272v-19.6h-6v-4.1h6v-10h5v10h8.5v4.1h-8.5v19c0,3.9,1.5,5.6,4,5.6c1.2,0,2.7-0.5,3.9-2.2l0.9,4.3
			c-1.3,1.5-3.7,2.2-5.1,2.2C172.1,281.3,169.1,277.9,169.1,272z"/>
		<path d="M184.4,264.3c0-9.6,5.6-16.9,13.8-16.9c9.1,0,14,7.9,12.1,17.3h-21.2c0,9.4,5,12.3,9.1,12.3c4.3,0,7-2.7,7.5-6.8l4.9,0.4
			c-0.7,6.4-5.9,10.8-12.4,10.8C189.3,281.3,184.4,273.9,184.4,264.3z M205.8,260.9c0.5-5.6-2.7-9.4-7.7-9.4c-4.7,0-8.1,3.9-8.7,9.4
			H205.8z"/>
		<path d="M224.7,256.9c0-14.3,7.9-24.5,19-24.5c9.2,0,16.1,5.8,17.2,17.8l-5.4,0.7c-0.4-9.4-5.6-14-11.8-14
			c-7.9,0-13.4,8.3-13.4,19.9c0,11.7,5.6,19.9,13.8,19.9c6.4,0,11.2-5.6,11.4-13.4l5.4,0.4c-0.6,10.4-7.2,17.6-16.9,17.6
			C232.6,281.3,224.7,271.1,224.7,256.9z"/>
		<path d="M283.5,273.8c-1.4,4.6-5.1,7.5-10.2,7.5c-5.8,0-9.4-3.4-9.4-8.7c0-13.5,19.4-7.9,19.6-15.4c0-2.9-2.4-5.7-7-5.7
			c-4.3,0-7.6,3.3-7.9,7.7l-5-0.5c0.7-6.4,6.2-11.2,12.8-11.2c7.4,0,12.1,4.2,12.1,11.2v13.7c0,1.9,0.3,6.2,1.3,8.2h-5.5
			C283.8,279,283.6,275.9,283.5,273.8z M274.6,277.2c5.7,0,8.9-6.8,8.9-11.3v-3.1c-3.5,3.6-14.5,1.6-14.5,9.6
			C269,275.4,271.1,277.2,274.6,277.2z"/>
		<path d="M294.4,248.2h5v6.5c1.4-4.9,4.9-7.3,8.1-7.3c1.2,0,2.6,0.3,3.7,0.9l-0.5,4.7c-1.2-0.7-2.6-1-3.8-1
			c-2.3,0-7.5,1.9-7.5,12.5v16h-5V248.2z"/>
		<path d="M311.8,264.3c0-9.6,5.6-16.9,13.8-16.9c9.1,0,14,7.9,12.1,17.3h-21.2c0,9.4,5,12.3,9.1,12.3c4.3,0,7-2.7,7.5-6.8l4.9,0.4
			c-0.7,6.4-5.9,10.8-12.4,10.8C316.7,281.3,311.8,273.9,311.8,264.3z M333.2,260.9c0.5-5.6-2.7-9.4-7.7-9.4c-4.7,0-8.1,3.9-8.7,9.4
			H333.2z"/>
	</g>
	<g>
		<path d="M173.7,37.8c0-3.8-2.6-6.4-6.2-6.4c-4.1,0-6.8,3.5-6.8,8.8l-4-0.2c0.1-7.1,4.6-12,10.8-12c6.1,0,10.4,4,10.4,9.8
			c0,7.7-5.9,13-15.4,22.3h15.4v3.4h-21.2V61C167.7,49.9,173.7,45.1,173.7,37.8z"/>
		<path d="M181.9,46c0-11.2,4.2-18.1,11.6-18.1c7.3,0,11.6,6.9,11.6,18.1c0,11.1-4.3,18.1-11.6,18.1C186.1,64.1,181.9,57.1,181.9,46
			z M193.5,60.7c5,0,7.4-5.6,7.4-14.7c0-9.2-2.5-14.7-7.4-14.7S186,36.9,186,46C186,55.1,188.6,60.7,193.5,60.7z"/>
	</g>
	<g>
		<path d="M174.3,397.8c0-3.8-2.6-6.4-6.3-6.4c-4.1,0-6.8,3.5-6.8,8.8l-4-0.2c0.1-7.1,4.5-12,10.8-12c6.1,0,10.4,4,10.4,9.8
			c0,7.7-5.9,13-15.4,22.3h15.4v3.4h-21.2V421C168.3,409.9,174.3,405.1,174.3,397.8z"/>
		<path d="M200.2,397.8c0-3.8-2.6-6.4-6.3-6.4c-4.1,0-6.8,3.5-6.8,8.8l-4-0.2c0.1-7.1,4.5-12,10.8-12c6.1,0,10.4,4,10.4,9.8
			c0,7.7-5.9,13-15.4,22.3h15.4v3.4h-21.2V421C194.2,409.9,200.2,405.1,200.2,397.8z"/>
	</g>
</g>
</svg>
