<?xml version="1.0" encoding="utf-8"?>
<!-- Generator: Adobe Illustrator 26.0.3, SVG Export Plug-In . SVG Version: 6.00 Build 0)  -->
<svg version="1.2" baseProfile="tiny" id="Layer_1" xmlns="http://www.w3.org/2000/svg" xmlns:xlink="http://www.w3.org/1999/xlink"
	 x="0px" y="0px" viewBox="0 0 361 451" overflow="visible" xml:space="preserve">
<g>
	<rect x="0.5" y="0.5" fill="#FFFFFF" stroke="#000000" stroke-miterlimit="10" width="360" height="450"/>
	<g>
		<path d="M93.3,178.2h12.6c8.5,0,14.8,4.9,14.8,13.3c0,6.3-4,10.9-10.1,11.9c3.5,0.6,6,2.6,7,6.2c1.4,4.7,0.6,11.2,2.5,15.9h-5.8
			c-1.3-4.1-0.5-10.2-1.6-14.6c-1.4-4.9-6-5.8-11.2-5.8h-2.8v20.3h-5.4V178.2z M105.9,200.6c5.6,0,9.1-3.5,9.1-8.9s-3.6-8.9-9.1-8.9
			h-7.2v17.8H105.9z"/>
		<path d="M122.5,209.3c0-10.2,5.5-16.9,13.7-16.9c8.3,0,13.8,6.8,13.8,16.9c0,10.2-5.5,17-13.8,17
			C128,226.3,122.5,219.5,122.5,209.3z M136.2,222c5.1,0,8.7-4.7,8.7-12.7c0-7.9-3.5-12.7-8.7-12.7c-5.1,0-8.6,4.8-8.6,12.7
			C127.6,217.2,131.1,222,136.2,222z"/>
		<path d="M164.8,208.1l-5.4,5.4v12h-5v-47.3h5v29.1l14.4-14.1h6l-11.2,11.2l11.9,21.1h-5.7L164.8,208.1z"/>
		<path d="M194.4,193.2h5v6c1.8-4.1,5.5-6.8,9.7-6.8c7.9,0,12.7,6.8,12.7,17c0,10.1-4.8,16.9-12.7,16.9c-4.2,0-7.9-2.6-9.7-6.8v18
			h-5V193.2z M208,222c5.3,0,8.7-4.9,8.7-12.7c0-7.9-3.4-12.7-8.7-12.7c-5.1,0-8.6,4.7-8.6,12.7C199.4,217.2,202.8,222,208,222z"/>
		<path d="M226.1,193.2h5v6.5c1.4-4.9,4.9-7.3,8.1-7.3c1.2,0,2.6,0.3,3.7,0.9l-0.5,4.7c-1.2-0.7-2.6-1-3.8-1
			c-2.3,0-7.5,1.9-7.5,12.5v16h-5V193.2z"/>
		<path d="M243.5,209.3c0-9.6,5.6-16.9,13.8-16.9c9.1,0,14,7.9,12.1,17.3h-21.2c0,9.4,5,12.3,9.1,12.3c4.3,0,7-2.7,7.5-6.8l4.9,0.4
			c-0.7,6.4-5.9,10.8-12.4,10.8C248.4,226.3,243.5,218.9,243.5,209.3z M264.9,205.9c0.5-5.6-2.7-9.4-7.7-9.4c-4.7,0-8.1,3.9-8.7,9.4
			H264.9z"/>
		<path d="M127.1,263.1l-5.4,5.4v12h-5v-47.3h5v29.1l14.4-14.1h6l-11.2,11.2l11.9,21.1h-5.7L127.1,263.1z"/>
		<path d="M146,233.2h5v47.3h-5V233.2z"/>
		<path d="M157.3,248.2h5v32.3h-5V248.2z M163.1,233.2h5.7l-6.5,10.5h-4.5L163.1,233.2z"/>
		<path d="M181.7,251.7c-4.9,0-8.3,4.9-8.3,12.4v16.4h-5v-32.3h5v6.1c1.6-3.9,5.4-6.9,9.6-6.9c5,0,8.3,2.9,9.6,7.7
			c1.4-4.3,5.6-7.7,10.4-7.7c6.2,0,10.2,4.6,10.2,11.9v21.3h-5v-20.7c0-4.8-2.4-8.1-6.6-8.1c-4.9,0-8.3,4.9-8.3,11.3v17.5h-5v-20.2
			C188.4,255.1,185.8,251.7,181.7,251.7z"/>
		<path d="M230.8,277c4.9,0,8.5-4.5,8.5-12.7v0.3l0.1-16.5h5l-0.1,32.3h-5v-6.2c-1.7,4.2-5.5,7-9.6,7c-6.9,0-11-4.7-11-12.4v-20.7h5
			v20.5C223.7,273.6,226.5,277,230.8,277z"/>
	</g>
	<g>
		<path d="M173.7,37.8c0-3.8-2.6-6.4-6.3-6.4c-4.1,0-6.8,3.5-6.8,8.8l-4-0.2c0.1-7.1,4.5-12,10.8-12c6.1,0,10.4,4,10.4,9.8
			c0,7.7-5.9,13-15.4,22.3h15.4v3.4h-21.2V61C167.7,49.9,173.7,45.1,173.7,37.8z"/>
		<path d="M181.9,46c0-11.2,4.2-18.1,11.6-18.1c7.3,0,11.6,6.9,11.6,18.1c0,11.1-4.2,18.1-11.6,18.1C186.1,64.1,181.9,57.1,181.9,46
			z M193.5,60.7c5,0,7.4-5.6,7.4-14.7c0-9.2-2.5-14.7-7.4-14.7S186,36.9,186,46C186,55.1,188.6,60.7,193.5,60.7z"/>
	</g>
	<g>
		<path d="M174.3,397.8c0-3.8-2.6-6.4-6.2-6.4c-4.1,0-6.8,3.5-6.8,8.8l-4-0.2c0.1-7.1,4.6-12,10.8-12c6.1,0,10.4,4,10.4,9.8
			c0,7.7-5.9,13-15.4,22.3h15.4v3.4h-21.2V421C168.3,409.9,174.3,405.1,174.3,397.8z"/>
		<path d="M200.2,397.8c0-3.8-2.6-6.4-6.2-6.4c-4.1,0-6.8,3.5-6.8,8.8l-4-0.2c0.1-7.1,4.6-12,10.8-12c6.1,0,10.4,4,10.4,9.8
			c0,7.7-5.9,13-15.4,22.3h15.4v3.4h-21.2V421C194.2,409.9,200.2,405.1,200.2,397.8z"/>
	</g>
</g>
</svg>
