<?xml version="1.0" encoding="utf-8"?>
<!-- Generator: Adobe Illustrator 26.2.1, SVG Export Plug-In . SVG Version: 6.00 Build 0)  -->
<svg version="1.0" id="Layer_1" xmlns="http://www.w3.org/2000/svg" xmlns:xlink="http://www.w3.org/1999/xlink" x="0px" y="0px"
	 viewBox="0 0 57.9 48" enable-background="new 0 0 57.9 48" xml:space="preserve">
<g>
	<path d="M25.2,8c6.6,0,12,5.4,12,12c0,2.4-0.7,4.7-2,6.7l-1.4,2.1l-2.2,1.4c-1.9,1.2-4.1,1.9-6.4,1.9c-6.6,0-12-5.4-12-12
		C13.2,13.4,18.6,8,25.2,8 M25.2,0c-11.1,0-20,9-20,20c0,11.1,9,20,20,20c3.9,0,7.6-1.1,10.7-3.1L46.9,48l5.9-5.9l-11-11
		c2.1-3.2,3.4-7,3.4-11.1C45.2,9,36.2,0,25.2,0L25.2,0z"/>
</g>
</svg>
