<?xml version="1.0" encoding="utf-8"?>
<!-- Generator: Adobe Illustrator 26.0.3, SVG Export Plug-In . SVG Version: 6.00 Build 0)  -->
<svg version="1.2" baseProfile="tiny" id="Layer_1" xmlns="http://www.w3.org/2000/svg" xmlns:xlink="http://www.w3.org/1999/xlink"
	 x="0px" y="0px" viewBox="0 0 176.5 194.5" overflow="visible" xml:space="preserve">
<g>
	<g>
		<path d="M80.3,9.8c0-3.8-2.6-6.4-6.3-6.4c-4.1,0-6.8,3.5-6.8,8.8l-4-0.2c0.1-7.1,4.6-12,10.8-12c6.1,0,10.4,4,10.4,9.8
			c0,7.7-5.9,13-15.4,22.3h15.4v3.4H63.3v-2.5C74.4,21.9,80.3,17.2,80.3,9.8z"/>
		<path d="M88.6,18.1C88.6,6.9,92.8,0,100.2,0c7.3,0,11.6,6.9,11.6,18.1c0,11.1-4.3,18.1-11.6,18.1C92.8,36.1,88.6,29.2,88.6,18.1z
			 M100.2,32.7c5,0,7.4-5.6,7.4-14.7c0-9.2-2.5-14.7-7.4-14.7s-7.5,5.5-7.5,14.7C92.7,27.2,95.2,32.7,100.2,32.7z"/>
	</g>
	<g>
		<path d="M80.9,168.8c0-3.8-2.6-6.4-6.3-6.4c-4.1,0-6.8,3.5-6.8,8.8l-4-0.2c0.1-7.1,4.6-12,10.8-12c6.1,0,10.4,4,10.4,9.8
			c0,7.7-5.9,13-15.4,22.3h15.4v3.4H63.9v-2.5C75,180.9,80.9,176.2,80.9,168.8z"/>
		<path d="M106.8,168.8c0-3.8-2.6-6.4-6.3-6.4c-4.1,0-6.8,3.5-6.8,8.8l-4-0.2c0.1-7.1,4.6-12,10.8-12c6.1,0,10.4,4,10.4,9.8
			c0,7.7-5.9,13-15.4,22.3H111v3.4H89.8v-2.5C100.9,180.9,106.8,176.2,106.8,168.8z"/>
	</g>
	<g>
		<path d="M0,42.2h12.6c8.5,0,14.8,4.9,14.8,13.3c0,6.3-4,10.9-10.1,11.9c3.5,0.6,6,2.6,7,6.2c1.4,4.7,0.6,11.2,2.5,15.9h-5.8
			c-1.3-4.1-0.5-10.2-1.6-14.6c-1.4-4.9-6-5.8-11.2-5.8H5.4v20.3H0V42.2z M12.6,64.6c5.6,0,9.1-3.5,9.1-8.9s-3.6-8.9-9.1-8.9H5.4
			v17.8H12.6z"/>
		<path d="M29.1,73.3c0-10.2,5.5-16.9,13.7-16.9c8.3,0,13.8,6.8,13.8,16.9c0,10.2-5.5,17-13.8,17C34.6,90.3,29.1,83.5,29.1,73.3z
			 M42.8,86c5.1,0,8.7-4.7,8.7-12.7c0-7.9-3.5-12.7-8.7-12.7c-5.1,0-8.6,4.8-8.6,12.7C34.2,81.2,37.7,86,42.8,86z"/>
		<path d="M71.5,72.1l-5.4,5.4v12h-5V42.2h5v29.1l14.4-14.1h6L75.1,68.4L87,89.5h-5.7L71.5,72.1z"/>
		<path d="M101,57.2h5v6c1.8-4.1,5.5-6.8,9.7-6.8c7.9,0,12.7,6.8,12.7,17c0,10.1-4.8,16.9-12.7,16.9c-4.2,0-7.9-2.6-9.7-6.8v18h-5
			V57.2z M114.6,86c5.3,0,8.7-4.9,8.7-12.7c0-7.9-3.4-12.7-8.7-12.7c-5.1,0-8.6,4.7-8.6,12.7C106,81.2,109.5,86,114.6,86z"/>
		<path d="M132.8,57.2h5v6.5c1.4-4.9,4.9-7.3,8.1-7.3c1.2,0,2.6,0.3,3.7,0.9l-0.5,4.7c-1.2-0.7-2.6-1-3.8-1c-2.3,0-7.5,1.9-7.5,12.5
			v16h-5V57.2z"/>
		<path d="M150.1,73.3c0-9.6,5.6-16.9,13.8-16.9c9.1,0,14,7.9,12.1,17.3h-21.2c0,9.4,5,12.3,9.1,12.3c4.3,0,7-2.7,7.5-6.8l4.9,0.4
			c-0.7,6.4-5.9,10.8-12.4,10.8C155.1,90.3,150.1,82.9,150.1,73.3z M171.5,69.9c0.5-5.6-2.7-9.4-7.7-9.4c-4.7,0-8.1,3.9-8.7,9.4
			H171.5z"/>
		<path d="M33.8,127.1l-5.4,5.4v12h-5V97.2h5v29.1l14.4-14.1h6l-11.2,11.2l11.9,21.1h-5.7L33.8,127.1z"/>
		<path d="M52.7,97.2h5v47.3h-5V97.2z"/>
		<path d="M63.9,112.2h5v32.3h-5V112.2z M69.7,97.2h5.7l-6.5,10.5h-4.5L69.7,97.2z"/>
		<path d="M88.3,115.7c-4.9,0-8.3,4.9-8.3,12.4v16.4h-5v-32.3h5v6.1c1.6-3.9,5.4-6.9,9.6-6.9c5,0,8.3,2.9,9.6,7.7
			c1.4-4.3,5.6-7.7,10.4-7.7c6.2,0,10.2,4.6,10.2,11.9v21.3h-5v-20.7c0-4.8-2.4-8.1-6.6-8.1c-4.9,0-8.3,4.9-8.3,11.3v17.5h-5v-20.2
			C95,119.1,92.4,115.7,88.3,115.7z"/>
		<path d="M137.4,141c4.9,0,8.5-4.5,8.5-12.7v0.3l0.1-16.5h5l-0.1,32.3h-5v-6.2c-1.7,4.2-5.5,7-9.6,7c-6.9,0-11-4.7-11-12.4v-20.7h5
			v20.5C130.4,137.6,133.2,141,137.4,141z"/>
	</g>
</g>
</svg>
