<?xml version="1.0" encoding="utf-8"?>
<!-- Generator: Adobe Illustrator 26.0.3, SVG Export Plug-In . SVG Version: 6.00 Build 0)  -->
<svg version="1.2" baseProfile="tiny" id="Layer_1" xmlns="http://www.w3.org/2000/svg" xmlns:xlink="http://www.w3.org/1999/xlink"
	 x="0px" y="0px" viewBox="0 0 315.1 194.5" overflow="visible" xml:space="preserve">
<g>
	<g>
		<path d="M87.6,70.3L74.6,42.2h5.7l10.2,23l10-23h5.8L93.1,70.3v19.2h-5.4V70.3z"/>
		<path d="M101.5,73.3c0-9.6,5.6-16.9,13.8-16.9c9.1,0,14,7.9,12.1,17.3h-21.2c0,9.4,5,12.3,9.1,12.3c4.3,0,7-2.7,7.5-6.8l4.9,0.4
			c-0.7,6.4-5.9,10.8-12.4,10.8C106.4,90.3,101.5,82.9,101.5,73.3z M122.9,69.9c0.5-5.6-2.7-9.4-7.7-9.4c-4.7,0-8.1,3.9-8.7,9.4
			H122.9z"/>
		<path d="M150.7,82.8c-1.4,4.6-5.1,7.5-10.2,7.5c-5.8,0-9.4-3.4-9.4-8.7c0-13.5,19.4-7.9,19.6-15.4c0-2.9-2.4-5.7-7-5.7
			c-4.3,0-7.6,3.3-7.9,7.7l-5-0.5c0.7-6.4,6.2-11.2,12.8-11.2c7.4,0,12.1,4.2,12.1,11.2v13.7c0,1.9,0.3,6.2,1.3,8.2h-5.5
			C151,88,150.8,84.9,150.7,82.8z M141.8,86.2c5.7,0,8.9-6.8,8.9-11.3v-3.1c-3.5,3.6-14.5,1.6-14.5,9.6
			C136.2,84.4,138.3,86.2,141.8,86.2z"/>
		<path d="M161.6,57.2h5v6.5c1.4-4.9,4.9-7.3,8.1-7.3c1.2,0,2.6,0.3,3.7,0.9l-0.5,4.7c-1.2-0.7-2.6-1-3.8-1c-2.3,0-7.5,1.9-7.5,12.5
			v16h-5V57.2z"/>
		<path d="M191,73.3c0-10.2,5.5-16.9,13.7-16.9c8.3,0,13.8,6.8,13.8,16.9c0,10.2-5.5,17-13.8,17C196.4,90.3,191,83.5,191,73.3z
			 M204.6,86c5.1,0,8.7-4.7,8.7-12.7c0-7.9-3.5-12.7-8.7-12.7c-5.1,0-8.6,4.8-8.6,12.7C196,81.2,199.6,86,204.6,86z"/>
		<path d="M234.8,41.4c3.7,0,7.6,2.2,8.5,6.3l-4.5,1.8c-0.6-2.3-2-3.9-4.2-3.9c-2.3,0-4.5,1.8-4.5,6.2v5.4h9.3v4.1h-9.3v28.2h-5
			V61.3h-5.2v-4.1h5.2v-4.9C225.1,44.4,229.7,41.4,234.8,41.4z"/>
		<path d="M0,120.9c0-14.3,7.9-24.5,19-24.5c9.2,0,16.1,5.8,17.2,17.8l-5.4,0.7c-0.4-9.4-5.6-14-11.8-14c-7.9,0-13.4,8.3-13.4,19.9
			s5.6,19.9,13.8,19.9c6.4,0,11.2-5.6,11.4-13.4l5.4,0.4c-0.6,10.4-7.2,17.6-16.9,17.6C7.9,145.3,0,135.1,0,120.9z"/>
		<path d="M40.7,97.2h5v47.3h-5V97.2z"/>
		<path d="M51.6,97.2h5.6v6.2h-5.6V97.2z M52,112.2h5v32.3h-5V112.2z"/>
		<path d="M76.4,115.7c-4.9,0-8.3,4.9-8.3,12.4v16.4h-5v-32.3h5v6.1c1.6-3.9,5.4-6.9,9.6-6.9c5,0,8.3,2.9,9.6,7.7
			c1.4-4.3,5.6-7.7,10.4-7.7c6.2,0,10.2,4.6,10.2,11.9v21.3h-5v-20.7c0-4.8-2.4-8.1-6.6-8.1c-4.9,0-8.3,4.9-8.3,11.3v17.5h-5v-20.2
			C83.1,119.1,80.5,115.7,76.4,115.7z"/>
		<path d="M132.1,137.8c-1.4,4.6-5.1,7.5-10.2,7.5c-5.8,0-9.4-3.4-9.4-8.7c0-13.5,19.4-7.9,19.6-15.4c0-2.9-2.4-5.7-7-5.7
			c-4.3,0-7.6,3.3-7.9,7.7l-5-0.5c0.7-6.4,6.2-11.2,12.8-11.2c7.4,0,12.1,4.2,12.1,11.2v13.7c0,1.9,0.3,6.2,1.3,8.2h-5.5
			C132.4,143,132.2,139.9,132.1,137.8z M123.2,141.2c5.7,0,8.9-6.8,8.9-11.3v-3.1c-3.5,3.6-14.5,1.6-14.5,9.6
			C117.6,139.4,119.7,141.2,123.2,141.2z"/>
		<path d="M146.1,136v-19.6h-6v-4.1h6v-10h5v10h8.5v4.1h-8.5v19c0,3.9,1.5,5.6,4,5.6c1.2,0,2.7-0.5,3.9-2.2l0.9,4.3
			c-1.3,1.5-3.7,2.2-5.1,2.2C149.1,145.3,146.1,141.9,146.1,136z"/>
		<path d="M161.4,128.3c0-9.6,5.6-16.9,13.8-16.9c9.1,0,14,7.9,12.1,17.3h-21.2c0,9.4,5,12.3,9.1,12.3c4.3,0,7-2.7,7.5-6.8l4.9,0.4
			c-0.7,6.4-5.9,10.8-12.4,10.8C166.3,145.3,161.4,137.9,161.4,128.3z M182.8,124.9c0.5-5.6-2.7-9.4-7.7-9.4c-4.7,0-8.1,3.9-8.7,9.4
			H182.8z"/>
		<path d="M201.7,120.9c0-14.3,7.9-24.5,19-24.5c9.2,0,16.1,5.8,17.2,17.8l-5.4,0.7c-0.4-9.4-5.6-14-11.8-14
			c-7.9,0-13.4,8.3-13.4,19.9s5.6,19.9,13.8,19.9c6.4,0,11.2-5.6,11.4-13.4l5.4,0.4c-0.6,10.4-7.2,17.6-16.9,17.6
			C209.6,145.3,201.7,135.1,201.7,120.9z"/>
		<path d="M260.5,137.8c-1.4,4.6-5.1,7.5-10.2,7.5c-5.8,0-9.4-3.4-9.4-8.7c0-13.5,19.4-7.9,19.6-15.4c0-2.9-2.4-5.7-7-5.7
			c-4.3,0-7.6,3.3-7.9,7.7l-5-0.5c0.7-6.4,6.2-11.2,12.8-11.2c7.4,0,12.1,4.2,12.1,11.2v13.7c0,1.9,0.3,6.2,1.3,8.2h-5.5
			C260.8,143,260.6,139.9,260.5,137.8z M251.6,141.2c5.7,0,8.9-6.8,8.9-11.3v-3.1c-3.5,3.6-14.5,1.6-14.5,9.6
			C246,139.4,248.1,141.2,251.6,141.2z"/>
		<path d="M271.4,112.2h5v6.5c1.4-4.9,4.9-7.3,8.1-7.3c1.2,0,2.6,0.3,3.7,0.9l-0.5,4.7c-1.2-0.7-2.6-1-3.8-1
			c-2.3,0-7.5,1.9-7.5,12.5v16h-5V112.2z"/>
		<path d="M288.8,128.3c0-9.6,5.6-16.9,13.8-16.9c9.1,0,14,7.9,12.1,17.3h-21.2c0,9.4,5,12.3,9.1,12.3c4.3,0,7-2.7,7.5-6.8l4.9,0.4
			c-0.7,6.4-5.9,10.8-12.4,10.8C293.7,145.3,288.8,137.9,288.8,128.3z M310.2,124.9c0.5-5.6-2.7-9.4-7.7-9.4c-4.7,0-8.1,3.9-8.7,9.4
			H310.2z"/>
	</g>
	<g>
		<path d="M150.6,9.8c0-3.8-2.6-6.4-6.3-6.4c-4.1,0-6.8,3.5-6.8,8.8l-4-0.2c0.1-7.1,4.6-12,10.8-12c6.1,0,10.4,4,10.4,9.8
			c0,7.7-5.9,13-15.4,22.3h15.4v3.4h-21.2v-2.5C144.7,21.9,150.6,17.2,150.6,9.8z"/>
		<path d="M158.9,18.1c0-11.2,4.2-18.1,11.6-18.1c7.3,0,11.6,6.9,11.6,18.1c0,11.1-4.3,18.1-11.6,18.1
			C163.1,36.1,158.9,29.2,158.9,18.1z M170.5,32.7c5,0,7.4-5.6,7.4-14.7c0-9.2-2.5-14.7-7.4-14.7S163,8.9,163,18.1
			C163,27.2,165.5,32.7,170.5,32.7z"/>
	</g>
	<g>
		<path d="M151.2,168.8c0-3.8-2.6-6.4-6.3-6.4c-4.1,0-6.8,3.5-6.8,8.8l-4-0.2c0.1-7.1,4.6-12,10.8-12c6.1,0,10.4,4,10.4,9.8
			c0,7.7-5.9,13-15.4,22.3h15.4v3.4h-21.2v-2.5C145.3,180.9,151.2,176.2,151.2,168.8z"/>
		<path d="M177.1,168.8c0-3.8-2.6-6.4-6.3-6.4c-4.1,0-6.8,3.5-6.8,8.8l-4-0.2c0.1-7.1,4.6-12,10.8-12c6.1,0,10.4,4,10.4,9.8
			c0,7.7-5.9,13-15.4,22.3h15.4v3.4h-21.2v-2.5C171.2,180.9,177.1,176.2,177.1,168.8z"/>
	</g>
</g>
</svg>
