<?xml version="1.0" encoding="utf-8"?>
<!-- Generator: Adobe Illustrator 26.0.3, SVG Export Plug-In . SVG Version: 6.00 Build 0)  -->
<svg version="1.2" baseProfile="tiny" id="Ebene_1" xmlns="http://www.w3.org/2000/svg" xmlns:xlink="http://www.w3.org/1999/xlink"
	 x="0px" y="0px" viewBox="0 0 491 142.6" overflow="visible" xml:space="preserve">
<g>
	<path d="M5,35.8H0L13.8,0H19l14.3,35.8h-5.3L24,25H8.9L5,35.8z M18.5,10.2C17.7,8.1,17,6.1,16.4,4h0c-0.6,2.1-1.2,4.1-2,6.2
		l-4,10.8h12.2L18.5,10.2z"/>
	<path d="M38.2,30.5h5.3v5.3h-5.3V30.5z"/>
	<path d="M50,30.5h5.3v5.3H50V30.5z"/>
	<path d="M61.7,30.5H67v5.3h-5.3V30.5z"/>
	<path d="M73.2,0h4.4v20.7L88.6,9.9h5.8l-10.1,9.6l11,16.4H90l-8.9-13.4l-3.6,3.3v10.1h-4.4V0z"/>
	<path d="M108.1,9.3c5.7,0,10,2.7,10,7.4v12.9c0,2-0.2,3.1,0.8,3.1c0.2,0,0.5-0.1,0.8-0.1l0.3,3.2c-0.8,0.2-1.4,0.3-2.5,0.3
		c-2.8,0.2-3.5-2.1-3.5-3.6c-2.8,3.1-5.8,4-9.3,4c-5.2,0-8.7-2.8-8.7-7.6c0-4.9,3.8-7.2,9.5-7.6c5-0.3,7.5-1.5,8.3-2.8
		c0-0.4,0-0.8,0-1.1c0-3.2-2.3-4.4-6.1-4.4c-3.9,0-6.1,1.4-6.6,5.1l-4.3-0.3C97.6,11.8,101.6,9.3,108.1,9.3z M113.6,22.5
		c-1.6,1-4.4,1.6-7.4,1.9c-3.6,0.4-5.7,1.5-5.7,4.4c0,2.6,2.1,4,5.1,4c4,0,6.6-1.9,7.6-4.2c0.3-0.7,0.5-1.7,0.5-3v-3.1H113.6z"/>
	<path d="M141.3,13.1L141.3,13.1l0-13.1h4.4v35.8h-4.2v-3.4h0c-1.6,2.8-4.4,4-7.8,4c-7.1,0-11.5-5.9-11.5-13.5
		c0-7.7,4.3-13.6,11.1-13.6C136.4,9.3,139.6,10.5,141.3,13.1z M134.2,32.7c4.8,0,7.4-4.1,7.4-9.6c0-6.2-2.6-10.1-7.7-10.1
		c-4.8,0-7.3,4.1-7.3,10C126.7,28.8,129.6,32.7,134.2,32.7z"/>
	<path d="M173.7,21.5c0,0.6,0.1,1.8,0,2.6h-19.4c0,5.1,3,8.7,7.9,8.7c3.4,0,5.8-1.6,6.8-5.2l4.4,0.3c-1.3,5.6-5.3,8.6-11.2,8.6
		c-7.7,0-12.4-5.6-12.4-13.5c0-6.2,3.4-13.6,12.2-13.6C169.3,9.3,173.4,14.8,173.7,21.5z M154.4,20.4h14.7c-0.2-3.7-2.4-7.4-7.3-7.4
		C157.5,13,154.7,16.1,154.4,20.4z"/>
	<path d="M209.2,18c0-2.9-1.3-5-4.8-5c-3.9,0-6.6,2.4-6.6,7.2v15.6h-4.3V18.9c0-3.7-1.2-5.8-4.8-5.8c-4,0-6.1,3-6.5,5.8
		c-0.1,1.2-0.2,2.4-0.2,3.8v13.2h-4.3V9.9h4v3.8h0c1.8-2.8,4.6-4.3,8.1-4.3c3.6,0,6.2,1.5,7.2,4.5c2-3,4.8-4.5,8-4.5
		c5.2,0,8.4,2.5,8.4,8.1v18.4h-4.3V18z"/>
	<path d="M219.3,0h4.4v5.1h-4.4V0z M219.3,9.9h4.4v25.9h-4.4V9.9z"/>
	<path d="M251.7,21.5c0,0.6,0.1,1.8,0,2.6h-19.4c0,5.1,3,8.7,7.9,8.7c3.4,0,5.8-1.6,6.9-5.2l4.3,0.3c-1.3,5.6-5.3,8.6-11.2,8.6
		c-7.7,0-12.4-5.6-12.4-13.5c0-6.2,3.4-13.6,12.2-13.6C247.3,9.3,251.5,14.8,251.7,21.5z M232.5,20.4h14.7c-0.2-3.7-2.4-7.4-7.3-7.4
		C235.5,13,232.7,16.1,232.5,20.4z"/>
	<path d="M285.7,13.1L285.7,13.1l0-13.1h4.4v35.8h-4.2v-3.4h0c-1.6,2.8-4.4,4-7.8,4c-7.1,0-11.5-5.9-11.5-13.5
		c0-7.7,4.3-13.6,11.1-13.6C280.9,9.3,284.1,10.5,285.7,13.1z M278.7,32.7c4.8,0,7.4-4.1,7.4-9.6c0-6.2-2.6-10.1-7.7-10.1
		c-4.8,0-7.3,4.1-7.3,10C271.1,28.8,274,32.7,278.7,32.7z"/>
	<path d="M318.2,21.5c0,0.6,0.1,1.8,0,2.6h-19.4c0,5.1,3,8.7,7.9,8.7c3.4,0,5.8-1.6,6.8-5.2l4.4,0.3c-1.3,5.6-5.3,8.6-11.2,8.6
		c-7.7,0-12.4-5.6-12.4-13.5c0-6.2,3.4-13.6,12.2-13.6C313.8,9.3,317.9,14.8,318.2,21.5z M298.9,20.4h14.7c-0.2-3.7-2.4-7.4-7.3-7.4
		C302,13,299.2,16.1,298.9,20.4z"/>
	<path d="M336.2,10l-0.8,4.2c-0.6-0.2-1.3-0.3-2-0.3c-6.8,0-6.8,6.1-6.8,10.7v11.2h-4.3V9.9h4v4.9h0.2c1.7-3.6,3.5-4.9,6-5.2
		C333.8,9.4,335.2,9.5,336.2,10z"/>
	<path d="M8,50v13.1h0.1c1.8-2.7,4.6-3.8,7.8-3.8c7.3,0,11.4,6,11.4,13.4c0,7.4-3.9,13.7-11.5,13.7c-2.9,0-6-1.1-7.8-4H7.9v3.4H3.7
		V50H8z M15.3,62.9c-5.3,0-7.5,4.9-7.5,9.8c0,2.9,0.5,5.2,1.6,6.8c1.4,2,3.3,3.1,6,3.1c4.8,0,7.4-4.1,7.4-10
		C22.7,66.9,19.9,62.9,15.3,62.9z"/>
	<path d="M31.6,50H36v5.1h-4.4V50z M31.6,59.8H36v25.9h-4.4V59.8z"/>
	<path d="M41.7,50H46v35.8h-4.4V50z"/>
	<path d="M69.5,63.1L69.5,63.1l0-13.1h4.4v35.8h-4.2v-3.4h0c-1.6,2.8-4.4,4-7.8,4c-7.1,0-11.5-5.8-11.5-13.5
		c0-7.7,4.2-13.6,11.1-13.6C64.6,59.3,67.8,60.5,69.5,63.1z M62.4,82.6c4.8,0,7.4-4,7.4-9.6c0-6.2-2.7-10.1-7.7-10.1
		c-4.9,0-7.3,4-7.3,10C54.9,78.8,57.8,82.6,62.4,82.6z"/>
	<path d="M101.9,71.4c0,0.6,0,1.8-0.1,2.6H82.5c0.1,5.1,3,8.6,7.9,8.6c3.4,0,5.8-1.6,6.9-5.2l4.4,0.3c-1.4,5.6-5.3,8.6-11.2,8.6
		c-7.7,0-12.4-5.5-12.4-13.5c0-6.2,3.4-13.6,12.2-13.6C97.5,59.3,101.6,64.7,101.9,71.4z M82.6,70.4h14.7c-0.1-3.7-2.4-7.4-7.2-7.4
		C85.7,62.9,82.9,66.1,82.6,70.4z"/>
	<path d="M123,68.4c0-3.5-1.9-5.4-5.3-5.4c-4.9,0-7.3,3.2-7.3,8.4v14.4h-4.3V59.8h4v3.9h0c1.9-3,4.6-4.5,8.4-4.5
		c6.9,0,8.9,4.4,8.9,10v16.5H123V68.4z"/>
	<path d="M150.6,63.1L150.6,63.1l0-13.1h4.4v35.8h-4.2v-3.4h0c-1.6,2.8-4.4,4-7.8,4c-7.1,0-11.5-5.8-11.5-13.5
		c0-7.7,4.3-13.6,11.1-13.6C145.8,59.3,149,60.5,150.6,63.1z M143.6,82.6c4.8,0,7.4-4,7.4-9.6c0-6.2-2.6-10.1-7.7-10.1
		c-4.8,0-7.3,4-7.3,10C136,78.8,138.9,82.6,143.6,82.6z"/>
	<path d="M183.1,71.4c0,0.6,0.1,1.8,0,2.6h-19.4c0,5.1,3,8.6,7.9,8.6c3.4,0,5.8-1.6,6.8-5.2l4.4,0.3c-1.3,5.6-5.3,8.6-11.2,8.6
		c-7.7,0-12.4-5.5-12.4-13.5c0-6.2,3.4-13.6,12.2-13.6C178.7,59.3,182.8,64.7,183.1,71.4z M163.8,70.4h14.7
		c-0.2-3.7-2.4-7.4-7.3-7.4C166.9,62.9,164.1,66.1,163.8,70.4z"/>
	<path d="M204.2,68.4c0-3.5-1.9-5.4-5.3-5.4c-4.8,0-7.3,3.2-7.3,8.4v14.4h-4.3V59.8h4v3.9h0c1.9-3,4.6-4.5,8.4-4.5
		c6.9,0,8.9,4.4,8.9,10v16.5h-4.3V68.4z"/>
	<path d="M227.2,50h4.8v17.8l18-17.8h6.3l-15.1,14.5l15.7,21.3h-6l-12.9-18.1l-5.9,5.7v12.5h-4.8V50z"/>
	<path d="M275.1,74.1V59.8h4.4v25.9h-4v-4h0c-1.9,3-4.7,4.5-8.4,4.5c-5,0-7.6-2.5-8.5-6c-0.2-1-0.3-2.2-0.3-4V59.8h4.3v14.2
		c0,1.8,0,3.1,0.2,4.1c0.3,2.8,2.2,4.5,5.2,4.5C272.9,82.6,275.1,78.8,275.1,74.1z M262,50.8h4.6v5.1H262V50.8z M271.3,50.8h4.5v5.1
		h-4.5V50.8z"/>
	<path d="M302,68.4c0-3.5-1.9-5.4-5.3-5.4c-4.8,0-7.3,3.2-7.3,8.4v14.4h-4.3V59.8h4v3.9h0c1.9-3,4.6-4.5,8.4-4.5
		c6.9,0,8.9,4.4,8.9,10v16.5H302V68.4z"/>
	<path d="M320.9,62.9c-3.3,0-5.5,1.1-5.5,3.4c0,1.6,1.3,2.6,3.3,3.2c1.9,0.5,6.7,1.8,8.7,2.5c2.8,1,4.7,2.9,4.7,6.3
		c0,5.3-5,8.1-10.7,8.1c-6.2,0-10.6-2.6-11-8.5l4.3-0.3c0.3,3.6,3,5.1,6.8,5.1c3.4,0,6.1-1.3,6.1-3.9c0-1.7-1.2-2.7-2.8-3.2
		c-2.6-0.8-6.9-2-9-2.7c-2.7-1-4.9-3.1-4.9-6.1c0-5.2,5-7.4,9.8-7.4c6.1,0,9.9,2.1,10.3,7.7l-4.2,0.3
		C326.4,64.2,324,62.9,320.9,62.9z"/>
	<path d="M341.6,51.2v8.6h4.8v3.6h-4.8v15.8c0,2,0.8,2.8,2.8,2.8c0.6,0,1.3,0,2-0.1l0.3,3.8c-1.2,0.1-2.2,0.2-3.2,0.2
		c-3.7,0-6.2-1.5-6.2-6.5V63.4h-3.8v-3.6h3.8v-7L341.6,51.2z"/>
	<path d="M371.5,71.4c0,0.6,0.1,1.8,0,2.6h-19.4c0,5.1,3,8.6,7.9,8.6c3.4,0,5.8-1.6,6.8-5.2l4.4,0.3c-1.3,5.6-5.3,8.6-11.2,8.6
		c-7.7,0-12.4-5.5-12.4-13.5c0-6.2,3.4-13.6,12.2-13.6C367.1,59.3,371.2,64.7,371.5,71.4z M352.2,70.4h14.7
		c-0.2-3.7-2.4-7.4-7.3-7.4C355.3,62.9,352.5,66.1,352.2,70.4z"/>
	<path d="M404.3,50h5.4l6.4,23.7l1.5,6.6h0l1.7-6.9L425,50h4.8L420,85.8h-4.8l-7-25.6l-1.4-5.2h-0.1l-1.3,5.2l-7.1,25.6h-4.9
		L384.2,50h4.9l5.5,23.4l1.5,6.9h0l1.6-6.5L404.3,50z"/>
	<path d="M433.2,50h4.4v5.1h-4.4V50z M433.2,59.8h4.4v25.9h-4.4V59.8z"/>
	<path d="M465.6,71.4c0,0.6,0.1,1.8,0,2.6h-19.4c0,5.1,3,8.6,7.9,8.6c3.4,0,5.8-1.6,6.8-5.2l4.4,0.3c-1.3,5.6-5.3,8.6-11.2,8.6
		c-7.7,0-12.4-5.5-12.4-13.5c0-6.2,3.4-13.6,12.2-13.6C461.2,59.3,465.3,64.7,465.6,71.4z M446.3,70.4H461c-0.2-3.7-2.4-7.4-7.3-7.4
		C449.4,62.9,446.6,66.1,446.3,70.4z"/>
	<path d="M486.7,68.4c0-3.5-1.9-5.4-5.3-5.4c-4.8,0-7.3,3.2-7.3,8.4v14.4h-4.3V59.8h4v3.9h0c1.9-3,4.6-4.5,8.4-4.5
		c6.9,0,8.9,4.4,8.9,10v16.5h-4.3V68.4z"/>
	<path d="M3.3,135.7H0.1l9.1-23.6h3.4l9.4,23.6h-3.5l-2.7-7.1h-10L3.3,135.7z M12.2,118.9c-0.5-1.4-1-2.7-1.4-4.1h0
		c-0.4,1.4-0.8,2.7-1.3,4.1L6.9,126h8L12.2,118.9z"/>
	<path d="M30.5,118.3c3.8,0,6.5,2.1,7,5.6l-2.8,0.2c-0.5-2.2-2-3.4-4.1-3.4c-3.4,0-5.1,2.7-5.1,6.6c0,3.9,1.7,6.4,4.9,6.4
		c2.5,0,4.1-1.4,4.5-4.2l2.9,0.2c-0.6,4.1-3.3,6.5-7.3,6.5c-4.9,0-7.9-3.4-7.9-8.8C22.5,121.8,25.8,118.3,30.5,118.3z"/>
	<path d="M47.6,118.3c3.8,0,6.6,1.8,6.6,4.9v8.5c0,1.3-0.1,2,0.5,2c0.1,0,0.3,0,0.5-0.1l0.2,2.1c-0.5,0.1-0.9,0.2-1.6,0.2
		c-1.8,0.1-2.3-1.4-2.3-2.4c-1.8,2-3.8,2.6-6.1,2.6c-3.4,0-5.7-1.8-5.7-5c0-3.2,2.5-4.8,6.2-5c3.3-0.2,5-1,5.5-1.8
		c0-0.3,0-0.5,0-0.7c0-2.1-1.5-2.9-4-2.9c-2.5,0-4,0.9-4.4,3.4l-2.8-0.2C40.7,119.9,43.4,118.3,47.6,118.3z M51.3,127
		c-1.1,0.6-2.9,1.1-4.9,1.3c-2.4,0.2-3.7,1-3.7,2.9c0,1.7,1.4,2.6,3.4,2.6c2.6,0,4.3-1.3,5-2.8c0.2-0.5,0.3-1.1,0.3-1.9L51.3,127
		L51.3,127z"/>
	<path d="M69.7,120.8L69.7,120.8l0-8.6h2.9v23.6h-2.8v-2.2h0c-1,1.8-2.9,2.6-5.1,2.6c-4.7,0-7.6-3.9-7.6-8.9c0-5.1,2.8-8.9,7.3-8.9
		C66.5,118.3,68.6,119.1,69.7,120.8z M65,133.7c3.1,0,4.9-2.7,4.9-6.3c0-4.1-1.7-6.7-5-6.7c-3.2,0-4.8,2.7-4.8,6.6
		C60,131.1,62,133.7,65,133.7z"/>
	<path d="M91.2,126.3c0,0.4,0,1.2,0,1.7H78.4c0,3.4,1.9,5.7,5.2,5.7c2.2,0,3.8-1.1,4.5-3.4l2.9,0.2c-0.9,3.7-3.5,5.7-7.4,5.7
		c-5.1,0-8.2-3.7-8.2-8.9c0-4.1,2.2-9,8-9C88.3,118.3,91.1,121.9,91.2,126.3z M78.5,125.6h9.7c-0.1-2.4-1.6-4.9-4.8-4.9
		C80.6,120.7,78.7,122.8,78.5,125.6z"/>
	<path d="M114.9,124c0-1.9-0.9-3.3-3.2-3.3c-2.5,0-4.3,1.6-4.3,4.7v10.3h-2.8v-11.2c0-2.4-0.8-3.8-3.1-3.8c-2.6,0-4,2-4.3,3.8
		c-0.1,0.8-0.1,1.6-0.1,2.5v8.7h-2.8v-17.1h2.6v2.5h0c1.2-1.8,3-2.8,5.3-2.8s4.1,1,4.8,2.9c1.3-1.9,3.2-2.9,5.3-2.9
		c3.4,0,5.5,1.6,5.5,5.3v12.1h-2.9V124z"/>
	<path d="M132.3,118.7h2.9l-7.8,20.3c-1.1,2.8-2.3,3.6-4.6,3.6c-0.6,0-1.3-0.1-1.9-0.3l-0.2-2.7c0.6,0.2,1.1,0.4,1.7,0.4
		c1.2,0,2-0.3,2.4-1.4l1.2-2.9l-6.6-17.1h3.1l3.4,9.7l1.4,4.3h0l1.5-4.3L132.3,118.7z"/>
	<path d="M144.1,127.2c0-3.8,1.9-8.9,8.2-8.9c5.5,0,8.2,4.2,8.2,8.8c0,4.5-2.3,9-8.2,9C147.1,136.1,144.1,132.5,144.1,127.2z
		 M152.3,133.7c2.9,0,5.2-2.2,5.2-6.5c0-4.2-2.3-6.5-5.2-6.5s-5.1,2.2-5.1,6.5C147.1,131.5,149.4,133.7,152.3,133.7z"/>
	<path d="M170.7,114.6c-0.6-0.1-1.1-0.2-1.6-0.2c-1.7,0-2.3,0.5-2.3,2.3v1.9h3.3v2.4h-3.3v14.7H164V121h-2.7v-2.4h2.7
		c0-2.8,0-3.2,0.1-3.4c0.4-2,1.7-3.4,4.7-3.4c0.6,0,1.6,0.1,2.3,0.3L170.7,114.6z"/>
	<path d="M180.7,112.2h15.7v2.7h-12.6v7.4h11v2.7h-11v10.8h-3.1V112.2z"/>
	<path d="M199.2,112.2h2.9v3.4h-2.9V112.2z M199.2,118.7h2.9v17.1h-2.9V118.7z"/>
	<path d="M217.1,124.3c0-2.3-1.2-3.5-3.5-3.5c-3.2,0-4.8,2.1-4.8,5.5v9.5H206v-17.1h2.6v2.6h0c1.2-1.9,3-2.9,5.5-2.9
		c4.6,0,5.8,2.9,5.8,6.6v10.9h-2.8V124.3z"/>
	<path d="M238.6,126.3c0,0.4,0,1.2,0,1.7h-12.8c0,3.4,1.9,5.7,5.2,5.7c2.2,0,3.8-1.1,4.5-3.4l2.9,0.2c-0.9,3.7-3.5,5.7-7.4,5.7
		c-5.1,0-8.2-3.7-8.2-8.9c0-4.1,2.2-9,8-9C235.7,118.3,238.4,121.9,238.6,126.3z M225.9,125.6h9.7c-0.1-2.4-1.6-4.9-4.8-4.9
		C227.9,120.7,226,122.8,225.9,125.6z"/>
	<path d="M250.4,135.7h-3.3l9.1-23.6h3.4l9.4,23.6h-3.5l-2.7-7.1h-10L250.4,135.7z M259.3,118.9c-0.5-1.4-1-2.7-1.4-4.1h0
		c-0.4,1.4-0.8,2.7-1.3,4.1l-2.6,7.1h8L259.3,118.9z"/>
	<path d="M280.3,118.8l-0.5,2.8c-0.4-0.1-0.9-0.2-1.3-0.2c-4.5,0-4.5,4-4.5,7v7.4h-2.8v-17.1h2.6v3.2h0.1c1.1-2.3,2.3-3.2,4-3.4
		C278.8,118.3,279.7,118.4,280.3,118.8z"/>
	<path d="M286.7,113v5.7h3.2v2.4h-3.2v10.4c0,1.3,0.5,1.8,1.8,1.8c0.4,0,0.9,0,1.4-0.1l0.2,2.5c-0.8,0.1-1.5,0.2-2.1,0.2
		c-2.4,0-4.1-1-4.1-4.3V121h-2.5v-2.4h2.5V114L286.7,113z"/>
	<path d="M298.4,120.7c-2.2,0-3.7,0.7-3.7,2.2c0,1.1,0.9,1.7,2.2,2.1c1.3,0.4,4.4,1.2,5.7,1.6c1.8,0.7,3.1,1.9,3.1,4.2
		c0,3.5-3.3,5.4-7.1,5.4c-4.1,0-7-1.7-7.3-5.6l2.8-0.2c0.2,2.4,2,3.4,4.5,3.4c2.2,0,4-0.9,4-2.6c0-1.1-0.8-1.8-1.8-2.1
		c-1.7-0.5-4.5-1.3-5.9-1.8c-1.8-0.7-3.2-2-3.2-4c0-3.4,3.3-4.9,6.4-4.9c4,0,6.5,1.4,6.8,5l-2.8,0.2
		C302,121.6,300.5,120.7,298.4,120.7z"/>
	<path d="M326.7,135.7h-3.5l-8.7-23.6h3.4l5.6,16.2l1.4,4.5h0.1l1.5-4.5l5.7-16.2h3.2L326.7,135.7z"/>
	<path d="M337.7,112.2h2.9v3.4h-2.9V112.2z M337.7,118.7h2.9v17.1h-2.9V118.7z"/>
	<path d="M359.2,126.3c0,0.4,0,1.2,0,1.7h-12.8c0,3.4,1.9,5.7,5.2,5.7c2.2,0,3.8-1.1,4.5-3.4l2.9,0.2c-0.9,3.7-3.5,5.7-7.4,5.7
		c-5.1,0-8.2-3.7-8.2-8.9c0-4.1,2.2-9,8-9C356.3,118.3,359.1,121.9,359.2,126.3z M346.5,125.6h9.7c-0.1-2.4-1.6-4.9-4.8-4.9
		C348.6,120.7,346.7,122.8,346.5,125.6z"/>
	<path d="M373.3,124.3c0-2.3-1.2-3.5-3.5-3.5c-3.2,0-4.8,2.1-4.8,5.5v9.5h-2.8v-17.1h2.6v2.6h0c1.2-1.9,3-2.9,5.5-2.9
		c4.6,0,5.8,2.9,5.8,6.6v10.9h-2.8V124.3z"/>
	<path d="M391.3,124.3c0-2.3-1.2-3.5-3.5-3.5c-3.2,0-4.8,2.1-4.8,5.5v9.5h-2.8v-17.1h2.6v2.6h0c1.2-1.9,3-2.9,5.5-2.9
		c4.6,0,5.8,2.9,5.8,6.6v10.9h-2.8V124.3z"/>
	<path d="M405,118.3c3.8,0,6.6,1.8,6.6,4.9v8.5c0,1.3-0.1,2,0.5,2c0.1,0,0.3,0,0.5-0.1l0.2,2.1c-0.5,0.1-0.9,0.2-1.6,0.2
		c-1.8,0.1-2.3-1.4-2.3-2.4c-1.8,2-3.8,2.6-6.1,2.6c-3.4,0-5.7-1.8-5.7-5c0-3.2,2.5-4.8,6.2-5c3.3-0.2,5-1,5.5-1.8
		c0-0.3,0-0.5,0-0.7c0-2.1-1.5-2.9-4-2.9c-2.5,0-4,0.9-4.4,3.4l-2.8-0.2C398.1,119.9,400.7,118.3,405,118.3z M408.7,127
		c-1.1,0.6-2.9,1.1-4.9,1.3c-2.4,0.2-3.7,1-3.7,2.9c0,1.7,1.4,2.6,3.4,2.6c2.6,0,4.3-1.3,5-2.8c0.2-0.5,0.3-1.1,0.3-1.9L408.7,127
		L408.7,127z"/>
</g>
</svg>
