<?xml version="1.0" encoding="utf-8"?>
<!-- Generator: Adobe Illustrator 26.0.3, SVG Export Plug-In . SVG Version: 6.00 Build 0)  -->
<svg version="1.2" baseProfile="tiny" id="Layer_1" xmlns="http://www.w3.org/2000/svg" xmlns:xlink="http://www.w3.org/1999/xlink"
	 x="0px" y="0px" viewBox="0 0 283.5 511.7" overflow="visible" xml:space="preserve">
<g>
	<path fill="#A1C520" d="M231.8,11.5c22.2,0,40.2,18,40.2,40.2c0,22.2-18,40.2-40.2,40.2c-22.2,0-40.2-18-40.2-40.2
		C191.6,29.5,209.6,11.5,231.8,11.5L231.8,11.5z M231.8,103.4c28.5,0,51.7-23.1,51.7-51.7c0-28.5-23.1-51.7-51.7-51.7
		c-28.6,0-51.7,23.1-51.7,51.7C180.1,80.2,203.2,103.4,231.8,103.4L231.8,103.4z"/>
	<path fill="#A1C520" d="M102.2,141.7c0-21.8,17.7-39.6,39.6-39.6l0-11.3c-28.1,0-50.9,22.7-50.9,50.8c0,28.1,22.8,50.9,50.9,50.9
		c28.1,0,50.8-22.8,50.8-50.9l-11.2,0c0,21.8-17.8,39.6-39.6,39.6C119.9,181.3,102.2,163.6,102.2,141.7L102.2,141.7z"/>
	<path fill="#A1C520" d="M68.3,141.7c0,40.6,32.9,73.4,73.4,73.4c40.6,0,73.5-32.9,73.5-73.4l-11.2,0c0,34.3-27.9,62.2-62.3,62.2
		c-34.3,0-62.2-27.8-62.2-62.2c0-34.3,27.8-62.1,62.2-62.1l0-11.3C101.2,68.3,68.3,101.2,68.3,141.7L68.3,141.7z"/>
	<path fill="#A1C520" d="M45.5,141.7c0,53.1,43.1,96.2,96.2,96.2c53.1,0,96.1-43.1,96.1-96.2l-11.3,0c0,46.8-38,84.7-84.8,84.7
		c-46.8,0-84.7-37.9-84.7-84.7C57,95,94.9,57,141.7,57l0-11.4C88.6,45.6,45.5,88.6,45.5,141.7L45.5,141.7z"/>
	<path fill="#A1C520" d="M141.7,22.7C76,22.7,22.7,76,22.7,141.7c0,65.8,53.3,119.1,119.1,119.1c65.7,0,119-53.3,119-119l-11.3,0
		c0,59.4-48.2,107.6-107.6,107.6c-59.4,0-107.6-48.2-107.6-107.6c0-59.4,48.2-107.6,107.6-107.6V22.7L141.7,22.7z"/>
	<path fill="#A1C520" d="M141.7,272.2c-72,0-130.4-58.4-130.4-130.4c0-72,58.4-130.4,130.4-130.4l0-11.3C63.5,0,0,63.5,0,141.7
		C0,220,63.5,283.5,141.7,283.5c78.3,0,141.7-63.4,141.7-141.7l-11.2,0C272.3,213.8,213.8,272.2,141.7,272.2L141.7,272.2z"/>
	<path fill="#A1C520" d="M27.7,382.9c5.7,0,12.6-1.3,16.4-3v-30.7H24.8v9.7h7.7v13.8c-1.3,0.2-3.4,0.3-5.1,0.3
		c-8.6,0-15.2-4.5-15.2-19c0-14.3,6.7-18.8,16.7-18.8c4.2,0,9.7,0.9,13.1,2.3l1.2-9.7c-3.9-1.6-10.2-2.5-15-2.5
		c-17.2,0-28.3,9-28.3,28.9C0,373.5,10.3,382.9,27.7,382.9L27.7,382.9z"/>
	<polygon fill="#A1C520" points="222.5,381.8 234.5,381.8 234.5,326 222.5,326 222.5,348 204.6,348 204.6,326 192.6,326 
		192.6,381.8 204.6,381.8 204.6,358 222.5,358 222.5,381.8 	"/>
	<polygon fill="#A1C520" points="173.8,381.8 173.8,336 185.9,336 185.9,326 149.5,326 149.5,336 161.6,336 161.6,381.8 
		173.8,381.8 	"/>
	<polygon fill="#A1C520" points="121.4,358 141,358 141,348.2 121.4,348.2 121.4,335.9 144.5,335.9 144.5,326 109.4,326 
		109.4,381.8 145.3,381.8 145.3,371.8 121.4,371.8 121.4,358 	"/>
	<path fill="#A1C520" d="M76.6,334.3c7.6,0,11.2,4.8,11.2,19.6c0,14.7-3.6,19.7-11.2,19.7c-7.6,0-11.3-4.9-11.3-19.7
		C65.3,339.1,69,334.3,76.6,334.3L76.6,334.3z M76.6,383.4c15.8,0,23.5-8.5,23.5-29.6c0-20.6-7.6-29.5-23.5-29.5
		c-15.8,0-23.5,8.9-23.5,29.5C53.1,374.4,61,383.4,76.6,383.4L76.6,383.4z"/>
	<polygon fill="#A1C520" points="282.3,371.8 258.3,371.8 258.3,358 278,358 278,348.2 258.3,348.2 258.3,335.9 281.5,335.9 
		281.5,326 246.3,326 246.3,381.8 282.3,381.8 282.3,371.8 	"/>
	<polygon fill="#A1C520" points="107.8,410.6 118.9,410.6 118.9,454.7 130.5,454.7 130.5,410.6 141.6,410.6 141.6,400.9 
		107.8,400.9 107.8,410.6 	"/>
	<polygon fill="#A1C520" points="4,454.7 15.8,454.7 15.8,400.9 4,400.9 4,454.7 	"/>
	<path fill="#A1C520" d="M232.6,436c0,6.2-2.1,9.7-8,9.7c-5.8,0-8-3.5-8-9.7v-35.1h-11.7v35.5c0,12.9,6.6,19.2,19.7,19.2
		c12.9,0,19.6-6.3,19.6-19.2v-35.5h-11.6V436L232.6,436z"/>
	<path fill="#A1C520" d="M85.2,415.2c0-2.8,1.4-5.5,7.3-5.5c3.7,0,6.9,1,10.2,2.4l1.3-9.4c-3.7-1.7-7.6-2.7-12.5-2.7
		c-12.4,0-17.8,7.2-17.8,16.3c0,17.3,21.4,14,21.4,23.6c0,3.7-2.3,6.2-7.2,6.2c-4.8,0-8.9-1.6-12.9-3.9l-1.5,9.6
		c4.2,2.4,9.3,3.8,14.9,3.8c11.6,0,18.2-6.5,18.2-17C106.6,420.8,85.2,423.6,85.2,415.2L85.2,415.2z"/>
	<polygon fill="#A1C520" points="54.8,432.3 38.3,400.9 27.6,400.9 27.6,454.7 38.3,454.7 38.3,423.3 54.8,454.7 65.5,454.7 
		65.5,400.9 54.8,400.9 54.8,432.3 	"/>
	<polygon fill="#A1C520" points="249.6,400.9 249.6,410.6 260.7,410.6 260.7,454.7 272.4,454.7 272.4,410.6 283.5,410.6 
		283.5,400.9 249.6,400.9 	"/>
	<polygon fill="#A1C520" points="147.6,454.7 159.4,454.7 159.4,400.9 147.6,400.9 147.6,454.7 	"/>
	<polygon fill="#A1C520" points="165.4,410.6 176.5,410.6 176.5,454.7 188.2,454.7 188.2,410.6 199.3,410.6 199.3,400.9 
		165.4,400.9 165.4,410.6 	"/>
	<path fill="#A1C520" d="M12.7,501.7c-0.4-0.6-0.9-1.1-1.4-1.4c-0.6-0.4-1.2-0.7-1.9-0.9c-0.7-0.2-1.3-0.5-1.9-0.8
		c-0.6-0.3-1.1-0.6-1.4-1.1c-0.4-0.4-0.6-1-0.6-1.7c0-0.4,0.1-0.8,0.2-1.2c0.1-0.4,0.3-0.7,0.6-1c0.3-0.3,0.6-0.5,1.1-0.6
		c0.4-0.2,1-0.2,1.6-0.2c0.7,0,1.3,0.1,1.8,0.2c0.6,0.1,1.1,0.3,1.7,0.6l0.2-1.2c-0.5-0.3-1.1-0.5-1.8-0.6c-0.6-0.1-1.3-0.2-2.1-0.2
		c-0.8,0-1.5,0.1-2.1,0.3c-0.6,0.2-1.1,0.5-1.5,0.9C5,493,4.7,493.5,4.5,494c-0.2,0.5-0.3,1.1-0.3,1.8c0,0.9,0.2,1.6,0.6,2.2
		c0.4,0.5,0.9,1,1.4,1.4c0.6,0.4,1.2,0.7,1.9,0.9c0.7,0.2,1.3,0.5,1.9,0.8c0.6,0.3,1.1,0.7,1.4,1.1c0.4,0.4,0.6,1,0.6,1.8
		c0,1.1-0.3,2-0.9,2.6c-0.6,0.6-1.5,0.9-2.7,0.9c-0.8,0-1.5-0.1-2.2-0.3c-0.6-0.2-1.3-0.5-1.8-0.9L4,507.6c0.6,0.4,1.2,0.7,1.9,0.9
		c0.7,0.2,1.5,0.3,2.4,0.3c1.6,0,2.9-0.4,3.7-1.3c0.8-0.8,1.3-2,1.3-3.6C13.3,503,13.1,502.2,12.7,501.7 M25.2,498.5
		c-0.2-0.9-0.5-1.6-0.9-2.1c-0.4-0.5-0.9-0.9-1.4-1.1c-0.6-0.2-1.2-0.3-1.9-0.3c-0.8,0-1.5,0.1-2.1,0.4c-0.6,0.3-1.1,0.7-1.5,1.2
		h-0.1l-0.3-1.5l-0.9,0.1v16.5h1.3V509l0-1.8l0,0c0.4,0.6,0.9,1,1.5,1.2c0.6,0.2,1.2,0.4,1.9,0.4c0.7,0,1.4-0.1,2-0.4
		c0.6-0.2,1.1-0.6,1.5-1.2c0.4-0.5,0.7-1.3,0.9-2.1c0.2-0.9,0.3-2,0.3-3.2C25.5,500.5,25.4,499.4,25.2,498.5 M23.9,504.7
		c-0.2,0.7-0.4,1.3-0.7,1.8c-0.3,0.4-0.7,0.7-1.1,0.9c-0.5,0.2-0.9,0.2-1.5,0.2c-0.8,0-1.5-0.2-2-0.6c-0.5-0.4-0.9-0.8-1.2-1.3V498
		c0.3-0.6,0.8-1,1.4-1.3c0.6-0.3,1.2-0.5,2-0.5c0.6,0,1.1,0.1,1.5,0.2c0.4,0.2,0.8,0.5,1.1,0.9c0.3,0.4,0.5,1,0.7,1.7
		c0.2,0.7,0.2,1.7,0.2,2.8C24.2,503,24.1,504,23.9,504.7 M29.6,508.5v-7c0-0.8,0.1-1.5,0.3-2.1c0.2-0.6,0.5-1.2,0.8-1.6
		c0.3-0.5,0.7-0.8,1.2-1c0.5-0.2,0.9-0.4,1.4-0.4c0.2,0,0.4,0,0.6,0c0.2,0,0.4,0.1,0.5,0.1l0.1-1.3c-0.2,0-0.3-0.1-0.5-0.1
		c-0.2,0-0.4,0-0.6,0c-0.9,0-1.7,0.3-2.4,0.9c-0.7,0.6-1.2,1.4-1.5,2.5h0l0-1.8l0-1.4l-1,0.1v13.2H29.6L29.6,508.5z M44,508.5h1
		v-8.9c0-0.9-0.1-1.6-0.2-2.2c-0.2-0.6-0.4-1.1-0.7-1.4c-0.3-0.4-0.8-0.6-1.3-0.8c-0.5-0.2-1.1-0.2-1.9-0.2c-1.3,0-2.6,0.3-3.7,0.9
		l0.2,1.1c0.5-0.3,1.1-0.5,1.6-0.6c0.5-0.1,1.1-0.2,1.7-0.2c0.5,0,1,0.1,1.4,0.2c0.4,0.1,0.7,0.3,1,0.5c0.3,0.2,0.4,0.6,0.6,1
		c0.1,0.4,0.2,0.9,0.2,1.6v1.8c-0.4-0.2-0.8-0.3-1.3-0.4c-0.5-0.1-1-0.2-1.6-0.2c-1.5,0-2.6,0.3-3.3,1c-0.7,0.7-1.1,1.7-1.1,2.9
		c0,1.5,0.3,2.5,1,3.2c0.7,0.6,1.6,1,2.7,1c0.8,0,1.6-0.2,2.2-0.5c0.6-0.4,1.1-0.9,1.5-1.5l0.1,0L44,508.5L44,508.5z M43.7,505
		c0,0.3-0.1,0.6-0.3,1c-0.2,0.3-0.4,0.6-0.7,0.8c-0.3,0.2-0.6,0.4-1,0.6c-0.4,0.2-0.8,0.2-1.2,0.2c-0.4,0-0.8-0.1-1.1-0.2
		c-0.3-0.1-0.6-0.3-0.9-0.5c-0.2-0.2-0.4-0.6-0.6-0.9c-0.1-0.4-0.2-0.9-0.2-1.4c0-0.9,0.3-1.7,0.8-2.2c0.5-0.5,1.4-0.8,2.6-0.8
		c0.7,0,1.3,0.1,1.8,0.2c0.5,0.1,0.8,0.3,1,0.4V505L43.7,505z M55.5,495.7c-0.4-0.2-0.8-0.4-1.3-0.5c-0.5-0.1-1-0.2-1.6-0.2
		c-1.7,0-3,0.5-3.7,1.6c-0.8,1.1-1.2,2.8-1.2,5.1c0,1.3,0.1,2.4,0.3,3.3c0.2,0.9,0.5,1.6,0.9,2.2c0.4,0.6,0.9,1,1.5,1.2
		c0.6,0.3,1.3,0.4,2.2,0.4c0.6,0,1.2-0.1,1.7-0.3c0.5-0.2,1-0.4,1.3-0.7l-0.1-1.1c-0.8,0.6-1.7,0.9-2.7,0.9c-0.6,0-1.2-0.1-1.7-0.3
		c-0.5-0.2-0.9-0.5-1.2-1c-0.3-0.5-0.6-1.1-0.7-1.8c-0.2-0.8-0.2-1.7-0.2-2.8c0-1,0.1-1.8,0.2-2.5c0.1-0.7,0.4-1.2,0.7-1.7
		c0.3-0.4,0.7-0.7,1.2-0.9c0.5-0.2,1.1-0.3,1.8-0.3c0.5,0,0.9,0.1,1.4,0.2c0.4,0.1,0.8,0.3,1.2,0.5L55.5,495.7L55.5,495.7z
		 M67.1,508.5v-9.3c0-1.4-0.3-2.4-1-3.1c-0.7-0.7-1.7-1.1-3-1.1c-0.7,0-1.4,0.1-2,0.4c-0.6,0.3-1.1,0.7-1.5,1.2l0,0l0-1.8v-4.3
		l-1.3,0.1v17.9h1.3V498c0.3-0.5,0.7-0.9,1.2-1.2c0.6-0.3,1.2-0.5,2-0.5c1,0,1.8,0.3,2.3,0.8c0.5,0.5,0.8,1.2,0.8,2.2v9.3H67.1
		L67.1,508.5z M77.1,508.5c0.6-0.2,1.1-0.4,1.6-0.7l-0.2-1.1c-0.5,0.3-1,0.5-1.5,0.7c-0.5,0.1-1.1,0.2-1.7,0.2
		c-0.7,0-1.3-0.1-1.8-0.3c-0.5-0.2-0.9-0.5-1.3-1c-0.3-0.5-0.6-1-0.8-1.8c-0.2-0.7-0.3-1.7-0.3-2.8h8c0-0.1,0-0.2,0-0.3v-0.3
		c0-1.1-0.1-2-0.3-2.8c-0.2-0.8-0.5-1.4-0.9-1.9c-0.4-0.5-0.9-0.8-1.5-1.1c-0.6-0.2-1.2-0.3-1.9-0.3c-3.2,0-4.7,2.1-4.7,6.4
		c0,1.3,0.1,2.5,0.3,3.4c0.2,0.9,0.5,1.7,0.9,2.3c0.4,0.6,1,1,1.7,1.3c0.7,0.3,1.5,0.4,2.4,0.4C75.9,508.8,76.6,508.7,77.1,508.5
		 M71.2,500.8c0.1-1.6,0.4-2.8,0.9-3.5c0.5-0.8,1.4-1.1,2.6-1.1c0.5,0,0.9,0.1,1.4,0.2c0.4,0.2,0.8,0.4,1.1,0.8
		c0.3,0.4,0.5,0.8,0.7,1.4c0.2,0.6,0.3,1.3,0.3,2.2H71.2L71.2,500.8z M82.6,506.8c-0.7,0-1,0.3-1,1c0,0.7,0.3,1,1,1c0.6,0,1-0.3,1-1
		C83.6,507.1,83.3,506.8,82.6,506.8 M104.9,508.5l-6-8.9l5.6-8h-1.7l-5.2,7.4h-2.4v-7.4h-1.3v16.9h1.3v-8.2h2.5l5.5,8.2H104.9
		L104.9,508.5z M115.6,495.2h-1.3v9.3c0,1-0.3,1.8-0.8,2.3c-0.5,0.5-1.3,0.8-2.3,0.8c-1,0-1.8-0.2-2.4-0.8c-0.5-0.5-0.8-1.3-0.8-2.3
		v-9.3h-1.2v9.3c0,1.3,0.4,2.4,1.1,3.1c0.7,0.7,1.8,1.1,3.3,1.1c1.5,0,2.6-0.4,3.3-1.1c0.7-0.7,1.1-1.8,1.1-3.1V495.2L115.6,495.2z
		 M120.4,508.5v-18l-1.3,0.1v17.9H120.4L120.4,508.5z M129.4,496.3v-1.1h-3.1v-3.6l-1,0.1l-0.2,3.4h-1.9v1.1h1.8v9.3
		c0,1.1,0.2,1.9,0.7,2.4c0.5,0.5,1.2,0.8,2.1,0.8c0.3,0,0.5,0,0.8-0.1c0.3-0.1,0.5-0.1,0.6-0.2l-0.1-1c-0.1,0.1-0.3,0.1-0.5,0.1
		c-0.2,0-0.4,0.1-0.5,0.1c-0.6,0-1.1-0.2-1.4-0.5c-0.4-0.3-0.5-0.9-0.5-1.7v-9.2H129.4L129.4,496.3z M140.6,495.2h-1.3v9.3
		c0,1-0.3,1.8-0.8,2.3c-0.5,0.5-1.3,0.8-2.3,0.8c-1,0-1.8-0.2-2.4-0.8c-0.5-0.5-0.8-1.3-0.8-2.3v-9.3h-1.2v9.3
		c0,1.3,0.4,2.4,1.1,3.1c0.7,0.7,1.8,1.1,3.3,1.1c1.5,0,2.6-0.4,3.3-1.1c0.7-0.7,1.1-1.8,1.1-3.1V495.2L140.6,495.2z M145.2,508.5
		v-7c0-0.8,0.1-1.5,0.3-2.1c0.2-0.6,0.5-1.2,0.8-1.6c0.3-0.5,0.7-0.8,1.2-1c0.4-0.2,0.9-0.4,1.4-0.4c0.2,0,0.4,0,0.6,0
		c0.2,0,0.4,0.1,0.5,0.1l0.1-1.3c-0.2,0-0.3-0.1-0.5-0.1c-0.2,0-0.4,0-0.6,0c-0.9,0-1.7,0.3-2.4,0.9c-0.7,0.6-1.2,1.4-1.5,2.5h0
		l0-1.8l0-1.4l-1,0.1v13.2H145.2L145.2,508.5z M151.4,506.8c-0.7,0-1,0.3-1,1c0,0.7,0.3,1,1,1c0.6,0,1-0.3,1-1
		C152.3,507.1,152,506.8,151.4,506.8 M173.5,496.2c-0.2-1.1-0.6-1.9-1.1-2.6c-0.5-0.7-1.2-1.1-2-1.4c-0.8-0.3-1.8-0.4-2.9-0.4h-4.8
		v16.9h4.9c1.1,0,2-0.2,2.8-0.4c0.8-0.3,1.5-0.8,2-1.5c0.5-0.7,0.9-1.5,1.2-2.6c0.3-1.1,0.4-2.4,0.4-4
		C173.9,498.5,173.8,497.2,173.5,496.2 M172.1,503.6c-0.2,0.9-0.5,1.7-0.9,2.2c-0.4,0.5-0.9,0.9-1.6,1.1c-0.6,0.2-1.4,0.3-2.2,0.3
		H164V493h3.4c0.9,0,1.6,0.1,2.3,0.3c0.6,0.2,1.2,0.6,1.6,1.1c0.4,0.5,0.7,1.2,0.9,2.1c0.2,0.9,0.3,2.1,0.3,3.4
		C172.5,501.5,172.4,502.7,172.1,503.6 M183.7,508.5c0.6-0.2,1.1-0.4,1.6-0.7l-0.2-1.1c-0.5,0.3-1,0.5-1.5,0.7
		c-0.5,0.1-1.1,0.2-1.7,0.2c-0.7,0-1.3-0.1-1.9-0.3c-0.5-0.2-0.9-0.5-1.3-1c-0.3-0.5-0.6-1-0.8-1.8c-0.2-0.7-0.3-1.7-0.3-2.8h8
		c0-0.1,0-0.2,0-0.3v-0.3c0-1.1-0.1-2-0.3-2.8c-0.2-0.8-0.5-1.4-0.9-1.9c-0.4-0.5-0.9-0.8-1.4-1.1c-0.6-0.2-1.2-0.3-1.9-0.3
		c-3.2,0-4.7,2.1-4.7,6.4c0,1.3,0.1,2.5,0.3,3.4c0.2,0.9,0.5,1.7,0.9,2.3c0.4,0.6,1,1,1.6,1.3c0.7,0.3,1.5,0.4,2.4,0.4
		C182.5,508.8,183.1,508.7,183.7,508.5 M177.7,500.8c0.1-1.6,0.4-2.8,0.9-3.5c0.5-0.8,1.4-1.1,2.6-1.1c0.5,0,0.9,0.1,1.3,0.2
		c0.4,0.2,0.8,0.4,1.1,0.8c0.3,0.4,0.5,0.8,0.7,1.4c0.2,0.6,0.3,1.3,0.3,2.2H177.7L177.7,500.8z M197.2,495.2h-1.3v9.3
		c0,1-0.3,1.8-0.8,2.3c-0.5,0.5-1.3,0.8-2.3,0.8c-1,0-1.8-0.2-2.4-0.8c-0.5-0.5-0.8-1.3-0.8-2.3v-9.3h-1.2v9.3
		c0,1.3,0.4,2.4,1.1,3.1c0.7,0.7,1.8,1.1,3.3,1.1c1.5,0,2.6-0.4,3.3-1.1c0.7-0.7,1.1-1.8,1.1-3.1V495.2L197.2,495.2z M205.8,496.3
		v-1.1h-3.1v-3.6l-1,0.1l-0.2,3.4h-1.9v1.1h1.8v9.3c0,1.1,0.2,1.9,0.7,2.4c0.5,0.5,1.2,0.8,2.1,0.8c0.3,0,0.5,0,0.8-0.1
		c0.3-0.1,0.5-0.1,0.7-0.2l-0.1-1c-0.1,0.1-0.3,0.1-0.5,0.1c-0.2,0-0.4,0.1-0.5,0.1c-0.6,0-1.1-0.2-1.4-0.5
		c-0.4-0.3-0.5-0.9-0.5-1.7v-9.2H205.8L205.8,496.3z M215.1,503c-0.3-0.5-0.7-0.9-1.2-1.1c-0.5-0.3-1-0.5-1.5-0.7
		c-0.5-0.2-1.1-0.4-1.5-0.6c-0.5-0.2-0.9-0.5-1.2-0.8c-0.3-0.3-0.5-0.8-0.5-1.3c0-0.7,0.2-1.2,0.7-1.6c0.5-0.4,1.2-0.6,2-0.6
		c1,0,2,0.2,3,0.7l0.1-1.1c-0.9-0.5-2-0.7-3.1-0.7c-1.3,0-2.3,0.3-3,0.9c-0.7,0.6-1,1.5-1,2.5c0,0.7,0.2,1.3,0.5,1.7
		c0.3,0.4,0.7,0.8,1.2,1.1c0.5,0.3,1,0.5,1.5,0.7c0.6,0.2,1.1,0.4,1.5,0.7c0.5,0.2,0.9,0.5,1.2,0.9c0.3,0.4,0.5,0.8,0.5,1.4
		c0,0.8-0.2,1.5-0.7,2c-0.5,0.5-1.2,0.7-2.2,0.7c-0.6,0-1.2-0.1-1.8-0.3c-0.6-0.2-1.1-0.5-1.6-0.9l-0.2,1.2c0.4,0.4,1,0.7,1.6,0.8
		c0.6,0.2,1.3,0.3,2,0.3c1.4,0,2.4-0.3,3.1-1c0.6-0.7,1-1.7,1-2.9C215.6,504.1,215.5,503.4,215.1,503 M225.7,495.7
		c-0.4-0.2-0.8-0.4-1.3-0.5c-0.5-0.1-1-0.2-1.6-0.2c-1.7,0-3,0.5-3.7,1.6c-0.8,1.1-1.2,2.8-1.2,5.1c0,1.3,0.1,2.4,0.3,3.3
		c0.2,0.9,0.5,1.6,0.9,2.2c0.4,0.6,0.9,1,1.5,1.2c0.6,0.3,1.3,0.4,2.2,0.4c0.6,0,1.2-0.1,1.7-0.3c0.5-0.2,1-0.4,1.3-0.7l-0.1-1.1
		c-0.8,0.6-1.7,0.9-2.7,0.9c-0.6,0-1.2-0.1-1.7-0.3c-0.5-0.2-0.9-0.5-1.2-1c-0.3-0.5-0.6-1.1-0.7-1.8c-0.2-0.8-0.2-1.7-0.2-2.8
		c0-1,0.1-1.8,0.2-2.5c0.1-0.7,0.4-1.2,0.7-1.7c0.3-0.4,0.7-0.7,1.2-0.9c0.5-0.2,1.1-0.3,1.8-0.3c0.5,0,0.9,0.1,1.4,0.2
		c0.4,0.1,0.8,0.3,1.2,0.5L225.7,495.7L225.7,495.7z M237.3,508.5v-9.3c0-1.4-0.3-2.4-1-3.1c-0.7-0.7-1.7-1.1-3-1.1
		c-0.7,0-1.4,0.1-2,0.4c-0.6,0.3-1.1,0.7-1.5,1.2l0,0l0-1.8v-4.3l-1.3,0.1v17.9h1.3V498c0.3-0.5,0.7-0.9,1.2-1.2
		c0.6-0.3,1.2-0.5,2-0.5c1,0,1.8,0.3,2.3,0.8c0.5,0.5,0.8,1.2,0.8,2.2v9.3H237.3L237.3,508.5z M242.1,508.5v-18l-1.3,0.1v17.9H242.1
		L242.1,508.5z M252.7,508.5h1v-8.9c0-0.9-0.1-1.6-0.2-2.2c-0.2-0.6-0.4-1.1-0.7-1.4c-0.3-0.4-0.8-0.6-1.3-0.8
		c-0.5-0.2-1.1-0.2-1.9-0.2c-1.3,0-2.6,0.3-3.7,0.9l0.2,1.1c0.5-0.3,1.1-0.5,1.6-0.6c0.5-0.1,1.1-0.2,1.7-0.2c0.5,0,1,0.1,1.4,0.2
		c0.4,0.1,0.7,0.3,1,0.5c0.3,0.2,0.4,0.6,0.6,1c0.1,0.4,0.2,0.9,0.2,1.6v1.8c-0.4-0.2-0.8-0.3-1.3-0.4c-0.5-0.1-1-0.2-1.6-0.2
		c-1.5,0-2.6,0.3-3.3,1c-0.7,0.7-1.1,1.7-1.1,2.9c0,1.5,0.3,2.5,1,3.2c0.7,0.6,1.6,1,2.6,1c0.8,0,1.6-0.2,2.2-0.5
		c0.6-0.4,1.1-0.9,1.5-1.5l0.1,0L252.7,508.5L252.7,508.5z M252.4,505c0,0.3-0.1,0.6-0.3,1c-0.2,0.3-0.4,0.6-0.7,0.8
		c-0.3,0.2-0.6,0.4-1,0.6c-0.4,0.2-0.8,0.2-1.2,0.2c-0.4,0-0.8-0.1-1.1-0.2c-0.3-0.1-0.6-0.3-0.9-0.5c-0.3-0.2-0.4-0.6-0.6-0.9
		c-0.1-0.4-0.2-0.9-0.2-1.4c0-0.9,0.3-1.7,0.8-2.2c0.5-0.5,1.4-0.8,2.5-0.8c0.7,0,1.3,0.1,1.8,0.2c0.5,0.1,0.8,0.3,1,0.4V505
		L252.4,505z M265.8,508.5v-9.3c0-1.5-0.4-2.5-1.1-3.2c-0.7-0.7-1.7-1-3-1c-0.7,0-1.4,0.1-2,0.4c-0.6,0.3-1.2,0.7-1.5,1.2h-0.1
		l-0.2-1.5l-0.9,0.1v13.3h1.3v-10.6c0.2-0.3,0.3-0.5,0.6-0.7c0.2-0.2,0.5-0.4,0.8-0.5c0.3-0.1,0.6-0.3,0.9-0.3
		c0.3-0.1,0.6-0.1,0.9-0.1c1,0,1.8,0.2,2.3,0.7c0.5,0.5,0.8,1.2,0.8,2.3v9.3H265.8L265.8,508.5z M278.1,508.5v-18l-1.2,0.1v4.2
		l0,1.8l0,0c-0.4-0.6-0.9-1-1.6-1.3c-0.6-0.3-1.3-0.4-2-0.4c-1.6,0-2.8,0.6-3.5,1.7c-0.7,1.1-1.1,2.8-1.1,5.2c0,1.2,0.1,2.3,0.3,3.2
		c0.2,0.9,0.4,1.6,0.8,2.2c0.4,0.6,0.8,1,1.4,1.2c0.6,0.3,1.3,0.4,2.1,0.4c1.7,0,2.9-0.6,3.7-1.8l0.1,0l0.2,1.5H278.1L278.1,508.5z
		 M276.8,505.8c-0.1,0.2-0.2,0.4-0.4,0.7c-0.2,0.2-0.4,0.4-0.7,0.6c-0.3,0.2-0.6,0.3-1,0.4c-0.4,0.1-0.8,0.2-1.3,0.2
		c-0.7,0-1.2-0.1-1.7-0.3c-0.5-0.2-0.8-0.5-1.1-1c-0.3-0.5-0.5-1-0.6-1.8c-0.1-0.7-0.2-1.6-0.2-2.7c0-1,0.1-1.9,0.2-2.6
		c0.1-0.7,0.3-1.3,0.6-1.8c0.3-0.5,0.7-0.8,1.1-1c0.5-0.2,1-0.3,1.7-0.3c0.7,0,1.4,0.2,2,0.5c0.6,0.3,1,0.7,1.3,1.3V505.8
		L276.8,505.8z M282.4,506.8c-0.7,0-1,0.3-1,1c0,0.7,0.3,1,1,1c0.6,0,1-0.3,1-1C283.4,507.1,283,506.8,282.4,506.8"/>
</g>
</svg>
