<?xml version="1.0" encoding="utf-8"?>
<!-- Generator: Adobe Illustrator 26.1.0, SVG Export Plug-In . SVG Version: 6.00 Build 0)  -->
<svg version="1.0" id="Goethe_Institut" xmlns="http://www.w3.org/2000/svg" xmlns:xlink="http://www.w3.org/1999/xlink" x="0px"
	 y="0px" viewBox="0 0 606.6 286.3" enable-background="new 0 0 606.6 286.3" xml:space="preserve">
<g>
	<g>
		<path fill="#A0C814" d="M232.3,104.8c28.5,0,51.7-23.1,51.7-51.7c0-28.5-23.1-51.7-51.7-51.7c-28.6,0-51.7,23.1-51.7,51.7
			C180.6,81.7,203.7,104.8,232.3,104.8z M232.3,12.9c22.2,0,40.2,18,40.2,40.2c0,22.2-18,40.2-40.2,40.2c-22.2,0-40.2-18-40.2-40.2
			C192.1,30.9,210.1,12.9,232.3,12.9z"/>
		<path fill="#A0C814" d="M102.7,143.2c0-21.8,17.7-39.6,39.6-39.6l0-11.3c-28.1,0-50.9,22.7-50.9,50.8c0,28.1,22.8,50.9,50.9,50.9
			c28.1,0,50.8-22.8,50.8-50.9l-11.2,0c0,21.8-17.8,39.6-39.6,39.6C120.4,182.7,102.7,165,102.7,143.2z"/>
		<path fill="#A0C814" d="M68.8,143.2c0,40.6,32.9,73.4,73.4,73.4c40.6,0,73.5-32.9,73.5-73.4l-11.2,0c0,34.3-27.9,62.2-62.3,62.2
			c-34.3,0-62.2-27.8-62.2-62.2c0-34.3,27.8-62.1,62.2-62.1l0-11.3C101.7,69.7,68.8,102.6,68.8,143.2z"/>
		<path fill="#A0C814" d="M46,143.2c0,53.1,43.1,96.2,96.2,96.2c53.1,0,96.1-43.1,96.1-96.2l-11.3,0c0,46.8-38,84.7-84.8,84.7
			c-46.8,0-84.7-37.9-84.7-84.7c0-46.8,37.9-84.7,84.7-84.7l0-11.4C89.1,47,46,90,46,143.2z"/>
		<path fill="#A0C814" d="M142.2,24.1c-65.7,0-119.1,53.3-119.1,119c0,65.8,53.3,119.1,119.1,119.1c65.7,0,119-53.3,119-119l-11.3,0
			c0,59.4-48.2,107.6-107.6,107.6c-59.4,0-107.6-48.2-107.6-107.6c0-59.4,48.2-107.6,107.6-107.6L142.2,24.1L142.2,24.1z"/>
		<path fill="#A0C814" d="M142.3,273.6c-72,0-130.4-58.4-130.4-130.4c0-72,58.4-130.4,130.4-130.4l0-11.3C64,1.4,0.5,64.9,0.5,143.1
			c0,78.3,63.5,141.7,141.7,141.7c78.3,0,141.7-63.4,141.7-141.7l-11.2,0C272.8,215.2,214.3,273.6,142.3,273.6z"/>
	</g>
	<g>
		<path fill="#A0C814" d="M350.3,125.2c5.7,0,12.6-1.3,16.4-3V91.4h-19.3v9.7h7.7v13.8c-1.3,0.2-3.4,0.3-5.1,0.3
			c-8.6,0-15.2-4.5-15.2-19c0-14.3,6.7-18.8,16.7-18.8c4.2,0,9.7,0.9,13.1,2.3l1.2-9.7c-3.9-1.6-10.2-2.5-15-2.5
			c-17.2,0-28.3,9-28.3,28.9C322.6,115.8,332.8,125.2,350.3,125.2z"/>
		<polygon fill="#A0C814" points="545.1,124.1 557,124.1 557,68.3 545.1,68.3 545.1,90.3 527.2,90.3 527.2,68.3 515.2,68.3 
			515.2,124.1 527.2,124.1 527.2,100.3 545.1,100.3 		"/>
		<polygon fill="#A0C814" points="496.3,124.1 496.3,78.3 508.4,78.3 508.4,68.3 472.1,68.3 472.1,78.3 484.2,78.3 484.2,124.1 		
			"/>
		<polygon fill="#A0C814" points="443.9,100.3 463.6,100.3 463.6,90.5 443.9,90.5 443.9,78.3 467.1,78.3 467.1,68.3 432,68.3 
			432,124.1 467.9,124.1 467.9,114.1 443.9,114.1 		"/>
		<path fill="#A0C814" d="M399.1,125.7c15.8,0,23.5-8.5,23.5-29.6c0-20.6-7.6-29.5-23.5-29.5c-15.8,0-23.5,8.9-23.5,29.5
			C375.6,116.8,383.6,125.7,399.1,125.7z M399.1,76.6c7.6,0,11.2,4.8,11.2,19.6c0,14.7-3.6,19.7-11.2,19.7
			c-7.6,0-11.3-4.9-11.3-19.7C387.9,81.4,391.6,76.6,399.1,76.6z"/>
		<polygon fill="#A0C814" points="604.8,114.1 580.9,114.1 580.9,100.3 600.6,100.3 600.6,90.5 580.9,90.5 580.9,78.3 604.1,78.3 
			604.1,68.3 568.9,68.3 568.9,124.1 604.8,124.1 		"/>
		<polygon fill="#A0C814" points="430.3,152.9 441.4,152.9 441.4,197 453.1,197 453.1,152.9 464.2,152.9 464.2,143.2 430.3,143.2 		
			"/>
		<rect x="326.6" y="143.2" fill="#A0C814" width="11.8" height="53.8"/>
		<path fill="#A0C814" d="M555.1,178.3c0,6.2-2.1,9.7-8,9.7c-5.8,0-8-3.5-8-9.7v-35.1h-11.7v35.5c0,12.9,6.6,19.2,19.7,19.2
			c12.9,0,19.6-6.3,19.6-19.2v-35.5h-11.6V178.3z"/>
		<path fill="#A0C814" d="M407.8,157.6c0-2.8,1.4-5.5,7.3-5.5c3.7,0,6.9,1,10.2,2.4l1.3-9.4c-3.7-1.7-7.6-2.7-12.5-2.7
			c-12.4,0-17.8,7.2-17.8,16.3c0,17.3,21.4,14,21.4,23.6c0,3.7-2.3,6.2-7.2,6.2c-4.8,0-8.9-1.6-12.9-3.9l-1.5,9.6
			c4.2,2.4,9.3,3.8,14.9,3.8c11.6,0,18.2-6.5,18.2-17C429.2,163.1,407.8,165.9,407.8,157.6z"/>
		<polygon fill="#A0C814" points="377.4,174.6 360.8,143.2 350.1,143.2 350.1,197 360.8,197 360.8,165.6 377.4,197 388.1,197 
			388.1,143.2 377.4,143.2 		"/>
		<polygon fill="#A0C814" points="572.2,143.2 572.2,152.9 583.2,152.9 583.2,197 594.9,197 594.9,152.9 606,152.9 606,143.2 		"/>
		<rect x="470.2" y="143.2" fill="#A0C814" width="11.8" height="53.8"/>
		<polygon fill="#A0C814" points="488,152.9 499.1,152.9 499.1,197 510.8,197 510.8,152.9 521.8,152.9 521.8,143.2 488,143.2 		"/>
	</g>
</g>
</svg>
