<?xml version="1.0" encoding="utf-8"?>
<!-- Generator: Adobe Illustrator 26.0.3, SVG Export Plug-In . SVG Version: 6.00 Build 0)  -->
<svg version="1.2" baseProfile="tiny" id="Layer_1" xmlns="http://www.w3.org/2000/svg" xmlns:xlink="http://www.w3.org/1999/xlink"
	 x="0px" y="0px" viewBox="0 0 266.6 332.6" overflow="visible" xml:space="preserve">
<rect y="0.1" width="266.6" height="332.6"/>
<g>
	<path fill="#FFFFFF" d="M205.5,295.4v-14.7h-2.6v10l-7.3-10h-2.3v14.7h2.6v-9.9l7.3,9.9H205.5z M189,295.4v-2.2h-6.6V289h6.6v-2.2
		h-6.6V283h6.6v-2.2h-9.2v14.7H189z M175.1,280.7h-2.6v14.7h2.6V280.7z M161.1,280.7h-2.4l-2.8,10.1h0l-2.6-10.1h-2.9l4.1,14.7h2.5
		l2.9-10.3h0l2.8,10.3h2.6l4.2-14.7h-2.8l-2.8,10.1h0L161.1,280.7z M141.6,295.4v-2.2H135V289h6.6v-2.2H135V283h6.6v-2.2h-9.2v14.7
		H141.6z M129.3,283v-2.2h-9.7v2.2h3.6v12.5h2.6V283H129.3z M115.1,284l1.5-1.9c-1.4-1.1-2.9-1.6-4.7-1.6c-2.4,0-4.6,1.3-4.6,4.1
		c0,2.5,2.1,3.5,4.1,4.2c1.5,0.5,3,1.1,3,2.5c0,1.5-1.3,2.2-2.6,2.2c-1.5,0-2.5-0.6-3.8-1.8l-1.8,1.7c1.6,1.6,3.3,2.4,5.5,2.4
		c2.4,0,5.4-1.3,5.4-4.6c0-3-2.4-3.9-4.6-4.7c-1.2-0.4-2.6-0.9-2.6-2c0-1.1,1-1.7,2.2-1.7C113.1,282.7,114.3,283.3,115.1,284
		 M102.6,295.4v-14.7H100v10l-7.3-10h-2.3v14.7H93v-9.9l7.3,9.9H102.6z M84.4,277h-2.7v2.4h2.7V277z M78.7,277h-2.7v2.4h2.7V277z
		 M86,280.7h-2.6v8.2c0,3-1.2,4.4-3.2,4.4c-2,0-3.2-1.4-3.2-4.4v-8.2h-2.6v7.8c0,4.6,1.7,7.2,5.8,7.2c4.1,0,5.9-2.5,5.9-7.2V280.7z
		 M71.2,280.7h-3.2l-5.4,6.6v-6.6H60v14.7h2.6V291l1.9-2.3l3.9,6.7h3l-5.1-8.8L71.2,280.7z"/>
	<path fill="#FFFFFF" d="M218.5,270.2v-14.7h-2.6v10l-7.3-10h-2.3v14.7h2.6v-9.9l7.3,9.9H218.5z M202,270.2V268h-6.6v-4.2h6.6v-2.2
		h-6.6v-3.8h6.6v-2.2h-9.2v14.7H202z M179.5,257.8h1.2c3.5,0,5.6,1.8,5.6,5.2c0,3.7-2.6,5-6.3,5h-0.5V257.8z M176.9,270.2h3.9
		c4,0,8.2-2,8.2-7.4c0-5.3-4.2-7.3-8-7.3h-4.2V270.2z M172.1,270.2v-14.7h-2.6v10l-7.3-10h-2.3v14.7h2.6v-9.9l7.3,9.9H172.1z
		 M155.6,270.2V268H149v-4.2h6.6v-2.2H149v-3.8h6.6v-2.2h-9.2v14.7H155.6z M132.9,257.8h1.2c3.5,0,5.6,1.8,5.6,5.2
		c0,3.7-2.6,5-6.3,5h-0.5V257.8z M130.3,270.2h3.9c4,0,8.2-2,8.2-7.4c0-5.3-4.2-7.3-8-7.3h-4.2V270.2z M127.3,270.2V268h-6.2v-12.5
		h-2.6v14.7H127.3z M113.8,255.5h-2.6v14.7h2.6V255.5z M99.7,257.8h0.8c1.1,0,2,0,2.6,0.5c0.4,0.3,0.7,0.7,0.7,1.5
		c0,1.3-1.1,1.9-3,1.9h-1.1V257.8z M99.7,263.8h2c1.7,0,2.6,0.9,2.6,2.2c0,0.9-0.4,1.4-1,1.7c-0.7,0.3-1.7,0.4-2.7,0.4h-0.9V263.8z
		 M97.1,270.2h3.5c1.3,0,2.8-0.1,3.9-0.6c1.6-0.7,2.5-2,2.5-3.7c0-1.6-1-2.9-2.6-3.4c1.4-0.6,2-1.6,2-2.9c0-1.3-0.5-2.4-1.7-3.2
		c-1.1-0.7-2.5-0.9-3.9-0.9h-3.7V270.2z M79.3,262v-4.2h1.9c1.5,0,2.5,0.9,2.5,2.2c0,1.5-1.3,2.1-3,2.1H79.3z M76.6,255.5v14.7h2.6
		v-6h0.9l4.2,6h3.2l-4.6-6.3c1.7-0.5,3.4-1.7,3.4-4.1c0-3.1-2.9-4.3-5.2-4.3H76.6z M72.3,270.2V268h-6.6v-4.2h6.6v-2.2h-6.6v-3.8
		h6.6v-2.2h-9.2v14.7H72.3z M49.6,257.8h1.2c3.5,0,5.6,1.8,5.6,5.2c0,3.7-2.6,5-6.3,5h-0.5V257.8z M47,270.2h3.9c4,0,8.2-2,8.2-7.4
		c0-5.3-4.2-7.3-8-7.3H47V270.2z"/>
	<path fill="#FFFFFF" d="M188.8,245v-2.2h-6.6v-4.2h6.6v-2.2h-6.6v-3.8h6.6v-2.2h-9.2V245H188.8z M174.9,230.3h-2.6V245h2.6V230.3z
		 M164.9,233.6V245h2.6v-14.7h-3.9l-4.3,10.8l-4.2-10.8h-3.9V245h2.6v-11.5l4.5,11.5h1.8L164.9,233.6z M147,245v-2.2h-6.6v-4.2h6.6
		v-2.2h-6.6v-3.8h6.6v-2.2h-9.2V245H147z M124.3,232.6h1.2c3.5,0,5.6,1.8,5.6,5.2c0,3.7-2.6,5-6.3,5h-0.5V232.6z M121.7,245h3.9
		c4,0,8.2-2,8.2-7.4c0-5.3-4.2-7.3-8-7.3h-4.2V245z M111.7,234.3L111.7,234.3l2,5.6h-4.1L111.7,234.3z M104.9,245h2.9l1-2.9h5.7
		l1,2.9h3l-5.6-14.7h-2.2L104.9,245z M102.5,230.3h-3.2l-5.4,6.6v-6.6h-2.6V245h2.6v-4.5l1.9-2.3l3.9,6.7h3l-5.1-8.8L102.5,230.3z
		 M81.3,234.3L81.3,234.3l2,5.6h-4.1L81.3,234.3z M74.5,245h2.9l1.1-2.9h5.7l1,2.9h3l-5.6-14.7h-2.2L74.5,245z"/>
	<path fill="#FFFFFF" d="M221.1,205.5v-11.1l8.7-15.4h-5.4l-5.3,10.2h-0.1l-5.1-10.2H208l8.4,15.2v11.3H221.1z M198,185v20.6h4.7
		v-26.5h-7l-7.7,19.4l-7.5-19.4h-7.1v26.5h4.7v-20.6l8.2,20.6h3.3L198,185z M165.9,205.5v-4h-11.8v-7.6h11.8v-4h-11.8v-6.8h11.8v-4
		h-16.5v26.5H165.9z M125.3,183.1h2.2c6.3,0,10.1,3.3,10.1,9.4c0,6.7-4.6,9-11.3,9h-0.9V183.1z M120.6,205.5h7.1
		c7.3,0,14.7-3.6,14.7-13.3c0-9.6-7.6-13.1-14.4-13.1h-7.5V205.5z M102.9,186.2L102.9,186.2l3.7,10.2h-7.4L102.9,186.2z M90.7,205.5
		h5.1l1.9-5.2H108l1.9,5.2h5.4l-10-26.5h-3.9L90.7,205.5z M69.2,192.3c0-5.4,3.9-9.6,9.2-9.6c2,0,3.9,0.7,5.5,1.9l2.2-3.6
		c-2.4-1.5-4.9-2.3-7.7-2.3c-7.8,0-14.1,5.9-14.1,13.7c0,8.2,6.1,13.7,14,13.7c3.1,0,5.9-1,8.4-2.8l-2.6-3.4c-1.7,1.3-3.7,2-5.7,2
		C72.9,201.9,69.2,198.1,69.2,192.3 M49,186.2L49,186.2l3.7,10.2h-7.4L49,186.2z M36.8,205.5H42l1.9-5.2h10.2l1.9,5.2h5.4l-10-26.5
		h-3.9L36.8,205.5z"/>
	<path fill="#FFFFFF" d="M205.7,145.3v-4h-17.5v4h6.4v22.5h4.7v-22.5H205.7z M166.7,154.5c0-5.4,3.9-9.6,9.2-9.6
		c2,0,3.9,0.7,5.5,1.9l2.2-3.6c-2.4-1.5-4.9-2.3-7.7-2.3c-7.8,0-14.1,5.9-14.1,13.7c0,8.2,6.1,13.7,14,13.7c3.1,0,5.9-1,8.4-2.8
		l-2.6-3.4c-1.7,1.3-3.7,2-5.7,2C170.3,164.1,166.7,160.3,166.7,154.5 M146.5,148.4L146.5,148.4l3.7,10.2h-7.4L146.5,148.4z
		 M134.3,167.7h5.1l1.9-5.2h10.2l1.9,5.2h5.4l-10-26.5h-3.9L134.3,167.7z M120.1,145.3h3.4c2.9,0,4.8,1.6,4.8,4.2c0,2.9-2.4,4-5.6,4
		h-2.6V145.3z M115.4,141.3v26.5h4.7v-10.2h3.5c4.5,0,9.7-2.2,9.7-8.1c0-5.9-5.3-8.1-9.7-8.1H115.4z M102.3,147.2v20.6h4.7v-26.5h-7
		l-7.7,19.4l-7.5-19.4h-7.1v26.5h4.7v-20.6l8.2,20.6h3.3L102.3,147.2z M69.5,141.3h-4.7v26.5h4.7V141.3z"/>
	<path fill="#FFFFFF" d="M132.3,97.2c-2.3,0-4.2,1.9-4.2,4.2c0,2.3,1.9,4.2,4.2,4.2c2.3,0,4.2-1.9,4.2-4.2
		C136.6,99.1,134.7,97.2,132.3,97.2 M168.7,73.6c0,6.6-1.8,12.7-4.8,18l-26.8-54C154.9,40,168.7,55.2,168.7,73.6 M135.2,46.6
		L146,68.5h-10.8V46.6z M135,92.8h0.2V74.2h13.7L160.1,97c-6,7.1-14.7,11.9-24.5,12.8c-1.1,0.1-2.2,0.2-3.3,0.2
		c-1.1,0-2.2-0.1-3.3-0.2c-9.8-0.9-18.5-5.7-24.5-12.8l11.3-22.8h13.7v18.6h0.2c0.8-0.3,1.8-0.4,2.7-0.4
		C133.3,92.4,134.2,92.5,135,92.8 M129.5,68.5h-10.8l10.8-21.9V68.5z M127.6,37.6l-26.8,54c-3-5.3-4.8-11.5-4.8-18
		C96,55.2,109.8,40,127.6,37.6 M174.4,73.6c0-23.2-18.9-42-42-42c-23.2,0-42,18.9-42,42s18.9,42,42,42
		C155.5,115.7,174.4,96.8,174.4,73.6"/>
</g>
</svg>
