<svg xmlns="http://www.w3.org/2000/svg" width="227" height="132" fill="none" viewBox="0 0 227 132">
                        <path fill="#008AC9" fill-rule="evenodd" d="M0 131.611h226.77V1H0v130.611z" clip-rule="evenodd"/>
                        <path fill="#fff" fill-rule="evenodd" d="M31.809 47.736h4.725V24.479h-4.725v23.257zM103.392 29.427v-4.943H86.655v4.943h6.006V57.33h4.726V29.427h6.005zM108.212 47.736h4.723V24.479h-4.723v23.257zM150.895 78.302l1.192-5.764c.371-1.85.887-4.73 1.2-6.494h.237c.313 1.77.835 4.68 1.198 6.494l1.189 5.764h-5.016zm7.853-29.29V24.478h-4.677v24.684c0 1.723-.444 5.73-4.528 5.73-4.16 0-4.487-4.422-4.487-5.778V24.478h-4.726v24.83c0 6.286 3.79 10.677 9.213 10.677.328 0 .647-.018.96-.044l-7.447 32.343h5.012l1.865-9.19h6.947l1.906 9.19h5.155l-7.99-34.9c1.79-1.9 2.797-4.772 2.797-8.372zM179.149 24.479h-16.737v4.939h6.007v30.276h4.723V29.418h6.007v-4.94z" clip-rule="evenodd"/>
                        <path fill="#fff" fill-rule="evenodd" d="M60.628 72.287h-4.16V62.224h4.16c3.012 0 4.672 1.767 4.672 4.98 0 3.374-1.575 5.083-4.672 5.083zm4.536 3.924c3.314-1.48 4.995-4.56 4.995-9.155 0-5.893-3.213-9.48-8.616-9.71V24.48H56.91v15.393c0 1.3.029 4.076.067 5.832l-.235.052-.381-.978c-.5-1.29-1.094-2.808-1.485-3.7l-6.977-16.6h-4.77V57.33h-11.32v34.955h4.725V76.437h7.032v-4.841h-7.032v-9.372h11.223v-20.27c0-1.3-.026-4.076-.064-5.835l.234-.052.383.988c.505 1.289 1.095 2.802 1.482 3.694l6.935 16.58h-4.98v34.956h4.722V77.127l3.66.09 4.825 15.068h5.33L65.06 76.25l.104-.04z" clip-rule="evenodd"/>
                        <path fill="#fff" fill-rule="evenodd" d="M80.602 78.302l1.188-5.764c.374-1.85.889-4.73 1.2-6.494h.239c.313 1.77.829 4.68 1.2 6.494l1.189 5.764h-5.016zm.769-20.972a10.014 10.014 0 0 0 2.874-7.016c0-5.614-3.956-8.567-7.948-11.31-3.702-2.53-4.736-3.55-4.736-6.067 0-2.155 1.632-3.968 3.715-3.968 1.724 0 3.185 1.046 4.249 2.73l3.54-3.027c-1.612-2.987-4.436-4.739-7.786-4.739-5.034 0-8.622 4.403-8.622 9.191 0 5.574 3.05 7.71 6.665 10.243 4.299 3.031 5.9 4.392 5.9 7.11 0 2.254-1.753 4.462-4.188 4.462-1.781 0-3.013-1.108-5.065-3.785l-3.71 3.254c2.144 3.74 5.109 5.668 8.836 5.668 2.052 0 3.996-.789 5.566-2.095l-7.898 34.303h5.01l1.862-9.19h6.947l1.91 9.19h5.15L85.642 57.33h-4.27zM111.174 72.718c0 1.31.023 4.08.062 5.838l-.235.055-.38-.983c-.505-1.285-1.096-2.805-1.487-3.703l-6.973-16.595h-4.773v34.954h4.631V74.81c0-1.305-.029-4.076-.065-5.836l.233-.055.382.981c.504 1.291 1.095 2.808 1.485 3.703l7.813 18.681h3.936V57.33h-4.629v15.388z" clip-rule="evenodd"/>
                        <mask id="a" width="227" height="131" x="0" y="1" maskUnits="userSpaceOnUse">
                            <path fill="#fff" fill-rule="evenodd" d="M0 131.611h226.77V1H0v130.611z" clip-rule="evenodd"/>
                        </mask>
                        <g fill="#fff" fill-rule="evenodd" clip-rule="evenodd" mask="url(#a)">
                            <path d="M168.419 92.285h4.724v-23.51h-4.724v23.51zM188.016 71.855c-3.693-2.535-4.732-3.545-4.732-6.068 0-2.148 1.631-3.964 3.715-3.964 1.724 0 3.185 1.044 4.248 2.726l3.541-3.026c-1.612-2.987-4.432-4.738-7.786-4.738-5.033 0-8.622 4.406-8.622 9.198 0 5.565 3.05 7.702 6.665 10.235 4.298 3.035 5.481 4.303 5.481 7.022 0 2.25-1.75 4.457-4.187 4.457-1.782 0-3.015-1.108-5.067-3.783l-3.71 3.257c2.145 3.735 5.113 5.66 8.839 5.66 4.855 0 9.147-4.372 9.147-9.755 0-5.614-3.533-8.479-7.532-11.22zM135.038 82.488c-.922 3.877-1.978 5.258-4.022 5.258-4.764 0-5.134-9.938-5.134-12.985 0-4.81.624-12.888 4.807-12.888 2.517 0 3.343 1.742 3.929 4.751l.015.088 4.765-1.288-.013-.07c-.918-5.767-3.714-8.569-8.556-8.569-.613 0-1.202.067-1.76.192V29.418h6.007v-4.939h-16.741v4.939h6.009v30.879c-2.16 3.05-3.329 8.005-3.329 14.56 0 9.578 2.402 15.707 6.777 17.461l-1.477 7.262h4.649l1.27-6.848c3.862-.586 6.162-3.396 7.196-8.76l.016-.082-4.387-1.486-.021.084z"/>
                        </g>
                        <path fill="#fff" d="M35.976 112.269c-.482 0-.942-.062-1.381-.186a4.474 4.474 0 0 1-1.203-.544 3.347 3.347 0 0 1-.945-.938 3.583 3.583 0 0 1-.53-1.317l1.132-.351c.11.702.436 1.253.98 1.654.55.4 1.222.601 2.019.601.773 0 1.379-.162 1.818-.487.44-.324.659-.754.659-1.288 0-.32-.072-.602-.215-.845a1.763 1.763 0 0 0-.58-.608 4.459 4.459 0 0 0-.83-.423 12.798 12.798 0 0 0-.995-.343c-.344-.105-.69-.213-1.038-.322a6.93 6.93 0 0 1-.988-.416 4.3 4.3 0 0 1-.837-.572 2.316 2.316 0 0 1-.573-.823 2.886 2.886 0 0 1-.215-1.146c0-.873.332-1.579.995-2.118.663-.54 1.525-.809 2.584-.809.458 0 .885.057 1.282.172.395.109.758.279 1.087.508.334.224.616.527.845.909.23.382.389.823.48 1.324l-1.031.444a2.831 2.831 0 0 0-.322-1.052 2.12 2.12 0 0 0-.623-.716 2.718 2.718 0 0 0-.802-.394 3.17 3.17 0 0 0-.916-.129c-.735 0-1.307.17-1.718.509-.41.334-.615.765-.615 1.295 0 .32.071.601.215.845.143.238.336.436.58.594.243.153.522.291.837.415.315.119.646.231.995.336.348.101.694.208 1.038.323.348.114.68.255.995.422.315.162.594.353.837.573.243.214.437.491.58.83.143.339.215.725.215 1.159 0 .387-.086.754-.258 1.103a2.86 2.86 0 0 1-.723.93c-.31.272-.711.487-1.203.644a5.27 5.27 0 0 1-1.632.237zm5.86-.144v-10.994h1.189v9.957h5.92v1.037h-7.108zm7.672-5.54c0-.82.131-1.579.394-2.276a5.206 5.206 0 0 1 1.095-1.768 4.993 4.993 0 0 1 1.675-1.131 5.37 5.37 0 0 1 2.097-.408c.75 0 1.446.136 2.09.408a4.916 4.916 0 0 1 1.668 1.131 5.119 5.119 0 0 1 1.088 1.768c.267.697.4 1.456.4 2.276 0 .84-.133 1.616-.4 2.327-.262.711-.625 1.312-1.088 1.803a4.953 4.953 0 0 1-1.668 1.146 5.318 5.318 0 0 1-2.09.408 5.389 5.389 0 0 1-2.104-.408 5.05 5.05 0 0 1-1.668-1.146c-.463-.491-.828-1.092-1.095-1.803a6.67 6.67 0 0 1-.394-2.327zm9.262.043c0-1.341-.374-2.433-1.123-3.278-.745-.845-1.704-1.267-2.878-1.267-.778 0-1.472.191-2.083.573-.606.381-1.078.918-1.417 1.61-.334.692-.501 1.479-.501 2.362 0 1.36.37 2.458 1.11 3.293.744.835 1.708 1.252 2.891 1.252 1.179 0 2.14-.417 2.885-1.252.744-.84 1.116-1.938 1.116-3.293zm7.428 5.497h-1.274l-4.18-10.994h1.296l3.572 9.498 3.535-9.498h1.232l-4.18 10.994zm10.75-4.459l-1.983-5.218-1.933 5.218h3.916zm1.682 4.459l-1.289-3.414h-4.688l-1.267 3.414h-1.202l4.137-10.994h1.381l4.23 10.994H78.63zm9.668 2.241h-1.345c-.153-.611-.349-1.067-.587-1.367-.234-.301-.62-.559-1.16-.773-1.35-.172-2.446-.766-3.285-1.783-.84-1.021-1.26-2.307-1.26-3.858 0-.82.131-1.579.394-2.276a5.207 5.207 0 0 1 1.095-1.768 4.863 4.863 0 0 1 1.667-1.138 5.337 5.337 0 0 1 2.105-.415c.75 0 1.446.138 2.09.415a4.862 4.862 0 0 1 1.668 1.138 5.117 5.117 0 0 1 1.088 1.768c.267.697.4 1.456.4 2.276 0 .816-.124 1.573-.372 2.269a5.18 5.18 0 0 1-1.038 1.768 4.978 4.978 0 0 1-1.574 1.167 5.216 5.216 0 0 1-1.983.48l.952.25c.353.253.613.52.78.802.167.286.289.635.365 1.045zm-2.376-12.283c-.778 0-1.472.191-2.083.573-.606.381-1.079.918-1.417 1.61-.334.692-.501 1.479-.501 2.362 0 1.36.37 2.458 1.11 3.293.743.835 1.707 1.252 2.89 1.252 1.18 0 2.141-.417 2.885-1.252.745-.84 1.117-1.938 1.117-3.293 0-1.341-.374-2.433-1.124-3.278-.744-.845-1.703-1.267-2.877-1.267zm11.422 9.105c.43 0 .811-.053 1.145-.158.339-.109.64-.276.902-.501.263-.229.463-.539.601-.93.144-.392.215-.854.215-1.389v-7.079h1.181v6.993c0 2.763-1.348 4.145-4.044 4.145-1.398 0-2.424-.346-3.078-1.038-.654-.697-.98-1.732-.98-3.107v-6.993h1.188v7.079c0 1.985.956 2.978 2.87 2.978zm7.671.937h-1.188v-10.994h1.188v10.994zm2.482 0v-10.994h7.094v1.009h-5.906v3.83h5.025v1.009h-5.025v4.109h5.906v1.037h-7.094z"/>
                    </svg>